<?xml version="1.0" encoding="UTF-8" standalone="no"?>
<svg
   xmlns:ns0="http://www.iki.fi/pav/software/textext/"
   xmlns:dc="http://purl.org/dc/elements/1.1/"
   xmlns:cc="http://creativecommons.org/ns#"
   xmlns:rdf="http://www.w3.org/1999/02/22-rdf-syntax-ns#"
   xmlns:svg="http://www.w3.org/2000/svg"
   xmlns="http://www.w3.org/2000/svg"
   xmlns:sodipodi="http://sodipodi.sourceforge.net/DTD/sodipodi-0.dtd"
   xmlns:inkscape="http://www.inkscape.org/namespaces/inkscape"
   version="1.1"
   id="svg2"
   xml:space="preserve"
   width="1114.0573"
   height="465.23511"
   viewBox="0 0 1114.0573 465.23511"
   sodipodi:docname="xu_mapping.svg"
   inkscape:version="1.0.2 (1.0.2+r75+1)"><metadata
     id="metadata8"><rdf:RDF><cc:Work
         rdf:about=""><dc:format>image/svg+xml</dc:format><dc:type
           rdf:resource="http://purl.org/dc/dcmitype/StillImage" /><dc:title></dc:title></cc:Work></rdf:RDF></metadata><defs
     id="defs6"><g
       id="id-44a7f008-131c-43f3-9203-bb3129c7b9fd"><symbol
         overflow="visible"
         id="id-5c19237a-7616-47e9-b0f1-95d9c7f55f6d"><path
           style="stroke:none"
           d=""
           id="id-bd76414d-69b8-4e05-b12c-0cfe9fe2df2b" /></symbol><symbol
         overflow="visible"
         id="id-c2063758-a5e9-4229-8c62-00b6bf40526c"><path
           style="stroke:none"
           d="M 1.09375,-3.421875 V -0.75 c 0,0.4375 -0.109375,0.4375 -0.78125,0.4375 V 0 c 0.359375,-0.015625 0.859375,-0.03125 1.140625,-0.03125 0.25,0 0.765625,0.015625 1.109375,0.03125 v -0.3125 c -0.671875,0 -0.78125,0 -0.78125,-0.4375 V -2.59375 C 1.78125,-3.625 2.5,-4.1875 3.125,-4.1875 c 0.640625,0 0.75,0.53125 0.75,1.109375 V -0.75 c 0,0.4375 -0.109375,0.4375 -0.78125,0.4375 V 0 c 0.34375,-0.015625 0.859375,-0.03125 1.125,-0.03125 0.25,0 0.78125,0.015625 1.109375,0.03125 v -0.3125 c -0.65625,0 -0.765625,0 -0.765625,-0.4375 v -1.84375 c 0,-1.03125 0.703125,-1.59375 1.34375,-1.59375 0.625,0 0.734375,0.53125 0.734375,1.109375 V -0.75 c 0,0.4375 -0.109375,0.4375 -0.78125,0.4375 V 0 c 0.34375,-0.015625 0.859375,-0.03125 1.125,-0.03125 0.265625,0 0.78125,0.015625 1.125,0.03125 v -0.3125 c -0.515625,0 -0.765625,0 -0.78125,-0.296875 v -1.90625 c 0,-0.859375 0,-1.15625 -0.3125,-1.515625 -0.140625,-0.171875 -0.46875,-0.375 -1.046875,-0.375 -0.828125,0 -1.28125,0.59375 -1.4375,0.984375 C 4.390625,-4.296875 3.65625,-4.40625 3.203125,-4.40625 2.46875,-4.40625 2,-3.984375 1.71875,-3.359375 V -4.40625 L 0.3125,-4.296875 v 0.3125 c 0.703125,0 0.78125,0.0625 0.78125,0.5625 z m 0,0"
           id="id-4a6358a5-e2ce-45b2-a4f3-211c04ccd21a" /></symbol><symbol
         overflow="visible"
         id="id-2370f4b3-9c46-4d76-8e50-04e150bc51cf"><path
           style="stroke:none"
           d="m 3.3125,-0.75 c 0.046875,0.390625 0.3125,0.8125 0.78125,0.8125 0.21875,0 0.828125,-0.140625 0.828125,-0.953125 v -0.5625 h -0.25 v 0.5625 c 0,0.578125 -0.25,0.640625 -0.359375,0.640625 -0.328125,0 -0.375,-0.453125 -0.375,-0.5 v -1.984375 c 0,-0.421875 0,-0.8125 -0.359375,-1.1875 C 3.1875,-4.3125 2.6875,-4.46875 2.21875,-4.46875 c -0.828125,0 -1.515625,0.46875 -1.515625,1.125 0,0.296875 0.203125,0.46875 0.46875,0.46875 0.28125,0 0.453125,-0.203125 0.453125,-0.453125 0,-0.125 -0.046875,-0.453125 -0.515625,-0.453125 C 1.390625,-4.140625 1.875,-4.25 2.1875,-4.25 c 0.5,0 1.0625,0.390625 1.0625,1.28125 v 0.359375 c -0.515625,0.03125 -1.203125,0.0625 -1.828125,0.359375 -0.75,0.34375 -1,0.859375 -1,1.296875 0,0.8125 0.96875,1.0625 1.59375,1.0625 0.65625,0 1.109375,-0.40625 1.296875,-0.859375 z M 3.25,-2.390625 v 1 c 0,0.9375 -0.71875,1.28125 -1.171875,1.28125 -0.484375,0 -0.890625,-0.34375 -0.890625,-0.84375 0,-0.546875 0.421875,-1.375 2.0625,-1.4375 z m 0,0"
           id="id-d00909e8-f49d-4011-bfeb-f0330ea73618" /></symbol><symbol
         overflow="visible"
         id="id-a5a79831-8025-4f62-88f1-314f8579e1e4"><path
           style="stroke:none"
           d="m 1.71875,-3.75 v -0.65625 l -1.4375,0.109375 v 0.3125 c 0.703125,0 0.78125,0.0625 0.78125,0.5 v 4.65625 C 1.0625,1.625 0.953125,1.625 0.28125,1.625 V 1.9375 C 0.625,1.921875 1.140625,1.90625 1.390625,1.90625 c 0.28125,0 0.78125,0.015625 1.125,0.03125 V 1.625 C 1.859375,1.625 1.75,1.625 1.75,1.171875 V -0.59375 c 0.046875,0.171875 0.46875,0.703125 1.21875,0.703125 1.1875,0 2.21875,-0.984375 2.21875,-2.265625 0,-1.265625 -0.953125,-2.25 -2.078125,-2.25 -0.78125,0 -1.203125,0.4375 -1.390625,0.65625 z M 1.75,-1.140625 v -2.21875 C 2.03125,-3.875 2.515625,-4.15625 3.03125,-4.15625 c 0.734375,0 1.328125,0.875 1.328125,2 0,1.203125 -0.6875,2.046875 -1.421875,2.046875 -0.40625,0 -0.78125,-0.203125 -1.046875,-0.609375 C 1.75,-0.921875 1.75,-0.9375 1.75,-1.140625 Z m 0,0"
           id="id-2ddb55d0-4f08-4958-acf1-1ad8c7f02bdd" /></symbol><symbol
         overflow="visible"
         id="id-92b44575-dd50-4234-b90e-9d33a3d14e4d"><path
           style="stroke:none"
           d="M 1.765625,-4.40625 0.375,-4.296875 v 0.3125 c 0.640625,0 0.734375,0.0625 0.734375,0.546875 V -0.75 c 0,0.4375 -0.109375,0.4375 -0.78125,0.4375 V 0 C 0.640625,-0.015625 1.1875,-0.03125 1.421875,-0.03125 1.78125,-0.03125 2.125,-0.015625 2.46875,0 v -0.3125 c -0.671875,0 -0.703125,-0.046875 -0.703125,-0.4375 z m 0.03125,-1.734375 c 0,-0.3125 -0.234375,-0.53125 -0.515625,-0.53125 -0.3125,0 -0.53125,0.265625 -0.53125,0.53125 0,0.265625 0.21875,0.53125 0.53125,0.53125 0.28125,0 0.515625,-0.21875 0.515625,-0.53125 z m 0,0"
           id="id-ad49801e-10cc-458e-8d90-b4bdb4b4afa9" /></symbol><symbol
         overflow="visible"
         id="id-25bfd563-baed-4880-8b3f-6a510f1ef02a"><path
           style="stroke:none"
           d="M 1.09375,-3.421875 V -0.75 c 0,0.4375 -0.109375,0.4375 -0.78125,0.4375 V 0 c 0.359375,-0.015625 0.859375,-0.03125 1.140625,-0.03125 0.25,0 0.765625,0.015625 1.109375,0.03125 v -0.3125 c -0.671875,0 -0.78125,0 -0.78125,-0.4375 V -2.59375 C 1.78125,-3.625 2.5,-4.1875 3.125,-4.1875 c 0.640625,0 0.75,0.53125 0.75,1.109375 V -0.75 c 0,0.4375 -0.109375,0.4375 -0.78125,0.4375 V 0 c 0.34375,-0.015625 0.859375,-0.03125 1.125,-0.03125 0.25,0 0.78125,0.015625 1.109375,0.03125 v -0.3125 c -0.515625,0 -0.765625,0 -0.765625,-0.296875 v -1.90625 c 0,-0.859375 0,-1.15625 -0.3125,-1.515625 -0.140625,-0.171875 -0.46875,-0.375 -1.046875,-0.375 C 2.46875,-4.40625 2,-3.984375 1.71875,-3.359375 V -4.40625 L 0.3125,-4.296875 v 0.3125 c 0.703125,0 0.78125,0.0625 0.78125,0.5625 z m 0,0"
           id="id-4787d51f-638b-4427-85b6-04831c0fe639" /></symbol><symbol
         overflow="visible"
         id="id-5cfbe5d8-d550-4a8b-95d0-149b133be6e4"><path
           style="stroke:none"
           d="m 2.21875,-1.71875 c -0.875,0 -0.875,-1 -0.875,-1.21875 0,-0.265625 0.015625,-0.59375 0.15625,-0.84375 0.078125,-0.109375 0.3125,-0.390625 0.71875,-0.390625 0.859375,0 0.859375,0.984375 0.859375,1.21875 0,0.265625 0,0.59375 -0.15625,0.84375 C 2.84375,-2 2.609375,-1.71875 2.21875,-1.71875 Z M 1.0625,-1.328125 c 0,-0.03125 0,-0.265625 0.15625,-0.46875 0.390625,0.28125 0.8125,0.3125 1,0.3125 0.921875,0 1.609375,-0.6875 1.609375,-1.453125 0,-0.375 -0.15625,-0.734375 -0.40625,-0.96875 C 3.78125,-4.25 4.140625,-4.296875 4.3125,-4.296875 c 0.03125,0 0.078125,0 0.109375,0.015625 C 4.3125,-4.25 4.25,-4.140625 4.25,-4.015625 c 0,0.171875 0.140625,0.28125 0.296875,0.28125 0.09375,0 0.28125,-0.0625 0.28125,-0.296875 0,-0.171875 -0.109375,-0.484375 -0.5,-0.484375 -0.203125,0 -0.640625,0.0625 -1.0625,0.46875 C 2.84375,-4.375 2.4375,-4.40625 2.21875,-4.40625 c -0.9375,0 -1.625,0.6875 -1.625,1.453125 0,0.4375 0.21875,0.8125 0.46875,1.03125 -0.125,0.140625 -0.3125,0.46875 -0.3125,0.828125 0,0.3125 0.140625,0.6875 0.453125,0.890625 -0.609375,0.15625 -0.921875,0.59375 -0.921875,0.984375 0,0.71875 0.984375,1.265625 2.203125,1.265625 1.171875,0 2.203125,-0.5 2.203125,-1.28125 0,-0.34375 -0.125,-0.859375 -0.640625,-1.140625 -0.53125,-0.265625 -1.109375,-0.265625 -1.71875,-0.265625 -0.25,0 -0.671875,0 -0.75,-0.015625 C 1.265625,-0.703125 1.0625,-1 1.0625,-1.328125 Z M 2.5,1.828125 c -1.015625,0 -1.703125,-0.515625 -1.703125,-1.046875 0,-0.453125 0.375,-0.828125 0.8125,-0.84375 h 0.59375 c 0.859375,0 1.96875,0 1.96875,0.84375 0,0.546875 -0.703125,1.046875 -1.671875,1.046875 z m 0,0"
           id="id-1f9c562a-0f5e-4cd5-9c9e-ff350bb6bdc7" /></symbol><symbol
         overflow="visible"
         id="id-5eabce65-8095-49a7-96ba-8eb350b19960"><path
           style="stroke:none"
           d="m 3.296875,2.390625 c 0,-0.03125 0,-0.046875 -0.171875,-0.21875 C 1.890625,0.921875 1.5625,-0.96875 1.5625,-2.5 c 0,-1.734375 0.375,-3.46875 1.609375,-4.703125 0.125,-0.125 0.125,-0.140625 0.125,-0.171875 0,-0.078125 -0.03125,-0.109375 -0.09375,-0.109375 -0.109375,0 -1,0.6875 -1.59375,1.953125 -0.5,1.09375 -0.625,2.203125 -0.625,3.03125 0,0.78125 0.109375,1.984375 0.65625,3.125 C 2.25,1.84375 3.09375,2.5 3.203125,2.5 c 0.0625,0 0.09375,-0.03125 0.09375,-0.109375 z m 0,0"
           id="id-1f0f0709-8c0d-4b9a-afef-9624b4ee98ba" /></symbol><symbol
         overflow="visible"
         id="id-7189d10b-ba43-4f79-881b-c7cf7d8045a9"><path
           style="stroke:none"
           d="m 2.875,-2.5 c 0,-0.765625 -0.109375,-1.96875 -0.65625,-3.109375 -0.59375,-1.21875 -1.453125,-1.875 -1.546875,-1.875 -0.0625,0 -0.109375,0.046875 -0.109375,0.109375 0,0.03125 0,0.046875 0.1875,0.234375 0.984375,0.984375 1.546875,2.5625 1.546875,4.640625 0,1.71875 -0.359375,3.46875 -1.59375,4.71875 C 0.5625,2.34375 0.5625,2.359375 0.5625,2.390625 0.5625,2.453125 0.609375,2.5 0.671875,2.5 0.765625,2.5 1.671875,1.8125 2.25,0.546875 2.765625,-0.546875 2.875,-1.65625 2.875,-2.5 Z m 0,0"
           id="id-960a2a16-e254-4d9f-bd3c-dec1828cbe2e" /></symbol><symbol
         overflow="visible"
         id="id-679dafa7-edfc-45ac-bfe4-b4b78a59ce85"><path
           style="stroke:none"
           d=""
           id="id-6d3ce944-a876-403d-af5a-48f4d8d14347" /></symbol><symbol
         overflow="visible"
         id="id-af0c34df-c842-4a18-9064-059673ceb562"><path
           style="stroke:none"
           d="m 2.546875,-1.890625 c -0.875,0 -0.875,-0.671875 -0.875,-1.125 0,-0.4375 0,-1.109375 0.875,-1.109375 0.875,0 0.875,0.671875 0.875,1.109375 0,0.453125 0,1.125 -0.875,1.125 z m -1.21875,0.09375 c 0.453125,0.234375 0.96875,0.265625 1.21875,0.265625 1.4375,0 1.984375,-0.78125 1.984375,-1.484375 0,-0.46875 -0.25,-0.796875 -0.40625,-0.953125 0.296875,-0.15625 0.515625,-0.171875 0.625,-0.1875 -0.03125,0.046875 -0.046875,0.140625 -0.046875,0.203125 0,0.25 0.171875,0.421875 0.4375,0.421875 0.25,0 0.421875,-0.1875 0.421875,-0.421875 0,-0.234375 -0.171875,-0.578125 -0.625,-0.578125 -0.15625,0 -0.625,0.03125 -1.0625,0.375 -0.171875,-0.125 -0.59375,-0.328125 -1.328125,-0.328125 -1.4375,0 -1.984375,0.78125 -1.984375,1.46875 0,0.40625 0.1875,0.828125 0.515625,1.046875 -0.28125,0.359375 -0.34375,0.6875 -0.34375,0.890625 0,0.15625 0.046875,0.640625 0.4375,0.953125 C 1.046875,-0.09375 0.3125,0.125 0.3125,0.75 0.3125,1.25 0.875,2 2.859375,2 4.625,2 5.40625,1.421875 5.40625,0.71875 c 0,-0.296875 -0.078125,-0.921875 -0.75,-1.265625 -0.5625,-0.28125 -1.15625,-0.28125 -2.109375,-0.28125 -0.265625,0 -0.71875,0 -0.765625,-0.015625 -0.453125,-0.0625 -0.5625,-0.4375 -0.5625,-0.625 0,-0.09375 0.046875,-0.25 0.109375,-0.328125 z M 1.9375,0.125 h 1.171875 c 0.3125,0 1.4375,0 1.4375,0.625 0,0.359375 -0.390625,0.890625 -1.6875,0.890625 -1.1875,0 -1.6875,-0.453125 -1.6875,-0.90625 C 1.171875,0.125 1.796875,0.125 1.9375,0.125 Z m 0,0"
           id="id-39fb1794-5e22-436e-962f-a59b2c8e8b0f" /></symbol><symbol
         overflow="visible"
         id="id-85259457-27df-40a2-a867-57e2a35e0ca8"><path
           style="stroke:none"
           d="M 3.453125,-2.453125 4.609375,-3.75 C 4.75,-3.890625 4.8125,-3.953125 5.625,-3.953125 v -0.46875 c -0.34375,0.015625 -0.859375,0.03125 -0.90625,0.03125 -0.25,0 -0.75,-0.03125 -1.03125,-0.03125 v 0.46875 c 0.140625,0 0.265625,0.015625 0.375,0.078125 -0.03125,0.0625 -0.03125,0.09375 -0.078125,0.125 L 3.15625,-2.8125 2.171875,-3.953125 h 0.40625 v -0.46875 c -0.265625,0 -0.890625,0.03125 -1.21875,0.03125 -0.3125,0 -0.765625,-0.03125 -1.09375,-0.03125 v 0.46875 h 0.71875 L 2.53125,-2.125 1.21875,-0.65625 c -0.15625,0.1875 -0.515625,0.1875 -1,0.1875 V 0 c 0.34375,-0.015625 0.875,-0.03125 0.921875,-0.03125 0.25,0 0.828125,0.015625 1.015625,0.03125 v -0.46875 c -0.171875,0 -0.359375,-0.046875 -0.359375,-0.109375 0,-0.015625 0,-0.015625 0.0625,-0.09375 l 0.96875,-1.09375 1.09375,1.296875 H 3.53125 V 0 c 0.265625,-0.015625 0.875,-0.03125 1.203125,-0.03125 0.3125,0 0.765625,0.015625 1.09375,0.03125 V -0.46875 H 5.125 Z m 0,0"
           id="id-1dc83748-79ae-4f53-a2e8-faef23d0b3f0" /></symbol></g></defs><sodipodi:namedview
     pagecolor="#ffffff"
     bordercolor="#666666"
     borderopacity="1"
     objecttolerance="10"
     gridtolerance="10"
     guidetolerance="10"
     inkscape:pageopacity="0"
     inkscape:pageshadow="2"
     inkscape:window-width="1627"
     inkscape:window-height="1022"
     id="namedview4"
     showgrid="false"
     inkscape:zoom="1.2001179"
     inkscape:cx="557.02863"
     inkscape:cy="232.61755"
     inkscape:window-x="173"
     inkscape:window-y="0"
     inkscape:window-maximized="1"
     inkscape:current-layer="g10" /><g
     id="g10"
     inkscape:groupmode="layer"
     inkscape:label="xu_mapping"
     transform="matrix(1.3333333,0,0,1.3333333,0,1.3630878e-5)"><g
       id="g12"><path
         d="m 0.066,182.418 c 0,-0.004 0.008,-0.027 0.024,-0.027 0,0 0.004,0 0.008,0.004 -0.004,0.003 -0.008,0.007 -0.008,0.011 0,0.004 0,0.008 0.008,0.008 0.004,0 0.011,-0.004 0.011,-0.012 0,-0.011 -0.011,-0.015 -0.019,-0.015 -0.016,0 -0.024,0.011 -0.024,0.015 -0.007,-0.011 -0.019,-0.015 -0.023,-0.015 -0.023,0 -0.035,0.027 -0.035,0.035 0.004,0 0.004,0 0.004,0 0.008,-0.024 0.023,-0.031 0.031,-0.031 0.004,0 0.012,0.004 0.012,0.015 0,0.008 -0.004,0.024 -0.012,0.055 -0.004,0.012 -0.012,0.019 -0.023,0.019 0,0 -0.004,0 -0.012,0 0.008,-0.003 0.012,-0.007 0.012,-0.011 0,-0.008 -0.004,-0.008 -0.008,-0.008 -0.008,0 -0.012,0.004 -0.012,0.012 0,0.007 0.012,0.015 0.02,0.015 0.015,0 0.023,-0.015 0.023,-0.019 0.004,0.008 0.012,0.019 0.023,0.019 0.024,0 0.036,-0.031 0.036,-0.035 0,-0.004 0,-0.004 -0.004,-0.004 0,0 0,0.004 0,0.004 -0.008,0.024 -0.024,0.027 -0.032,0.027 -0.007,0 -0.011,-0.003 -0.011,-0.011 0,-0.008 0,-0.012 0.004,-0.02 z"
         style="fill:#000000;fill-opacity:1;fill-rule:nonzero;stroke:none"
         id="path14" /><path
         d="m 0.168,182.418 c 0,-0.004 0,-0.004 -0.004,-0.004 -0.008,0.012 -0.023,0.012 -0.027,0.012 v 0.004 c 0,0 0.011,0 0.019,-0.004 v 0.078 c 0,0.004 0,0.008 -0.015,0.008 H 0.137 v 0.004 c 0.004,0 0.019,0 0.027,0 0.004,0 0.024,0 0.027,0 v -0.004 H 0.184 c -0.016,0 -0.016,-0.004 -0.016,-0.008 z"
         style="fill:#000000;fill-opacity:1;fill-rule:nonzero;stroke:none"
         id="path16" /><path
         d="m 0.066,182.418 c 0,-0.004 0.008,-0.027 0.024,-0.027 0,0 0.004,0 0.008,0.004 -0.004,0.003 -0.008,0.007 -0.008,0.011 0,0.004 0,0.008 0.008,0.008 0.004,0 0.011,-0.004 0.011,-0.012 0,-0.011 -0.011,-0.015 -0.019,-0.015 -0.016,0 -0.024,0.011 -0.024,0.015 -0.007,-0.011 -0.019,-0.015 -0.023,-0.015 -0.023,0 -0.035,0.027 -0.035,0.035 0.004,0 0.004,0 0.004,0 0.008,-0.024 0.023,-0.031 0.031,-0.031 0.004,0 0.012,0.004 0.012,0.015 0,0.008 -0.004,0.024 -0.012,0.055 -0.004,0.012 -0.012,0.019 -0.023,0.019 0,0 -0.004,0 -0.012,0 0.008,-0.003 0.012,-0.007 0.012,-0.011 0,-0.008 -0.004,-0.008 -0.008,-0.008 -0.008,0 -0.012,0.004 -0.012,0.012 0,0.007 0.012,0.015 0.02,0.015 0.015,0 0.023,-0.015 0.023,-0.019 0.004,0.008 0.012,0.019 0.023,0.019 0.024,0 0.036,-0.031 0.036,-0.035 0,-0.004 0,-0.004 -0.004,-0.004 0,0 0,0.004 0,0.004 -0.008,0.024 -0.024,0.027 -0.032,0.027 -0.007,0 -0.011,-0.003 -0.011,-0.011 0,-0.008 0,-0.012 0.004,-0.02 z"
         style="fill:#000000;fill-opacity:1;fill-rule:nonzero;stroke:none"
         id="path18" /><path
         d="m 0.168,182.418 c 0,-0.004 0,-0.004 -0.004,-0.004 -0.008,0.012 -0.023,0.012 -0.027,0.012 v 0.004 c 0,0 0.011,0 0.019,-0.004 v 0.078 c 0,0.004 0,0.008 -0.015,0.008 H 0.137 v 0.004 c 0.004,0 0.019,0 0.027,0 0.004,0 0.024,0 0.027,0 v -0.004 H 0.184 c -0.016,0 -0.016,-0.004 -0.016,-0.008 z"
         style="fill:#000000;fill-opacity:1;fill-rule:nonzero;stroke:none"
         id="path20" /><path
         d="m 34.812,7.184 c 0,-0.008 0.008,-0.028 0.024,-0.028 0,0 0.004,0 0.008,0.004 -0.004,0 -0.008,0.008 -0.008,0.012 0,0.004 0,0.008 0.008,0.008 0.004,0 0.011,-0.004 0.011,-0.012 0,-0.012 -0.011,-0.016 -0.019,-0.016 -0.016,0 -0.024,0.012 -0.024,0.016 -0.007,-0.012 -0.019,-0.016 -0.023,-0.016 -0.023,0 -0.035,0.028 -0.035,0.036 0.004,0 0.004,0 0.004,0 0.008,-0.024 0.023,-0.032 0.031,-0.032 0.004,0 0.012,0.004 0.012,0.016 0,0.008 -0.004,0.019 -0.012,0.051 -0.004,0.015 -0.012,0.023 -0.023,0.023 0,0 -0.004,0 -0.012,-0.004 0.008,0 0.012,-0.004 0.012,-0.012 0,-0.003 -0.004,-0.007 -0.008,-0.007 -0.008,0 -0.012,0.007 -0.012,0.015 0,0.008 0.012,0.012 0.02,0.012 0.015,0 0.023,-0.016 0.023,-0.016 0.004,0.008 0.012,0.016 0.023,0.016 0.024,0 0.036,-0.027 0.036,-0.031 0,-0.004 0,-0.004 -0.004,-0.004 0,0 0,0 0,0.004 -0.008,0.023 -0.024,0.027 -0.032,0.027 -0.007,0 -0.011,-0.008 -0.011,-0.016 0,-0.003 0,-0.007 0.004,-0.015 z"
         style="fill:#000000;fill-opacity:1;fill-rule:nonzero;stroke:none"
         id="path22" /><path
         d="m 34.914,7.184 c 0,-0.004 0,-0.004 -0.004,-0.004 -0.008,0.011 -0.023,0.011 -0.027,0.011 v 0.004 c 0,0 0.012,0 0.019,-0.004 V 7.27 c 0,0.003 0,0.007 -0.015,0.007 h -0.004 v 0.004 c 0.004,0 0.019,0 0.027,0 0.004,0 0.024,0 0.028,0 V 7.277 H 34.93 c -0.016,0 -0.016,-0.004 -0.016,-0.007 z"
         style="fill:#000000;fill-opacity:1;fill-rule:nonzero;stroke:none"
         id="path24" /><path
         d="m 39.699,9.934 c 0.008,-0.008 0.016,-0.02 0.02,-0.028 0.008,-0.008 0.015,-0.008 0.027,-0.008 V 9.891 c -0.008,0 -0.012,0 -0.019,0 -0.008,0 -0.02,0 -0.02,0 v 0.007 c 0.004,0 0.004,0 0.004,0.004 0,0.004 0,0.008 0,0.008 L 39.695,9.93 39.68,9.906 C 39.676,9.902 39.676,9.902 39.676,9.902 c 0,-0.004 0.004,-0.004 0.008,-0.004 V 9.891 c -0.004,0 -0.02,0 -0.024,0 -0.004,0 -0.015,0 -0.019,0 v 0.007 c 0.015,0 0.015,0 0.023,0.012 l 0.024,0.028 -0.02,0.027 c -0.012,0.012 -0.023,0.012 -0.027,0.012 v 0.007 c 0.004,0 0.011,0 0.015,0 0.008,0 0.016,0 0.024,0 V 9.977 c -0.008,0 -0.008,-0.004 -0.008,-0.008 0,-0.004 0.008,-0.012 0.019,-0.028 l 0.016,0.024 c 0.004,0.004 0.004,0.004 0.004,0.008 0,0 0,0.004 -0.008,0.004 v 0.007 c 0.008,0 0.02,0 0.024,0 0.007,0 0.015,0 0.023,0 V 9.977 c -0.012,0 -0.016,0 -0.023,-0.008 z"
         style="fill:#000000;fill-opacity:1;fill-rule:nonzero;stroke:none"
         id="path26" /><path
         d="m 39.699,9.934 c 0.008,-0.008 0.016,-0.02 0.02,-0.028 0.008,-0.008 0.015,-0.008 0.027,-0.008 V 9.891 c -0.008,0 -0.012,0 -0.019,0 -0.008,0 -0.02,0 -0.02,0 v 0.007 c 0.004,0 0.004,0 0.004,0.004 0,0.004 0,0.008 0,0.008 L 39.695,9.93 39.68,9.906 C 39.676,9.902 39.676,9.902 39.676,9.902 c 0,-0.004 0.004,-0.004 0.008,-0.004 V 9.891 c -0.004,0 -0.02,0 -0.024,0 -0.004,0 -0.015,0 -0.019,0 v 0.007 c 0.015,0 0.015,0 0.023,0.012 l 0.024,0.028 -0.02,0.027 c -0.012,0.012 -0.023,0.012 -0.027,0.012 v 0.007 c 0.004,0 0.011,0 0.015,0 0.008,0 0.016,0 0.024,0 V 9.977 c -0.008,0 -0.008,-0.004 -0.008,-0.008 0,-0.004 0.008,-0.012 0.019,-0.028 l 0.016,0.024 c 0.004,0.004 0.004,0.004 0.004,0.008 0,0 0,0.004 -0.008,0.004 v 0.007 c 0.008,0 0.02,0 0.024,0 0.007,0 0.015,0 0.023,0 V 9.977 c -0.012,0 -0.016,0 -0.023,-0.008 z"
         style="fill:#000000;fill-opacity:1;fill-rule:nonzero;stroke:none"
         id="path28" /><g
         id="g30"><path
           d="m 205.785,181.246 h 54.535 v 44.355 h -54.535 z"
           style="fill:none;stroke:#000000;stroke-width:2.973;stroke-linecap:butt;stroke-linejoin:miter;stroke-miterlimit:4;stroke-dasharray:2.973, 5.946;stroke-dashoffset:0;stroke-opacity:0.037037"
           id="path32" /></g><g
         id="g34"><path
           d="m 48.59,298.523 c 330.32,0 330.32,0 330.32,0"
           style="fill:none;stroke:#000000;stroke-width:1.5;stroke-linecap:butt;stroke-linejoin:miter;stroke-miterlimit:4;stroke-dasharray:none;stroke-opacity:1"
           id="path36" /></g><g
         id="g38"
         transform="scale(-1)"><path
           d="m -372.91,-298.523 3,-3 -10.5,3 10.5,3 z"
           style="fill:#000000;fill-opacity:1;fill-rule:evenodd;stroke:#000000;stroke-width:0.8;stroke-linecap:butt;stroke-linejoin:miter;stroke-miterlimit:4;stroke-dasharray:none;stroke-opacity:1"
           id="path40" /></g><g
         id="g42"><path
           d="M 70.418,348.926 V 83.762"
           style="fill:none;stroke:#000000;stroke-width:1.5;stroke-linecap:butt;stroke-linejoin:miter;stroke-miterlimit:4;stroke-dasharray:none;stroke-opacity:1"
           id="path44" /></g><g
         id="g46"
         transform="rotate(90)"><path
           d="m 89.762,-70.418 3,-3 -10.5,3 10.5,3 z"
           style="fill:#000000;fill-opacity:1;fill-rule:evenodd;stroke:#000000;stroke-width:0.8;stroke-linecap:butt;stroke-linejoin:miter;stroke-miterlimit:4;stroke-dasharray:none;stroke-opacity:1"
           id="path48" /></g><path
         d="m 387.355,316.945 c 0.223,-0.883 1.047,-4.133 3.473,-4.133 0.164,0 1.047,0 1.762,0.442 -0.992,0.219 -1.652,1.047 -1.652,1.926 0,0.55 0.386,1.215 1.32,1.215 0.773,0 1.875,-0.61 1.875,-2.04 0,-1.82 -2.039,-2.316 -3.25,-2.316 -2.039,0 -3.25,1.875 -3.692,2.645 -0.882,-2.313 -2.753,-2.645 -3.8,-2.645 -3.637,0 -5.676,4.52 -5.676,5.402 0,0.383 0.387,0.383 0.441,0.383 0.278,0 0.387,-0.109 0.442,-0.383 1.211,-3.746 3.523,-4.629 4.738,-4.629 0.66,0 1.871,0.329 1.871,2.368 0,1.101 -0.605,3.418 -1.871,8.375 -0.551,2.148 -1.82,3.636 -3.363,3.636 -0.219,0 -0.989,0 -1.762,-0.441 0.883,-0.223 1.652,-0.938 1.652,-1.93 0,-0.933 -0.769,-1.211 -1.265,-1.211 -1.102,0 -1.93,0.883 -1.93,2.039 0,1.598 1.707,2.313 3.25,2.313 2.371,0 3.637,-2.477 3.691,-2.645 0.442,1.27 1.707,2.645 3.801,2.645 3.637,0 5.621,-4.516 5.621,-5.399 0,-0.386 -0.277,-0.386 -0.386,-0.386 -0.333,0 -0.387,0.168 -0.497,0.386 -1.156,3.801 -3.523,4.629 -4.625,4.629 -1.378,0 -1.929,-1.101 -1.929,-2.316 0,-0.77 0.164,-1.539 0.551,-3.082 z"
         style="fill:#000000;fill-opacity:1;fill-rule:nonzero;stroke:none"
         id="path50" /><path
         d="m 403.906,317.199 c 0,-0.664 0,-0.664 -0.715,-0.664 -1.597,1.543 -3.8,1.543 -4.793,1.543 v 0.883 c 0.551,0 2.204,0 3.524,-0.66 v 12.504 c 0,0.828 0,1.156 -2.422,1.156 h -0.938 v 0.883 c 0.442,0 3.469,-0.11 4.352,-0.11 0.774,0 3.856,0.11 4.406,0.11 v -0.883 h -0.933 c -2.481,0 -2.481,-0.328 -2.481,-1.156 z"
         style="fill:#000000;fill-opacity:1;fill-rule:nonzero;stroke:none"
         id="path52" /><path
         d="m 43.082,60.148 c 0.219,-0.882 1.047,-4.132 3.469,-4.132 0.168,0 1.047,0 1.765,0.441 -0.992,0.223 -1.656,1.047 -1.656,1.93 0,0.551 0.387,1.211 1.324,1.211 0.77,0 1.871,-0.606 1.871,-2.039 0,-1.817 -2.035,-2.313 -3.25,-2.313 -2.035,0 -3.25,1.871 -3.691,2.645 -0.879,-2.313 -2.754,-2.645 -3.801,-2.645 -3.633,0 -5.672,4.516 -5.672,5.399 0,0.386 0.387,0.386 0.442,0.386 0.273,0 0.383,-0.109 0.437,-0.386 1.215,-3.747 3.528,-4.629 4.739,-4.629 0.664,0 1.875,0.332 1.875,2.371 0,1.101 -0.606,3.414 -1.875,8.371 -0.551,2.148 -1.817,3.637 -3.36,3.637 -0.219,0 -0.992,0 -1.761,-0.442 0.878,-0.219 1.652,-0.933 1.652,-1.926 0,-0.937 -0.774,-1.211 -1.27,-1.211 -1.101,0 -1.925,0.879 -1.925,2.036 0,1.597 1.707,2.316 3.25,2.316 2.367,0 3.636,-2.48 3.691,-2.645 0.441,1.266 1.707,2.645 3.801,2.645 3.636,0 5.617,-4.52 5.617,-5.398 0,-0.387 -0.274,-0.387 -0.383,-0.387 -0.332,0 -0.387,0.164 -0.496,0.387 -1.156,3.8 -3.527,4.625 -4.629,4.625 -1.375,0 -1.93,-1.102 -1.93,-2.313 0,-0.773 0.168,-1.543 0.555,-3.086 z"
         style="fill:#000000;fill-opacity:1;fill-rule:nonzero;stroke:none"
         id="path54" /><path
         d="m 63.816,71.586 h -0.824 c -0.054,0.551 -0.332,1.984 -0.66,2.203 -0.168,0.168 -2.039,0.168 -2.426,0.168 h -4.515 c 2.586,-2.262 3.468,-2.977 4.902,-4.133 1.816,-1.433 3.523,-2.976 3.523,-5.289 0,-2.976 -2.586,-4.793 -5.726,-4.793 -3.031,0 -5.125,2.149 -5.125,4.406 0,1.211 1.047,1.379 1.324,1.379 0.551,0 1.266,-0.441 1.266,-1.324 0,-0.441 -0.164,-1.32 -1.434,-1.32 0.774,-1.707 2.426,-2.258 3.582,-2.258 2.481,0 3.746,1.926 3.746,3.91 0,2.149 -1.543,3.801 -2.312,4.684 l -5.895,5.894 c -0.277,0.219 -0.277,0.274 -0.277,0.934 h 10.137 z"
         style="fill:#000000;fill-opacity:1;fill-rule:nonzero;stroke:none"
         id="path56" /><g
         id="g58"><path
           d="m 213.395,226.406 c 0,3.641 -2.95,6.59 -6.59,6.59 -3.641,0 -6.594,-2.949 -6.594,-6.59 0,-3.64 2.953,-6.594 6.594,-6.594 3.64,0 6.59,2.954 6.59,6.594 z"
           style="fill:#000000;fill-opacity:1;fill-rule:nonzero;stroke:#000000;stroke-width:0.775159;stroke-linecap:butt;stroke-linejoin:miter;stroke-miterlimit:4;stroke-dasharray:none;stroke-opacity:1"
           id="path60" /></g><path
         d="m 121.469,268.141 c 0,-0.079 0,-0.118 -0.43,-0.551 -3.094,-3.133 -3.918,-7.871 -3.918,-11.707 0,-4.348 0.941,-8.695 4.035,-11.789 0.313,-0.313 0.313,-0.352 0.313,-0.43 0,-0.195 -0.078,-0.273 -0.235,-0.273 -0.273,0 -2.507,1.722 -3.996,4.894 -1.254,2.742 -1.566,5.524 -1.566,7.598 0,1.957 0.273,4.972 1.644,7.832 1.528,3.055 3.645,4.699 3.918,4.699 0.157,0 0.235,-0.078 0.235,-0.273 z"
         style="fill:#000000;fill-opacity:1;fill-rule:nonzero;stroke:none"
         id="path62" /><path
         d="m 131.258,254.59 c 0.156,-0.625 0.742,-2.938 2.465,-2.938 0.117,0 0.746,0 1.254,0.313 -0.707,0.156 -1.176,0.746 -1.176,1.371 0,0.394 0.273,0.863 0.941,0.863 0.547,0 1.332,-0.429 1.332,-1.449 0,-1.293 -1.449,-1.645 -2.312,-1.645 -1.45,0 -2.309,1.333 -2.625,1.879 -0.625,-1.644 -1.957,-1.879 -2.699,-1.879 -2.586,0 -4.036,3.211 -4.036,3.836 0,0.274 0.274,0.274 0.313,0.274 0.195,0 0.277,-0.078 0.316,-0.274 0.86,-2.66 2.504,-3.289 3.367,-3.289 0.469,0 1.332,0.235 1.332,1.684 0,0.785 -0.433,2.43 -1.332,5.953 -0.394,1.527 -1.293,2.586 -2.39,2.586 -0.156,0 -0.703,0 -1.254,-0.313 0.629,-0.16 1.176,-0.667 1.176,-1.371 0,-0.668 -0.547,-0.863 -0.899,-0.863 -0.785,0 -1.371,0.629 -1.371,1.449 0,1.137 1.211,1.645 2.309,1.645 1.683,0 2.586,-1.762 2.625,-1.879 0.312,0.898 1.215,1.879 2.703,1.879 2.582,0 3.992,-3.211 3.992,-3.836 0,-0.277 -0.195,-0.277 -0.273,-0.277 -0.235,0 -0.274,0.121 -0.352,0.277 -0.824,2.699 -2.508,3.289 -3.289,3.289 -0.98,0 -1.371,-0.785 -1.371,-1.645 0,-0.55 0.117,-1.097 0.391,-2.195 z"
         style="fill:#000000;fill-opacity:1;fill-rule:nonzero;stroke:none"
         id="path64" /><path
         d="m 143.02,254.77 c 0,-0.469 0,-0.469 -0.508,-0.469 -1.137,1.097 -2.703,1.097 -3.407,1.097 v 0.625 c 0.391,0 1.567,0 2.504,-0.468 v 8.89 c 0,0.586 0,0.821 -1.722,0.821 h -0.664 v 0.625 c 0.312,0 2.465,-0.079 3.093,-0.079 0.547,0 2.743,0.079 3.133,0.079 v -0.625 h -0.668 c -1.761,0 -1.761,-0.235 -1.761,-0.821 z"
         style="fill:#000000;fill-opacity:1;fill-rule:nonzero;stroke:none"
         id="path66" /><path
         d="m 153.48,262.109 c 0,-1.644 -0.628,-2.625 -1.605,-2.625 -0.824,0 -1.332,0.629 -1.332,1.332 0,0.664 0.508,1.332 1.332,1.332 0.273,0 0.625,-0.117 0.859,-0.312 0.078,-0.078 0.118,-0.078 0.118,-0.078 0.039,0 0.039,0 0.039,0.351 0,1.879 -0.86,3.368 -1.684,4.192 -0.273,0.273 -0.273,0.312 -0.273,0.39 0,0.196 0.117,0.274 0.234,0.274 0.273,0 2.312,-1.918 2.312,-4.856 z"
         style="fill:#000000;fill-opacity:1;fill-rule:nonzero;stroke:none"
         id="path68" /><path
         d="m 167.836,254.59 c 0.156,-0.625 0.742,-2.938 2.469,-2.938 0.117,0 0.742,0 1.25,0.313 -0.703,0.156 -1.172,0.746 -1.172,1.371 0,0.394 0.273,0.863 0.937,0.863 0.551,0 1.332,-0.429 1.332,-1.449 0,-1.293 -1.449,-1.645 -2.308,-1.645 -1.449,0 -2.313,1.333 -2.625,1.879 -0.625,-1.644 -1.957,-1.879 -2.703,-1.879 -2.582,0 -4.032,3.211 -4.032,3.836 0,0.274 0.274,0.274 0.313,0.274 0.195,0 0.273,-0.078 0.312,-0.274 0.864,-2.66 2.508,-3.289 3.368,-3.289 0.468,0 1.332,0.235 1.332,1.684 0,0.785 -0.43,2.43 -1.332,5.953 -0.391,1.527 -1.293,2.586 -2.387,2.586 -0.156,0 -0.707,0 -1.254,-0.313 0.625,-0.16 1.176,-0.667 1.176,-1.371 0,-0.668 -0.551,-0.863 -0.903,-0.863 -0.781,0 -1.371,0.629 -1.371,1.449 0,1.137 1.215,1.645 2.313,1.645 1.683,0 2.582,-1.762 2.621,-1.879 0.316,0.898 1.215,1.879 2.703,1.879 2.586,0 3.996,-3.211 3.996,-3.836 0,-0.277 -0.199,-0.277 -0.277,-0.277 -0.235,0 -0.274,0.121 -0.352,0.277 -0.82,2.699 -2.504,3.289 -3.289,3.289 -0.98,0 -1.371,-0.785 -1.371,-1.645 0,-0.55 0.117,-1.097 0.391,-2.195 z"
         style="fill:#000000;fill-opacity:1;fill-rule:nonzero;stroke:none"
         id="path70" /><path
         d="m 182.566,262.719 h -0.589 c -0.039,0.394 -0.235,1.41 -0.469,1.566 -0.117,0.121 -1.449,0.121 -1.723,0.121 h -3.211 c 1.84,-1.609 2.469,-2.117 3.485,-2.937 1.293,-1.02 2.507,-2.117 2.507,-3.762 0,-2.113 -1.839,-3.406 -4.074,-3.406 -2.152,0 -3.64,1.527 -3.64,3.133 0,0.863 0.742,0.98 0.937,0.98 0.395,0 0.902,-0.316 0.902,-0.941 0,-0.313 -0.117,-0.942 -1.019,-0.942 0.551,-1.211 1.726,-1.605 2.547,-1.605 1.761,0 2.664,1.371 2.664,2.781 0,1.527 -1.098,2.703 -1.645,3.328 l -4.191,4.192 c -0.195,0.156 -0.195,0.195 -0.195,0.664 h 7.207 z"
         style="fill:#000000;fill-opacity:1;fill-rule:nonzero;stroke:none"
         id="path72" /><path
         d="m 192.164,255.883 c 0,-1.918 -0.273,-4.934 -1.644,-7.793 -1.489,-3.055 -3.645,-4.699 -3.879,-4.699 -0.157,0 -0.274,0.117 -0.274,0.273 0,0.078 0,0.117 0.469,0.586 2.469,2.469 3.879,6.426 3.879,11.633 0,4.308 -0.903,8.691 -3.996,11.824 -0.352,0.316 -0.352,0.355 -0.352,0.434 0,0.156 0.117,0.273 0.274,0.273 0.234,0 2.507,-1.723 3.957,-4.894 1.293,-2.743 1.566,-5.524 1.566,-7.637 z"
         style="fill:#000000;fill-opacity:1;fill-rule:nonzero;stroke:none"
         id="path74" /><path
         d="m 428.258,175.266 c 0,-0.004 0.004,-0.028 0.019,-0.028 0,0 0.008,0 0.012,0.004 -0.008,0 -0.012,0.008 -0.012,0.012 0,0.004 0.004,0.008 0.008,0.008 0.008,0 0.012,-0.004 0.012,-0.012 0,-0.012 -0.012,-0.016 -0.02,-0.016 -0.011,0 -0.019,0.012 -0.023,0.016 -0.004,-0.012 -0.016,-0.016 -0.024,-0.016 -0.023,0 -0.035,0.028 -0.035,0.036 0,0 0.004,0 0.004,0 0,0 0.004,0 0.004,0 0.008,-0.024 0.02,-0.032 0.027,-0.032 0.004,0 0.012,0.004 0.012,0.016 0,0.008 -0.004,0.023 -0.012,0.055 -0.003,0.011 -0.011,0.019 -0.019,0.019 -0.004,0 -0.008,0 -0.012,0 0.004,-0.004 0.012,-0.008 0.012,-0.012 0,-0.007 -0.008,-0.007 -0.008,-0.007 -0.008,0 -0.012,0.003 -0.012,0.011 0,0.008 0.008,0.016 0.02,0.016 0.012,0 0.019,-0.016 0.023,-0.02 0,0.008 0.008,0.02 0.024,0.02 0.019,0 0.035,-0.031 0.035,-0.035 0,-0.004 -0.004,-0.004 -0.004,-0.004 -0.004,0 -0.004,0.004 -0.004,0.004 -0.008,0.023 -0.019,0.027 -0.027,0.027 -0.008,0 -0.012,-0.004 -0.012,-0.012 0,-0.007 0,-0.011 0.004,-0.019 z"
         style="fill:#000000;fill-opacity:1;fill-rule:nonzero;stroke:none"
         id="path76" /><path
         d="m 428.359,175.266 c 0,-0.004 0,-0.004 -0.004,-0.004 -0.011,0.011 -0.023,0.011 -0.031,0.011 v 0.004 c 0.004,0 0.016,0 0.024,-0.004 v 0.079 c 0,0.003 0,0.007 -0.016,0.007 h -0.008 v 0.004 c 0.004,0 0.024,0 0.028,0 0.007,0 0.023,0 0.027,0 v -0.004 h -0.004 c -0.016,0 -0.016,-0.004 -0.016,-0.007 z"
         style="fill:#000000;fill-opacity:1;fill-rule:nonzero;stroke:none"
         id="path78" /><path
         d="m 428.258,175.266 c 0,-0.004 0.004,-0.028 0.019,-0.028 0,0 0.008,0 0.012,0.004 -0.008,0 -0.012,0.008 -0.012,0.012 0,0.004 0.004,0.008 0.008,0.008 0.008,0 0.012,-0.004 0.012,-0.012 0,-0.012 -0.012,-0.016 -0.02,-0.016 -0.011,0 -0.019,0.012 -0.023,0.016 -0.004,-0.012 -0.016,-0.016 -0.024,-0.016 -0.023,0 -0.035,0.028 -0.035,0.036 0,0 0.004,0 0.004,0 0,0 0.004,0 0.004,0 0.008,-0.024 0.02,-0.032 0.027,-0.032 0.004,0 0.012,0.004 0.012,0.016 0,0.008 -0.004,0.023 -0.012,0.055 -0.003,0.011 -0.011,0.019 -0.019,0.019 -0.004,0 -0.008,0 -0.012,0 0.004,-0.004 0.012,-0.008 0.012,-0.012 0,-0.007 -0.008,-0.007 -0.008,-0.007 -0.008,0 -0.012,0.003 -0.012,0.011 0,0.008 0.008,0.016 0.02,0.016 0.012,0 0.019,-0.016 0.023,-0.02 0,0.008 0.008,0.02 0.024,0.02 0.019,0 0.035,-0.031 0.035,-0.035 0,-0.004 -0.004,-0.004 -0.004,-0.004 -0.004,0 -0.004,0.004 -0.004,0.004 -0.008,0.023 -0.019,0.027 -0.027,0.027 -0.008,0 -0.012,-0.004 -0.012,-0.012 0,-0.007 0,-0.011 0.004,-0.019 z"
         style="fill:#000000;fill-opacity:1;fill-rule:nonzero;stroke:none"
         id="path80" /><path
         d="m 428.359,175.266 c 0,-0.004 0,-0.004 -0.004,-0.004 -0.011,0.011 -0.023,0.011 -0.031,0.011 v 0.004 c 0.004,0 0.016,0 0.024,-0.004 v 0.079 c 0,0.003 0,0.007 -0.016,0.007 h -0.008 v 0.004 c 0.004,0 0.024,0 0.028,0 0.007,0 0.023,0 0.027,0 v -0.004 h -0.004 c -0.016,0 -0.016,-0.004 -0.016,-0.007 z"
         style="fill:#000000;fill-opacity:1;fill-rule:nonzero;stroke:none"
         id="path82" /><path
         d="m 463.004,0.031 c 0,-0.008 0.004,-0.027 0.019,-0.027 0,0 0.008,0 0.012,0.004 -0.008,0 -0.012,0.008 -0.012,0.012 0,0.003 0.004,0.007 0.008,0.007 0.008,0 0.012,-0.004 0.012,-0.011 C 463.043,0.004 463.031,0 463.023,0 463.012,0 463.004,0.012 463,0.016 462.996,0.004 462.984,0 462.977,0 c -0.024,0 -0.036,0.027 -0.036,0.035 0,0 0.004,0 0.004,0 0,0 0.004,0 0.004,0 0.008,-0.023 0.02,-0.031 0.028,-0.031 0.003,0 0.011,0.004 0.011,0.016 0,0.007 -0.004,0.019 -0.011,0.05 -0.004,0.016 -0.012,0.024 -0.02,0.024 -0.004,0 -0.008,0 -0.012,-0.004 0.004,0 0.012,-0.004 0.012,-0.012 0,-0.004 -0.008,-0.008 -0.008,-0.008 -0.008,0 -0.011,0.008 -0.011,0.016 0,0.008 0.007,0.012 0.019,0.012 0.012,0 0.02,-0.016 0.023,-0.016 0,0.008 0.008,0.016 0.024,0.016 0.019,0 0.035,-0.028 0.035,-0.032 0,-0.004 -0.004,-0.004 -0.004,-0.004 -0.004,0 -0.004,0 -0.004,0.004 -0.008,0.024 -0.019,0.028 -0.027,0.028 -0.008,0 -0.012,-0.008 -0.012,-0.016 0,-0.004 0,-0.008 0.004,-0.016 z"
         style="fill:#000000;fill-opacity:1;fill-rule:nonzero;stroke:none"
         id="path84" /><path
         d="m 463.105,0.031 c 0,-0.004 0,-0.004 -0.003,-0.004 -0.012,0.012 -0.024,0.012 -0.032,0.012 v 0.004 c 0.004,0 0.016,0 0.024,-0.004 v 0.078 c 0,0.004 0,0.008 -0.016,0.008 h -0.008 v 0.004 c 0.004,0 0.024,0 0.028,0 0.007,0 0.023,0 0.027,0 V 0.125 h -0.004 c -0.016,0 -0.016,-0.004 -0.016,-0.008 z"
         style="fill:#000000;fill-opacity:1;fill-rule:nonzero;stroke:none"
         id="path86" /><path
         d="m 467.887,2.781 c 0.008,-0.008 0.015,-0.019 0.023,-0.027 0.004,-0.008 0.016,-0.008 0.024,-0.008 V 2.738 c -0.004,0 -0.012,0 -0.016,0 -0.008,0 -0.02,0 -0.023,0 v 0.008 c 0.007,0 0.007,0 0.007,0.004 0,0.004 -0.004,0.008 -0.004,0.008 l -0.011,0.019 -0.02,-0.023 c 0,-0.004 0,-0.004 0,-0.004 0,-0.004 0.004,-0.004 0.008,-0.004 V 2.738 c -0.008,0 -0.02,0 -0.023,0 -0.004,0 -0.016,0 -0.024,0 v 0.008 c 0.016,0 0.016,0 0.027,0.012 l 0.024,0.027 -0.024,0.027 c -0.007,0.012 -0.023,0.012 -0.027,0.012 v 0.008 c 0.008,0 0.012,0 0.02,0 0.004,0 0.015,0 0.019,0 V 2.824 c -0.004,0 -0.008,-0.004 -0.008,-0.008 0,-0.004 0.008,-0.011 0.02,-0.027 l 0.019,0.023 c 0,0.004 0.004,0.004 0.004,0.008 0,0 -0.004,0.004 -0.007,0.004 v 0.008 c 0.007,0 0.019,0 0.023,0 0.004,0 0.016,0 0.02,0 V 2.824 c -0.012,0 -0.016,0 -0.02,-0.008 z"
         style="fill:#000000;fill-opacity:1;fill-rule:nonzero;stroke:none"
         id="path88" /><path
         d="m 467.887,2.781 c 0.008,-0.008 0.015,-0.019 0.023,-0.027 0.004,-0.008 0.016,-0.008 0.024,-0.008 V 2.738 c -0.004,0 -0.012,0 -0.016,0 -0.008,0 -0.02,0 -0.023,0 v 0.008 c 0.007,0 0.007,0 0.007,0.004 0,0.004 -0.004,0.008 -0.004,0.008 l -0.011,0.019 -0.02,-0.023 c 0,-0.004 0,-0.004 0,-0.004 0,-0.004 0.004,-0.004 0.008,-0.004 V 2.738 c -0.008,0 -0.02,0 -0.023,0 -0.004,0 -0.016,0 -0.024,0 v 0.008 c 0.016,0 0.016,0 0.027,0.012 l 0.024,0.027 -0.024,0.027 c -0.007,0.012 -0.023,0.012 -0.027,0.012 v 0.008 c 0.008,0 0.012,0 0.02,0 0.004,0 0.015,0 0.019,0 V 2.824 c -0.004,0 -0.008,-0.004 -0.008,-0.008 0,-0.004 0.008,-0.011 0.02,-0.027 l 0.019,0.023 c 0,0.004 0.004,0.004 0.004,0.008 0,0 -0.004,0.004 -0.007,0.004 v 0.008 c 0.007,0 0.019,0 0.023,0 0.004,0 0.016,0 0.02,0 V 2.824 c -0.012,0 -0.016,0 -0.02,-0.008 z"
         style="fill:#000000;fill-opacity:1;fill-rule:nonzero;stroke:none"
         id="path90" /><g
         id="g92"
         transform="matrix(1,0.219975,-0.516657,0.883999,0,0)"><path
           d="m 638.407,93.193 h 100.277 l 10e-4,35.643 H 638.408 Z"
           style="fill:none;stroke:#000000;stroke-width:2.59583;stroke-linecap:butt;stroke-linejoin:miter;stroke-miterlimit:4;stroke-dasharray:2.59583, 5.19165;stroke-dashoffset:0;stroke-opacity:0.037037"
           id="path94" /></g><g
         id="g96"><path
           d="m 476.777,151.875 c 330.321,0 330.321,0 330.321,0"
           style="fill:none;stroke:#000000;stroke-width:1.5;stroke-linecap:butt;stroke-linejoin:miter;stroke-miterlimit:4;stroke-dasharray:none;stroke-opacity:1"
           id="path98" /></g><g
         id="g100"
         transform="scale(-1)"><path
           d="m -801.098,-151.875 3,-3 -10.5,3 10.5,3 z"
           style="fill:#000000;fill-opacity:1;fill-rule:evenodd;stroke:#000000;stroke-width:0.8;stroke-linecap:butt;stroke-linejoin:miter;stroke-miterlimit:4;stroke-dasharray:none;stroke-opacity:1"
           id="path102" /></g><g
         id="g104"><path
           d="M 498.609,341.773 V 76.609"
           style="fill:none;stroke:#000000;stroke-width:1.5;stroke-linecap:butt;stroke-linejoin:miter;stroke-miterlimit:4;stroke-dasharray:none;stroke-opacity:1"
           id="path106" /></g><g
         id="g108"
         transform="rotate(90)"><path
           d="m 82.609,-498.609 3,-3 -10.5,3 10.5,3 z"
           style="fill:#000000;fill-opacity:1;fill-rule:evenodd;stroke:#000000;stroke-width:0.8;stroke-linecap:butt;stroke-linejoin:miter;stroke-miterlimit:4;stroke-dasharray:none;stroke-opacity:1"
           id="path110" /></g><g
         id="g112"><path
           d="m 582.492,251.832 c 0,3.641 -2.953,6.59 -6.594,6.59 -3.64,0 -6.589,-2.949 -6.589,-6.59 0,-3.641 2.949,-6.594 6.589,-6.594 3.641,0 6.594,2.953 6.594,6.594 z"
           style="fill:#000000;fill-opacity:1;fill-rule:nonzero;stroke:#000000;stroke-width:0.775159;stroke-linecap:butt;stroke-linejoin:miter;stroke-miterlimit:4;stroke-dasharray:none;stroke-opacity:1"
           id="path114" /></g><path
         d="m 804.312,173.797 c 0.383,1.433 1.653,2.371 3.141,2.371 1.211,0 2.035,-0.828 2.586,-1.93 0.606,-1.265 1.047,-3.414 1.047,-3.472 0,-0.383 -0.274,-0.383 -0.383,-0.383 -0.387,0 -0.387,0.164 -0.496,0.66 -0.496,1.984 -1.16,4.352 -2.645,4.352 -0.718,0 -1.101,-0.442 -1.101,-1.598 0,-0.77 0.437,-2.422 0.715,-3.692 l 0.992,-3.8 c 0.109,-0.496 0.441,-1.817 0.605,-2.367 0.165,-0.829 0.497,-2.149 0.497,-2.372 0,-0.605 -0.497,-0.933 -0.993,-0.933 -0.164,0 -1.101,0.055 -1.379,1.211 -0.66,2.59 -2.203,8.758 -2.64,10.578 -0.059,0.164 -1.434,2.973 -4.024,2.973 -1.816,0 -2.148,-1.598 -2.148,-2.864 0,-1.984 0.992,-4.738 1.875,-7.164 0.437,-1.101 0.605,-1.597 0.605,-2.258 0,-1.543 -1.101,-2.863 -2.867,-2.863 -3.359,0 -4.625,5.121 -4.625,5.399 0,0.386 0.328,0.386 0.383,0.386 0.387,0 0.387,-0.113 0.551,-0.664 0.883,-3.027 2.262,-4.351 3.582,-4.351 0.332,0 0.883,0.054 0.883,1.156 0,0.828 -0.387,1.875 -0.606,2.371 -1.324,3.523 -2.039,5.672 -2.039,7.383 0,3.359 2.422,4.242 4.297,4.242 2.313,0 3.582,-1.598 4.187,-2.371 z"
         style="fill:#000000;fill-opacity:1;fill-rule:nonzero;stroke:none"
         id="path116" /><path
         d="m 820.34,165.402 c 0,-0.66 0,-0.66 -0.715,-0.66 -1.598,1.543 -3.801,1.543 -4.793,1.543 v 0.879 c 0.551,0 2.203,0 3.527,-0.66 v 12.508 c 0,0.824 0,1.156 -2.425,1.156 h -0.938 v 0.879 c 0.442,0 3.473,-0.109 4.356,-0.109 0.769,0 3.855,0.109 4.406,0.109 v -0.879 h -0.938 c -2.48,0 -2.48,-0.332 -2.48,-1.156 z"
         style="fill:#000000;fill-opacity:1;fill-rule:nonzero;stroke:none"
         id="path118" /><path
         d="m 529.961,304.172 c 0,-0.078 0,-0.117 -0.434,-0.551 -3.093,-3.133 -3.914,-7.871 -3.914,-11.707 0,-4.348 0.942,-8.695 4.035,-11.789 0.313,-0.313 0.313,-0.352 0.313,-0.43 0,-0.195 -0.078,-0.273 -0.234,-0.273 -0.278,0 -2.508,1.723 -3.997,4.894 -1.253,2.743 -1.566,5.524 -1.566,7.598 0,1.957 0.274,4.973 1.645,7.832 1.527,3.055 3.64,4.699 3.918,4.699 0.156,0 0.234,-0.078 0.234,-0.273 z"
         style="fill:#000000;fill-opacity:1;fill-rule:nonzero;stroke:none"
         id="path120" /><path
         d="m 540.141,296.77 c 0.273,1.019 1.171,1.683 2.23,1.683 0.863,0 1.449,-0.586 1.84,-1.371 0.434,-0.898 0.746,-2.426 0.746,-2.465 0,-0.273 -0.195,-0.273 -0.273,-0.273 -0.278,0 -0.278,0.117 -0.356,0.468 -0.351,1.411 -0.82,3.094 -1.879,3.094 -0.508,0 -0.781,-0.312 -0.781,-1.136 0,-0.547 0.312,-1.723 0.508,-2.625 l 0.703,-2.7 c 0.078,-0.355 0.316,-1.293 0.433,-1.683 0.118,-0.59 0.352,-1.528 0.352,-1.684 0,-0.433 -0.352,-0.668 -0.707,-0.668 -0.117,0 -0.781,0.039 -0.977,0.863 -0.468,1.84 -1.566,6.227 -1.878,7.516 -0.04,0.121 -1.02,2.117 -2.86,2.117 -1.293,0 -1.527,-1.136 -1.527,-2.035 0,-1.41 0.703,-3.371 1.332,-5.094 0.312,-0.781 0.43,-1.132 0.43,-1.605 0,-1.094 -0.786,-2.035 -2.036,-2.035 -2.39,0 -3.289,3.64 -3.289,3.836 0,0.277 0.235,0.277 0.274,0.277 0.273,0 0.273,-0.078 0.39,-0.473 0.625,-2.152 1.606,-3.093 2.547,-3.093 0.235,0 0.625,0.039 0.625,0.824 0,0.586 -0.273,1.332 -0.429,1.683 -0.942,2.504 -1.45,4.032 -1.45,5.247 0,2.39 1.723,3.015 3.055,3.015 1.645,0 2.543,-1.137 2.977,-1.683 z"
         style="fill:#000000;fill-opacity:1;fill-rule:nonzero;stroke:none"
         id="path122" /><path
         d="m 551.539,290.801 c 0,-0.469 0,-0.469 -0.512,-0.469 -1.136,1.098 -2.703,1.098 -3.406,1.098 v 0.625 c 0.391,0 1.567,0 2.508,-0.469 v 8.891 c 0,0.585 0,0.82 -1.727,0.82 h -0.664 v 0.629 c 0.313,0 2.469,-0.078 3.094,-0.078 0.547,0 2.742,0.078 3.133,0.078 v -0.629 h -0.664 c -1.762,0 -1.762,-0.235 -1.762,-0.82 z"
         style="fill:#000000;fill-opacity:1;fill-rule:nonzero;stroke:none"
         id="path124" /><path
         d="m 561.992,298.141 c 0,-1.645 -0.625,-2.625 -1.605,-2.625 -0.821,0 -1.332,0.629 -1.332,1.332 0,0.668 0.511,1.332 1.332,1.332 0.277,0 0.629,-0.118 0.863,-0.313 0.078,-0.078 0.117,-0.078 0.117,-0.078 0.039,0 0.039,0 0.039,0.352 0,1.879 -0.863,3.367 -1.683,4.191 -0.274,0.273 -0.274,0.313 -0.274,0.391 0,0.195 0.117,0.273 0.235,0.273 0.273,0 2.308,-1.918 2.308,-4.855 z"
         style="fill:#000000;fill-opacity:1;fill-rule:nonzero;stroke:none"
         id="path126" /><path
         d="m 576.742,296.77 c 0.274,1.019 1.176,1.683 2.231,1.683 0.863,0 1.449,-0.586 1.843,-1.371 0.43,-0.898 0.743,-2.426 0.743,-2.465 0,-0.273 -0.196,-0.273 -0.274,-0.273 -0.273,0 -0.273,0.117 -0.351,0.468 -0.356,1.411 -0.825,3.094 -1.883,3.094 -0.508,0 -0.781,-0.312 -0.781,-1.136 0,-0.547 0.312,-1.723 0.507,-2.625 l 0.707,-2.7 c 0.078,-0.355 0.313,-1.293 0.43,-1.683 0.117,-0.59 0.352,-1.528 0.352,-1.684 0,-0.433 -0.352,-0.668 -0.704,-0.668 -0.117,0 -0.785,0.039 -0.98,0.863 -0.469,1.84 -1.566,6.227 -1.879,7.516 -0.039,0.121 -1.019,2.117 -2.859,2.117 -1.293,0 -1.528,-1.136 -1.528,-2.035 0,-1.41 0.707,-3.371 1.332,-5.094 0.313,-0.781 0.43,-1.132 0.43,-1.605 0,-1.094 -0.781,-2.035 -2.035,-2.035 -2.391,0 -3.289,3.64 -3.289,3.836 0,0.277 0.234,0.277 0.273,0.277 0.274,0 0.274,-0.078 0.391,-0.473 0.629,-2.152 1.605,-3.093 2.547,-3.093 0.234,0 0.625,0.039 0.625,0.824 0,0.586 -0.274,1.332 -0.43,1.683 -0.941,2.504 -1.449,4.032 -1.449,5.247 0,2.39 1.723,3.015 3.055,3.015 1.644,0 2.546,-1.137 2.976,-1.683 z"
         style="fill:#000000;fill-opacity:1;fill-rule:nonzero;stroke:none"
         id="path128" /><path
         d="m 591.105,298.754 h -0.589 c -0.039,0.391 -0.235,1.406 -0.469,1.566 -0.117,0.118 -1.449,0.118 -1.723,0.118 h -3.211 c 1.84,-1.606 2.469,-2.118 3.485,-2.938 1.293,-1.02 2.507,-2.117 2.507,-3.762 0,-2.113 -1.839,-3.406 -4.074,-3.406 -2.152,0 -3.64,1.527 -3.64,3.133 0,0.863 0.742,0.98 0.941,0.98 0.391,0 0.898,-0.312 0.898,-0.941 0,-0.313 -0.117,-0.938 -1.019,-0.938 0.551,-1.214 1.727,-1.605 2.547,-1.605 1.762,0 2.664,1.367 2.664,2.777 0,1.528 -1.098,2.703 -1.645,3.328 l -4.191,4.192 c -0.195,0.156 -0.195,0.195 -0.195,0.668 h 7.207 z"
         style="fill:#000000;fill-opacity:1;fill-rule:nonzero;stroke:none"
         id="path130" /><path
         d="m 600.699,291.914 c 0,-1.918 -0.273,-4.934 -1.644,-7.793 -1.489,-3.055 -3.641,-4.699 -3.875,-4.699 -0.157,0 -0.278,0.117 -0.278,0.273 0,0.078 0,0.117 0.473,0.59 2.465,2.465 3.875,6.422 3.875,11.629 0,4.309 -0.898,8.695 -3.992,11.828 -0.356,0.313 -0.356,0.352 -0.356,0.43 0,0.156 0.121,0.273 0.278,0.273 0.234,0 2.504,-1.722 3.953,-4.894 1.293,-2.742 1.566,-5.524 1.566,-7.637 z"
         style="fill:#000000;fill-opacity:1;fill-rule:nonzero;stroke:none"
         id="path132" /><path
         d="m 470.797,66.863 c 0.387,1.434 1.652,2.367 3.141,2.367 1.21,0 2.035,-0.824 2.589,-1.925 0.606,-1.27 1.043,-3.418 1.043,-3.473 0,-0.387 -0.273,-0.387 -0.382,-0.387 -0.387,0 -0.387,0.168 -0.497,0.664 -0.496,1.981 -1.156,4.352 -2.644,4.352 -0.715,0 -1.102,-0.441 -1.102,-1.598 0,-0.773 0.442,-2.425 0.715,-3.691 l 0.992,-3.801 c 0.11,-0.496 0.442,-1.82 0.606,-2.371 0.164,-0.824 0.496,-2.148 0.496,-2.367 0,-0.606 -0.496,-0.938 -0.992,-0.938 -0.164,0 -1.102,0.055 -1.375,1.215 -0.664,2.586 -2.203,8.758 -2.645,10.574 -0.054,0.168 -1.433,2.977 -4.023,2.977 -1.817,0 -2.149,-1.598 -2.149,-2.867 0,-1.981 0.992,-4.735 1.875,-7.16 0.442,-1.102 0.606,-1.598 0.606,-2.258 0,-1.543 -1.102,-2.864 -2.867,-2.864 -3.36,0 -4.625,5.122 -4.625,5.399 0,0.383 0.328,0.383 0.386,0.383 0.383,0 0.383,-0.11 0.551,-0.66 0.879,-3.032 2.258,-4.352 3.578,-4.352 0.332,0 0.883,0.055 0.883,1.156 0,0.828 -0.387,1.875 -0.605,2.371 -1.325,3.524 -2.04,5.672 -2.04,7.379 0,3.364 2.422,4.242 4.297,4.242 2.313,0 3.582,-1.597 4.188,-2.367 z"
         style="fill:#000000;fill-opacity:1;fill-rule:nonzero;stroke:none"
         id="path134" /><path
         d="m 491.012,69.652 h -0.824 c -0.055,0.551 -0.333,1.981 -0.661,2.203 -0.168,0.165 -2.039,0.165 -2.425,0.165 h -4.516 c 2.59,-2.258 3.469,-2.973 4.902,-4.133 1.817,-1.43 3.524,-2.973 3.524,-5.285 0,-2.977 -2.586,-4.793 -5.727,-4.793 -3.031,0 -5.125,2.148 -5.125,4.406 0,1.211 1.047,1.375 1.324,1.375 0.551,0 1.266,-0.438 1.266,-1.32 0,-0.442 -0.164,-1.325 -1.434,-1.325 0.774,-1.707 2.426,-2.257 3.582,-2.257 2.481,0 3.747,1.929 3.747,3.914 0,2.148 -1.543,3.8 -2.313,4.679 l -5.894,5.895 c -0.278,0.222 -0.278,0.277 -0.278,0.937 h 10.137 z"
         style="fill:#000000;fill-opacity:1;fill-rule:nonzero;stroke:none"
         id="path136" /><g
         id="g158"><path
           d="m 465.27,175.086 c -101.52,-53.57 -168.215,6.699 -168.485,7.769"
           style="fill:none;stroke:#000000;stroke-width:0.751181;stroke-linecap:butt;stroke-linejoin:miter;stroke-miterlimit:4;stroke-dasharray:none;stroke-opacity:1"
           id="path160" /></g><g
         id="g162"
         transform="matrix(-1,-0.527705,0.527705,-1,0,0)"><path
           d="m -429.093,58.044 -7.983,-2.936 7.986,-2.937 c -1.277,1.733 -1.272,4.105 -0.003,5.873 z"
           style="fill:#000000;fill-opacity:1;fill-rule:evenodd;stroke:#000000;stroke-width:0.456743;stroke-linecap:butt;stroke-linejoin:round;stroke-miterlimit:4;stroke-dasharray:none;stroke-opacity:1"
           id="path164" /></g><path
         d="m 200.82,336.066 h -0.882 c -0.165,0.879 -0.333,1.707 -0.661,2.532 -0.168,0.55 -0.277,0.882 -2.316,0.882 h -2.809 c 0.496,-1.984 1.543,-3.691 3.141,-6.003 1.652,-2.481 3.086,-4.903 3.086,-7.715 0,-4.848 -4.738,-8.813 -10.688,-8.813 -6.003,0 -10.687,4.02 -10.687,8.813 0,2.812 1.43,5.234 3.086,7.715 1.539,2.312 2.64,4.019 3.137,6.003 h -2.809 c -2.039,0 -2.148,-0.332 -2.313,-0.828 -0.332,-0.824 -0.496,-1.707 -0.66,-2.586 h -0.883 l 1.157,5.672 h 5.621 c 0.769,0 0.879,0 0.879,-0.715 0,-2.48 -1.102,-5.566 -1.871,-7.824 -0.774,-2.039 -1.766,-4.793 -1.766,-7.437 0,-5.617 3.914,-8.043 7.109,-8.043 3.36,0 7.106,2.535 7.106,8.043 0,2.644 -0.992,5.289 -1.985,8.156 -0.55,1.484 -1.652,4.68 -1.652,7.105 0,0.715 0.11,0.715 0.883,0.715 h 5.617 z"
         style="fill:#000000;fill-opacity:1;fill-rule:nonzero;stroke:none"
         id="path166" /><path
         d="m 235.285,324.164 c 0.606,0 1.266,0 1.266,-0.715 0,-0.715 -0.66,-0.715 -1.266,-0.715 h -9.422 c -6.004,0 -10.797,4.571 -10.797,10.192 0,5.672 4.793,10.246 10.797,10.246 h 9.422 c 0.606,0 1.266,0 1.266,-0.719 0,-0.715 -0.66,-0.715 -1.266,-0.715 h -9.367 c -5.453,0 -9.473,-4.074 -9.473,-8.812 0,-4.684 4.02,-8.762 9.473,-8.762 z"
         style="fill:#000000;fill-opacity:1;fill-rule:nonzero;stroke:none"
         id="path168" /><path
         d="m 262.391,320.145 c 0.218,-0.829 0.328,-1.157 0.992,-1.27 0.328,-0.055 1.429,-0.055 2.148,-0.055 2.477,0 6.391,0 6.391,3.473 0,1.211 -0.555,3.637 -1.93,5.012 -0.937,0.883 -2.754,2.039 -5.949,2.039 h -3.914 z m 5.066,9.64 c 3.582,-0.773 7.715,-3.25 7.715,-6.777 0,-3.031 -3.141,-5.289 -7.77,-5.289 h -9.972 c -0.715,0 -1.043,0 -1.043,0.719 0,0.382 0.328,0.382 0.988,0.382 0.055,0 0.719,0 1.324,0.055 0.66,0.113 0.938,0.113 0.938,0.609 0,0.11 0,0.219 -0.114,0.661 l -4.734,18.839 c -0.332,1.379 -0.387,1.653 -3.195,1.653 -0.61,0 -0.938,0 -0.938,0.715 0,0.386 0.442,0.386 0.496,0.386 0.993,0 3.469,-0.109 4.407,-0.109 0.992,0 3.527,0.109 4.515,0.109 0.278,0 0.664,0 0.664,-0.715 0,-0.386 -0.277,-0.386 -0.992,-0.386 -1.269,0 -2.258,0 -2.258,-0.606 0,-0.219 0.055,-0.386 0.11,-0.605 l 2.312,-9.313 h 4.188 c 3.195,0 3.8,1.985 3.8,3.196 0,0.496 -0.277,1.597 -0.496,2.425 -0.218,0.993 -0.55,2.258 -0.55,2.973 0,3.805 4.242,3.805 4.683,3.805 2.973,0 4.242,-3.528 4.242,-4.024 0,-0.441 -0.386,-0.441 -0.441,-0.441 -0.332,0 -0.387,0.223 -0.441,0.496 -0.883,2.59 -2.422,3.195 -3.196,3.195 -1.156,0 -1.433,-0.769 -1.433,-2.148 0,-1.102 0.222,-2.863 0.386,-4.02 0.055,-0.496 0.11,-1.16 0.11,-1.652 0,-2.703 -2.367,-3.805 -3.305,-4.133 z"
         style="fill:#000000;fill-opacity:1;fill-rule:nonzero;stroke:none"
         id="path170" /><path
         d="m 288.559,324.531 h -0.829 c -0.054,0.551 -0.328,1.985 -0.66,2.203 -0.164,0.164 -2.039,0.164 -2.422,0.164 h -4.519 c 2.59,-2.257 3.473,-2.972 4.902,-4.128 1.821,-1.434 3.528,-2.977 3.528,-5.29 0,-2.976 -2.59,-4.792 -5.731,-4.792 -3.027,0 -5.121,2.148 -5.121,4.406 0,1.211 1.047,1.379 1.32,1.379 0.551,0 1.27,-0.442 1.27,-1.325 0,-0.441 -0.168,-1.32 -1.434,-1.32 0.77,-1.711 2.422,-2.262 3.582,-2.262 2.477,0 3.746,1.93 3.746,3.914 0,2.149 -1.543,3.801 -2.316,4.684 l -5.895,5.895 c -0.273,0.218 -0.273,0.273 -0.273,0.933 h 10.137 z"
         style="fill:#000000;fill-opacity:1;fill-rule:nonzero;stroke:none"
         id="path172" /></g><g
       transform="matrix(2.6747358,0,0,2.6747373,304.39417,112.42242)"
       ns0:version="1.2.0"
       ns0:texconverter="pdflatex"
       ns0:pdfconverter="inkscape"
       ns0:text="mapping $\underline{\mathbf{g}} (\underline{\mathbf{x}})$"
       ns0:preamble="/home/kashefy/.config/inkscape/extensions/textext/preamble.tex"
       ns0:scale="3.1371067720943016"
       ns0:alignment="middle center"
       ns0:inkscapeversion="0.92.3"
       ns0:jacobian_sqrt="4.18279"
       id="g2576"><defs
         id="id-43be0e2e-bef1-4a7e-9001-2499fc0d408b"><g
           id="g1132"><symbol
             overflow="visible"
             id="symbol1086"><path
               style="stroke:none"
               d=""
               id="path1084" /></symbol><symbol
             overflow="visible"
             id="symbol1090"><path
               style="stroke:none"
               d="M 1.09375,-3.421875 V -0.75 c 0,0.4375 -0.109375,0.4375 -0.78125,0.4375 V 0 c 0.359375,-0.015625 0.859375,-0.03125 1.140625,-0.03125 0.25,0 0.765625,0.015625 1.109375,0.03125 v -0.3125 c -0.671875,0 -0.78125,0 -0.78125,-0.4375 V -2.59375 C 1.78125,-3.625 2.5,-4.1875 3.125,-4.1875 c 0.640625,0 0.75,0.53125 0.75,1.109375 V -0.75 c 0,0.4375 -0.109375,0.4375 -0.78125,0.4375 V 0 c 0.34375,-0.015625 0.859375,-0.03125 1.125,-0.03125 0.25,0 0.78125,0.015625 1.109375,0.03125 v -0.3125 c -0.65625,0 -0.765625,0 -0.765625,-0.4375 v -1.84375 c 0,-1.03125 0.703125,-1.59375 1.34375,-1.59375 0.625,0 0.734375,0.53125 0.734375,1.109375 V -0.75 c 0,0.4375 -0.109375,0.4375 -0.78125,0.4375 V 0 c 0.34375,-0.015625 0.859375,-0.03125 1.125,-0.03125 0.265625,0 0.78125,0.015625 1.125,0.03125 v -0.3125 c -0.515625,0 -0.765625,0 -0.78125,-0.296875 v -1.90625 c 0,-0.859375 0,-1.15625 -0.3125,-1.515625 -0.140625,-0.171875 -0.46875,-0.375 -1.046875,-0.375 -0.828125,0 -1.28125,0.59375 -1.4375,0.984375 C 4.390625,-4.296875 3.65625,-4.40625 3.203125,-4.40625 2.46875,-4.40625 2,-3.984375 1.71875,-3.359375 V -4.40625 L 0.3125,-4.296875 v 0.3125 c 0.703125,0 0.78125,0.0625 0.78125,0.5625 z m 0,0"
               id="path1088" /></symbol><symbol
             overflow="visible"
             id="symbol1094"><path
               style="stroke:none"
               d="m 3.3125,-0.75 c 0.046875,0.390625 0.3125,0.8125 0.78125,0.8125 0.21875,0 0.828125,-0.140625 0.828125,-0.953125 v -0.5625 h -0.25 v 0.5625 c 0,0.578125 -0.25,0.640625 -0.359375,0.640625 -0.328125,0 -0.375,-0.453125 -0.375,-0.5 v -1.984375 c 0,-0.421875 0,-0.8125 -0.359375,-1.1875 C 3.1875,-4.3125 2.6875,-4.46875 2.21875,-4.46875 c -0.828125,0 -1.515625,0.46875 -1.515625,1.125 0,0.296875 0.203125,0.46875 0.46875,0.46875 0.28125,0 0.453125,-0.203125 0.453125,-0.453125 0,-0.125 -0.046875,-0.453125 -0.515625,-0.453125 C 1.390625,-4.140625 1.875,-4.25 2.1875,-4.25 c 0.5,0 1.0625,0.390625 1.0625,1.28125 v 0.359375 c -0.515625,0.03125 -1.203125,0.0625 -1.828125,0.359375 -0.75,0.34375 -1,0.859375 -1,1.296875 0,0.8125 0.96875,1.0625 1.59375,1.0625 0.65625,0 1.109375,-0.40625 1.296875,-0.859375 z M 3.25,-2.390625 v 1 c 0,0.9375 -0.71875,1.28125 -1.171875,1.28125 -0.484375,0 -0.890625,-0.34375 -0.890625,-0.84375 0,-0.546875 0.421875,-1.375 2.0625,-1.4375 z m 0,0"
               id="path1092" /></symbol><symbol
             overflow="visible"
             id="symbol1098"><path
               style="stroke:none"
               d="m 1.71875,-3.75 v -0.65625 l -1.4375,0.109375 v 0.3125 c 0.703125,0 0.78125,0.0625 0.78125,0.5 v 4.65625 C 1.0625,1.625 0.953125,1.625 0.28125,1.625 V 1.9375 C 0.625,1.921875 1.140625,1.90625 1.390625,1.90625 c 0.28125,0 0.78125,0.015625 1.125,0.03125 V 1.625 C 1.859375,1.625 1.75,1.625 1.75,1.171875 V -0.59375 c 0.046875,0.171875 0.46875,0.703125 1.21875,0.703125 1.1875,0 2.21875,-0.984375 2.21875,-2.265625 0,-1.265625 -0.953125,-2.25 -2.078125,-2.25 -0.78125,0 -1.203125,0.4375 -1.390625,0.65625 z M 1.75,-1.140625 v -2.21875 C 2.03125,-3.875 2.515625,-4.15625 3.03125,-4.15625 c 0.734375,0 1.328125,0.875 1.328125,2 0,1.203125 -0.6875,2.046875 -1.421875,2.046875 -0.40625,0 -0.78125,-0.203125 -1.046875,-0.609375 C 1.75,-0.921875 1.75,-0.9375 1.75,-1.140625 Z m 0,0"
               id="path1096" /></symbol><symbol
             overflow="visible"
             id="symbol1102"><path
               style="stroke:none"
               d="M 1.765625,-4.40625 0.375,-4.296875 v 0.3125 c 0.640625,0 0.734375,0.0625 0.734375,0.546875 V -0.75 c 0,0.4375 -0.109375,0.4375 -0.78125,0.4375 V 0 C 0.640625,-0.015625 1.1875,-0.03125 1.421875,-0.03125 1.78125,-0.03125 2.125,-0.015625 2.46875,0 v -0.3125 c -0.671875,0 -0.703125,-0.046875 -0.703125,-0.4375 z m 0.03125,-1.734375 c 0,-0.3125 -0.234375,-0.53125 -0.515625,-0.53125 -0.3125,0 -0.53125,0.265625 -0.53125,0.53125 0,0.265625 0.21875,0.53125 0.53125,0.53125 0.28125,0 0.515625,-0.21875 0.515625,-0.53125 z m 0,0"
               id="path1100" /></symbol><symbol
             overflow="visible"
             id="symbol1106"><path
               style="stroke:none"
               d="M 1.09375,-3.421875 V -0.75 c 0,0.4375 -0.109375,0.4375 -0.78125,0.4375 V 0 c 0.359375,-0.015625 0.859375,-0.03125 1.140625,-0.03125 0.25,0 0.765625,0.015625 1.109375,0.03125 v -0.3125 c -0.671875,0 -0.78125,0 -0.78125,-0.4375 V -2.59375 C 1.78125,-3.625 2.5,-4.1875 3.125,-4.1875 c 0.640625,0 0.75,0.53125 0.75,1.109375 V -0.75 c 0,0.4375 -0.109375,0.4375 -0.78125,0.4375 V 0 c 0.34375,-0.015625 0.859375,-0.03125 1.125,-0.03125 0.25,0 0.78125,0.015625 1.109375,0.03125 v -0.3125 c -0.515625,0 -0.765625,0 -0.765625,-0.296875 v -1.90625 c 0,-0.859375 0,-1.15625 -0.3125,-1.515625 -0.140625,-0.171875 -0.46875,-0.375 -1.046875,-0.375 C 2.46875,-4.40625 2,-3.984375 1.71875,-3.359375 V -4.40625 L 0.3125,-4.296875 v 0.3125 c 0.703125,0 0.78125,0.0625 0.78125,0.5625 z m 0,0"
               id="path1104" /></symbol><symbol
             overflow="visible"
             id="symbol1110"><path
               style="stroke:none"
               d="m 2.21875,-1.71875 c -0.875,0 -0.875,-1 -0.875,-1.21875 0,-0.265625 0.015625,-0.59375 0.15625,-0.84375 0.078125,-0.109375 0.3125,-0.390625 0.71875,-0.390625 0.859375,0 0.859375,0.984375 0.859375,1.21875 0,0.265625 0,0.59375 -0.15625,0.84375 C 2.84375,-2 2.609375,-1.71875 2.21875,-1.71875 Z M 1.0625,-1.328125 c 0,-0.03125 0,-0.265625 0.15625,-0.46875 0.390625,0.28125 0.8125,0.3125 1,0.3125 0.921875,0 1.609375,-0.6875 1.609375,-1.453125 0,-0.375 -0.15625,-0.734375 -0.40625,-0.96875 C 3.78125,-4.25 4.140625,-4.296875 4.3125,-4.296875 c 0.03125,0 0.078125,0 0.109375,0.015625 C 4.3125,-4.25 4.25,-4.140625 4.25,-4.015625 c 0,0.171875 0.140625,0.28125 0.296875,0.28125 0.09375,0 0.28125,-0.0625 0.28125,-0.296875 0,-0.171875 -0.109375,-0.484375 -0.5,-0.484375 -0.203125,0 -0.640625,0.0625 -1.0625,0.46875 C 2.84375,-4.375 2.4375,-4.40625 2.21875,-4.40625 c -0.9375,0 -1.625,0.6875 -1.625,1.453125 0,0.4375 0.21875,0.8125 0.46875,1.03125 -0.125,0.140625 -0.3125,0.46875 -0.3125,0.828125 0,0.3125 0.140625,0.6875 0.453125,0.890625 -0.609375,0.15625 -0.921875,0.59375 -0.921875,0.984375 0,0.71875 0.984375,1.265625 2.203125,1.265625 1.171875,0 2.203125,-0.5 2.203125,-1.28125 0,-0.34375 -0.125,-0.859375 -0.640625,-1.140625 -0.53125,-0.265625 -1.109375,-0.265625 -1.71875,-0.265625 -0.25,0 -0.671875,0 -0.75,-0.015625 C 1.265625,-0.703125 1.0625,-1 1.0625,-1.328125 Z M 2.5,1.828125 c -1.015625,0 -1.703125,-0.515625 -1.703125,-1.046875 0,-0.453125 0.375,-0.828125 0.8125,-0.84375 h 0.59375 c 0.859375,0 1.96875,0 1.96875,0.84375 0,0.546875 -0.703125,1.046875 -1.671875,1.046875 z m 0,0"
               id="path1108" /></symbol><symbol
             overflow="visible"
             id="symbol1114"><path
               style="stroke:none"
               d="m 3.296875,2.390625 c 0,-0.03125 0,-0.046875 -0.171875,-0.21875 C 1.890625,0.921875 1.5625,-0.96875 1.5625,-2.5 c 0,-1.734375 0.375,-3.46875 1.609375,-4.703125 0.125,-0.125 0.125,-0.140625 0.125,-0.171875 0,-0.078125 -0.03125,-0.109375 -0.09375,-0.109375 -0.109375,0 -1,0.6875 -1.59375,1.953125 -0.5,1.09375 -0.625,2.203125 -0.625,3.03125 0,0.78125 0.109375,1.984375 0.65625,3.125 C 2.25,1.84375 3.09375,2.5 3.203125,2.5 c 0.0625,0 0.09375,-0.03125 0.09375,-0.109375 z m 0,0"
               id="path1112" /></symbol><symbol
             overflow="visible"
             id="symbol1118"><path
               style="stroke:none"
               d="m 2.875,-2.5 c 0,-0.765625 -0.109375,-1.96875 -0.65625,-3.109375 -0.59375,-1.21875 -1.453125,-1.875 -1.546875,-1.875 -0.0625,0 -0.109375,0.046875 -0.109375,0.109375 0,0.03125 0,0.046875 0.1875,0.234375 0.984375,0.984375 1.546875,2.5625 1.546875,4.640625 0,1.71875 -0.359375,3.46875 -1.59375,4.71875 C 0.5625,2.34375 0.5625,2.359375 0.5625,2.390625 0.5625,2.453125 0.609375,2.5 0.671875,2.5 0.765625,2.5 1.671875,1.8125 2.25,0.546875 2.765625,-0.546875 2.875,-1.65625 2.875,-2.5 Z m 0,0"
               id="path1116" /></symbol><symbol
             overflow="visible"
             id="symbol1122"><path
               style="stroke:none"
               d=""
               id="path1120" /></symbol><symbol
             overflow="visible"
             id="symbol1126"><path
               style="stroke:none"
               d="m 2.546875,-1.890625 c -0.875,0 -0.875,-0.671875 -0.875,-1.125 0,-0.4375 0,-1.109375 0.875,-1.109375 0.875,0 0.875,0.671875 0.875,1.109375 0,0.453125 0,1.125 -0.875,1.125 z m -1.21875,0.09375 c 0.453125,0.234375 0.96875,0.265625 1.21875,0.265625 1.4375,0 1.984375,-0.78125 1.984375,-1.484375 0,-0.46875 -0.25,-0.796875 -0.40625,-0.953125 0.296875,-0.15625 0.515625,-0.171875 0.625,-0.1875 -0.03125,0.046875 -0.046875,0.140625 -0.046875,0.203125 0,0.25 0.171875,0.421875 0.4375,0.421875 0.25,0 0.421875,-0.1875 0.421875,-0.421875 0,-0.234375 -0.171875,-0.578125 -0.625,-0.578125 -0.15625,0 -0.625,0.03125 -1.0625,0.375 -0.171875,-0.125 -0.59375,-0.328125 -1.328125,-0.328125 -1.4375,0 -1.984375,0.78125 -1.984375,1.46875 0,0.40625 0.1875,0.828125 0.515625,1.046875 -0.28125,0.359375 -0.34375,0.6875 -0.34375,0.890625 0,0.15625 0.046875,0.640625 0.4375,0.953125 C 1.046875,-0.09375 0.3125,0.125 0.3125,0.75 0.3125,1.25 0.875,2 2.859375,2 4.625,2 5.40625,1.421875 5.40625,0.71875 c 0,-0.296875 -0.078125,-0.921875 -0.75,-1.265625 -0.5625,-0.28125 -1.15625,-0.28125 -2.109375,-0.28125 -0.265625,0 -0.71875,0 -0.765625,-0.015625 -0.453125,-0.0625 -0.5625,-0.4375 -0.5625,-0.625 0,-0.09375 0.046875,-0.25 0.109375,-0.328125 z M 1.9375,0.125 h 1.171875 c 0.3125,0 1.4375,0 1.4375,0.625 0,0.359375 -0.390625,0.890625 -1.6875,0.890625 -1.1875,0 -1.6875,-0.453125 -1.6875,-0.90625 C 1.171875,0.125 1.796875,0.125 1.9375,0.125 Z m 0,0"
               id="path1124" /></symbol><symbol
             overflow="visible"
             id="symbol1130"><path
               style="stroke:none"
               d="M 3.453125,-2.453125 4.609375,-3.75 C 4.75,-3.890625 4.8125,-3.953125 5.625,-3.953125 v -0.46875 c -0.34375,0.015625 -0.859375,0.03125 -0.90625,0.03125 -0.25,0 -0.75,-0.03125 -1.03125,-0.03125 v 0.46875 c 0.140625,0 0.265625,0.015625 0.375,0.078125 -0.03125,0.0625 -0.03125,0.09375 -0.078125,0.125 L 3.15625,-2.8125 2.171875,-3.953125 h 0.40625 v -0.46875 c -0.265625,0 -0.890625,0.03125 -1.21875,0.03125 -0.3125,0 -0.765625,-0.03125 -1.09375,-0.03125 v 0.46875 h 0.71875 L 2.53125,-2.125 1.21875,-0.65625 c -0.15625,0.1875 -0.515625,0.1875 -1,0.1875 V 0 c 0.34375,-0.015625 0.875,-0.03125 0.921875,-0.03125 0.25,0 0.828125,0.015625 1.015625,0.03125 v -0.46875 c -0.171875,0 -0.359375,-0.046875 -0.359375,-0.109375 0,-0.015625 0,-0.015625 0.0625,-0.09375 l 0.96875,-1.09375 1.09375,1.296875 H 3.53125 V 0 c 0.265625,-0.015625 0.875,-0.03125 1.203125,-0.03125 0.3125,0 0.765625,0.015625 1.09375,0.03125 V -0.46875 H 5.125 Z m 0,0"
               id="path1128" /></symbol></g></defs><g
         id="id-153f915e-e551-4f7d-82a2-7b12aa0d63aa"
         transform="translate(-149.025,-127.281)"><g
           style="fill:#000000;fill-opacity:1"
           id="id-fcb0d134-e445-4c70-bceb-535e39aa0e18"><g
             transform="translate(148.712,134.765)"
             id="g4373"><path
               style="stroke:none"
               d="M 1.09375,-3.421875 V -0.75 c 0,0.4375 -0.109375,0.4375 -0.78125,0.4375 V 0 c 0.359375,-0.015625 0.859375,-0.03125 1.140625,-0.03125 0.25,0 0.765625,0.015625 1.109375,0.03125 v -0.3125 c -0.671875,0 -0.78125,0 -0.78125,-0.4375 V -2.59375 C 1.78125,-3.625 2.5,-4.1875 3.125,-4.1875 c 0.640625,0 0.75,0.53125 0.75,1.109375 V -0.75 c 0,0.4375 -0.109375,0.4375 -0.78125,0.4375 V 0 c 0.34375,-0.015625 0.859375,-0.03125 1.125,-0.03125 0.25,0 0.78125,0.015625 1.109375,0.03125 v -0.3125 c -0.65625,0 -0.765625,0 -0.765625,-0.4375 v -1.84375 c 0,-1.03125 0.703125,-1.59375 1.34375,-1.59375 0.625,0 0.734375,0.53125 0.734375,1.109375 V -0.75 c 0,0.4375 -0.109375,0.4375 -0.78125,0.4375 V 0 c 0.34375,-0.015625 0.859375,-0.03125 1.125,-0.03125 0.265625,0 0.78125,0.015625 1.125,0.03125 v -0.3125 c -0.515625,0 -0.765625,0 -0.78125,-0.296875 v -1.90625 c 0,-0.859375 0,-1.15625 -0.3125,-1.515625 -0.140625,-0.171875 -0.46875,-0.375 -1.046875,-0.375 -0.828125,0 -1.28125,0.59375 -1.4375,0.984375 C 4.390625,-4.296875 3.65625,-4.40625 3.203125,-4.40625 2.46875,-4.40625 2,-3.984375 1.71875,-3.359375 V -4.40625 L 0.3125,-4.296875 v 0.3125 c 0.703125,0 0.78125,0.0625 0.78125,0.5625 z m 0,0"
               id="id-352de5e3-3aab-4de7-8258-578fa1f45bd6" /></g><g
             transform="translate(157.014,134.765)"
             id="g4376"><path
               style="stroke:none"
               d="m 3.3125,-0.75 c 0.046875,0.390625 0.3125,0.8125 0.78125,0.8125 0.21875,0 0.828125,-0.140625 0.828125,-0.953125 v -0.5625 h -0.25 v 0.5625 c 0,0.578125 -0.25,0.640625 -0.359375,0.640625 -0.328125,0 -0.375,-0.453125 -0.375,-0.5 v -1.984375 c 0,-0.421875 0,-0.8125 -0.359375,-1.1875 C 3.1875,-4.3125 2.6875,-4.46875 2.21875,-4.46875 c -0.828125,0 -1.515625,0.46875 -1.515625,1.125 0,0.296875 0.203125,0.46875 0.46875,0.46875 0.28125,0 0.453125,-0.203125 0.453125,-0.453125 0,-0.125 -0.046875,-0.453125 -0.515625,-0.453125 C 1.390625,-4.140625 1.875,-4.25 2.1875,-4.25 c 0.5,0 1.0625,0.390625 1.0625,1.28125 v 0.359375 c -0.515625,0.03125 -1.203125,0.0625 -1.828125,0.359375 -0.75,0.34375 -1,0.859375 -1,1.296875 0,0.8125 0.96875,1.0625 1.59375,1.0625 0.65625,0 1.109375,-0.40625 1.296875,-0.859375 z M 3.25,-2.390625 v 1 c 0,0.9375 -0.71875,1.28125 -1.171875,1.28125 -0.484375,0 -0.890625,-0.34375 -0.890625,-0.84375 0,-0.546875 0.421875,-1.375 2.0625,-1.4375 z m 0,0"
               id="id-c7fe2ee7-7984-4af9-ba43-9368856ab35b" /></g><g
             transform="translate(161.995,134.765)"
             id="g4379"><path
               style="stroke:none"
               d="m 1.71875,-3.75 v -0.65625 l -1.4375,0.109375 v 0.3125 c 0.703125,0 0.78125,0.0625 0.78125,0.5 v 4.65625 C 1.0625,1.625 0.953125,1.625 0.28125,1.625 V 1.9375 C 0.625,1.921875 1.140625,1.90625 1.390625,1.90625 c 0.28125,0 0.78125,0.015625 1.125,0.03125 V 1.625 C 1.859375,1.625 1.75,1.625 1.75,1.171875 V -0.59375 c 0.046875,0.171875 0.46875,0.703125 1.21875,0.703125 1.1875,0 2.21875,-0.984375 2.21875,-2.265625 0,-1.265625 -0.953125,-2.25 -2.078125,-2.25 -0.78125,0 -1.203125,0.4375 -1.390625,0.65625 z M 1.75,-1.140625 v -2.21875 C 2.03125,-3.875 2.515625,-4.15625 3.03125,-4.15625 c 0.734375,0 1.328125,0.875 1.328125,2 0,1.203125 -0.6875,2.046875 -1.421875,2.046875 -0.40625,0 -0.78125,-0.203125 -1.046875,-0.609375 C 1.75,-0.921875 1.75,-0.9375 1.75,-1.140625 Z m 0,0"
               id="id-ca9807c6-d473-42d6-8eeb-6fac8d8f19a4" /></g><g
             transform="translate(167.53,134.765)"
             id="g4382"><path
               style="stroke:none"
               d="m 1.71875,-3.75 v -0.65625 l -1.4375,0.109375 v 0.3125 c 0.703125,0 0.78125,0.0625 0.78125,0.5 v 4.65625 C 1.0625,1.625 0.953125,1.625 0.28125,1.625 V 1.9375 C 0.625,1.921875 1.140625,1.90625 1.390625,1.90625 c 0.28125,0 0.78125,0.015625 1.125,0.03125 V 1.625 C 1.859375,1.625 1.75,1.625 1.75,1.171875 V -0.59375 c 0.046875,0.171875 0.46875,0.703125 1.21875,0.703125 1.1875,0 2.21875,-0.984375 2.21875,-2.265625 0,-1.265625 -0.953125,-2.25 -2.078125,-2.25 -0.78125,0 -1.203125,0.4375 -1.390625,0.65625 z M 1.75,-1.140625 v -2.21875 C 2.03125,-3.875 2.515625,-4.15625 3.03125,-4.15625 c 0.734375,0 1.328125,0.875 1.328125,2 0,1.203125 -0.6875,2.046875 -1.421875,2.046875 -0.40625,0 -0.78125,-0.203125 -1.046875,-0.609375 C 1.75,-0.921875 1.75,-0.9375 1.75,-1.140625 Z m 0,0"
               id="id-e3093073-539a-42b2-8b4e-e71cd3ef77c9" /></g><g
             transform="translate(173.066,134.765)"
             id="g4385"><path
               style="stroke:none"
               d="M 1.765625,-4.40625 0.375,-4.296875 v 0.3125 c 0.640625,0 0.734375,0.0625 0.734375,0.546875 V -0.75 c 0,0.4375 -0.109375,0.4375 -0.78125,0.4375 V 0 C 0.640625,-0.015625 1.1875,-0.03125 1.421875,-0.03125 1.78125,-0.03125 2.125,-0.015625 2.46875,0 v -0.3125 c -0.671875,0 -0.703125,-0.046875 -0.703125,-0.4375 z m 0.03125,-1.734375 c 0,-0.3125 -0.234375,-0.53125 -0.515625,-0.53125 -0.3125,0 -0.53125,0.265625 -0.53125,0.53125 0,0.265625 0.21875,0.53125 0.53125,0.53125 0.28125,0 0.515625,-0.21875 0.515625,-0.53125 z m 0,0"
               id="id-c597f55d-a7ae-444d-8e0f-fe6fe5f04c7b" /></g><g
             transform="translate(175.833,134.765)"
             id="g4388"><path
               style="stroke:none"
               d="M 1.09375,-3.421875 V -0.75 c 0,0.4375 -0.109375,0.4375 -0.78125,0.4375 V 0 c 0.359375,-0.015625 0.859375,-0.03125 1.140625,-0.03125 0.25,0 0.765625,0.015625 1.109375,0.03125 v -0.3125 c -0.671875,0 -0.78125,0 -0.78125,-0.4375 V -2.59375 C 1.78125,-3.625 2.5,-4.1875 3.125,-4.1875 c 0.640625,0 0.75,0.53125 0.75,1.109375 V -0.75 c 0,0.4375 -0.109375,0.4375 -0.78125,0.4375 V 0 c 0.34375,-0.015625 0.859375,-0.03125 1.125,-0.03125 0.25,0 0.78125,0.015625 1.109375,0.03125 v -0.3125 c -0.515625,0 -0.765625,0 -0.765625,-0.296875 v -1.90625 c 0,-0.859375 0,-1.15625 -0.3125,-1.515625 -0.140625,-0.171875 -0.46875,-0.375 -1.046875,-0.375 C 2.46875,-4.40625 2,-3.984375 1.71875,-3.359375 V -4.40625 L 0.3125,-4.296875 v 0.3125 c 0.703125,0 0.78125,0.0625 0.78125,0.5625 z m 0,0"
               id="id-f229ba17-0b0c-4361-8d08-b5c9fd4a2f16" /></g><g
             transform="translate(181.368,134.765)"
             id="g4391"><path
               style="stroke:none"
               d="m 2.21875,-1.71875 c -0.875,0 -0.875,-1 -0.875,-1.21875 0,-0.265625 0.015625,-0.59375 0.15625,-0.84375 0.078125,-0.109375 0.3125,-0.390625 0.71875,-0.390625 0.859375,0 0.859375,0.984375 0.859375,1.21875 0,0.265625 0,0.59375 -0.15625,0.84375 C 2.84375,-2 2.609375,-1.71875 2.21875,-1.71875 Z M 1.0625,-1.328125 c 0,-0.03125 0,-0.265625 0.15625,-0.46875 0.390625,0.28125 0.8125,0.3125 1,0.3125 0.921875,0 1.609375,-0.6875 1.609375,-1.453125 0,-0.375 -0.15625,-0.734375 -0.40625,-0.96875 C 3.78125,-4.25 4.140625,-4.296875 4.3125,-4.296875 c 0.03125,0 0.078125,0 0.109375,0.015625 C 4.3125,-4.25 4.25,-4.140625 4.25,-4.015625 c 0,0.171875 0.140625,0.28125 0.296875,0.28125 0.09375,0 0.28125,-0.0625 0.28125,-0.296875 0,-0.171875 -0.109375,-0.484375 -0.5,-0.484375 -0.203125,0 -0.640625,0.0625 -1.0625,0.46875 C 2.84375,-4.375 2.4375,-4.40625 2.21875,-4.40625 c -0.9375,0 -1.625,0.6875 -1.625,1.453125 0,0.4375 0.21875,0.8125 0.46875,1.03125 -0.125,0.140625 -0.3125,0.46875 -0.3125,0.828125 0,0.3125 0.140625,0.6875 0.453125,0.890625 -0.609375,0.15625 -0.921875,0.59375 -0.921875,0.984375 0,0.71875 0.984375,1.265625 2.203125,1.265625 1.171875,0 2.203125,-0.5 2.203125,-1.28125 0,-0.34375 -0.125,-0.859375 -0.640625,-1.140625 -0.53125,-0.265625 -1.109375,-0.265625 -1.71875,-0.265625 -0.25,0 -0.671875,0 -0.75,-0.015625 C 1.265625,-0.703125 1.0625,-1 1.0625,-1.328125 Z M 2.5,1.828125 c -1.015625,0 -1.703125,-0.515625 -1.703125,-1.046875 0,-0.453125 0.375,-0.828125 0.8125,-0.84375 h 0.59375 c 0.859375,0 1.96875,0 1.96875,0.84375 0,0.546875 -0.703125,1.046875 -1.671875,1.046875 z m 0,0"
               id="id-9c4ef360-c621-43d0-b328-528c5ba4cae3" /></g></g><g
           style="fill:#000000;fill-opacity:1"
           id="id-106a59a4-29c5-4645-b592-b27b3f93c73d"><g
             transform="translate(189.67,134.765)"
             id="g4395"><path
               style="stroke:none"
               d="m 2.546875,-1.890625 c -0.875,0 -0.875,-0.671875 -0.875,-1.125 0,-0.4375 0,-1.109375 0.875,-1.109375 0.875,0 0.875,0.671875 0.875,1.109375 0,0.453125 0,1.125 -0.875,1.125 z m -1.21875,0.09375 c 0.453125,0.234375 0.96875,0.265625 1.21875,0.265625 1.4375,0 1.984375,-0.78125 1.984375,-1.484375 0,-0.46875 -0.25,-0.796875 -0.40625,-0.953125 0.296875,-0.15625 0.515625,-0.171875 0.625,-0.1875 -0.03125,0.046875 -0.046875,0.140625 -0.046875,0.203125 0,0.25 0.171875,0.421875 0.4375,0.421875 0.25,0 0.421875,-0.1875 0.421875,-0.421875 0,-0.234375 -0.171875,-0.578125 -0.625,-0.578125 -0.15625,0 -0.625,0.03125 -1.0625,0.375 -0.171875,-0.125 -0.59375,-0.328125 -1.328125,-0.328125 -1.4375,0 -1.984375,0.78125 -1.984375,1.46875 0,0.40625 0.1875,0.828125 0.515625,1.046875 -0.28125,0.359375 -0.34375,0.6875 -0.34375,0.890625 0,0.15625 0.046875,0.640625 0.4375,0.953125 C 1.046875,-0.09375 0.3125,0.125 0.3125,0.75 0.3125,1.25 0.875,2 2.859375,2 4.625,2 5.40625,1.421875 5.40625,0.71875 c 0,-0.296875 -0.078125,-0.921875 -0.75,-1.265625 -0.5625,-0.28125 -1.15625,-0.28125 -2.109375,-0.28125 -0.265625,0 -0.71875,0 -0.765625,-0.015625 -0.453125,-0.0625 -0.5625,-0.4375 -0.5625,-0.625 0,-0.09375 0.046875,-0.25 0.109375,-0.328125 z M 1.9375,0.125 h 1.171875 c 0.3125,0 1.4375,0 1.4375,0.625 0,0.359375 -0.390625,0.890625 -1.6875,0.890625 -1.1875,0 -1.6875,-0.453125 -1.6875,-0.90625 C 1.171875,0.125 1.796875,0.125 1.9375,0.125 Z m 0,0"
               id="id-a74508df-1d44-442a-9570-f19dadebe932" /></g></g><path
           style="fill:none;stroke:#000000;stroke-width:0.398;stroke-linecap:butt;stroke-linejoin:miter;stroke-miterlimit:10;stroke-opacity:1"
           d="M 0.001875,-6.5625e-4 H 5.888594"
           transform="matrix(1,0,0,-1,189.67,138.097)"
           id="id-23a5a653-a5e1-4eec-8e4b-72cc3ed69f9c" /><g
           style="fill:#000000;fill-opacity:1"
           id="id-18f16b6d-1f1c-44cc-8aca-f32e830b55d4"><g
             transform="translate(195.558,134.765)"
             id="g4400"><path
               style="stroke:none"
               d="m 3.296875,2.390625 c 0,-0.03125 0,-0.046875 -0.171875,-0.21875 C 1.890625,0.921875 1.5625,-0.96875 1.5625,-2.5 c 0,-1.734375 0.375,-3.46875 1.609375,-4.703125 0.125,-0.125 0.125,-0.140625 0.125,-0.171875 0,-0.078125 -0.03125,-0.109375 -0.09375,-0.109375 -0.109375,0 -1,0.6875 -1.59375,1.953125 -0.5,1.09375 -0.625,2.203125 -0.625,3.03125 0,0.78125 0.109375,1.984375 0.65625,3.125 C 2.25,1.84375 3.09375,2.5 3.203125,2.5 c 0.0625,0 0.09375,-0.03125 0.09375,-0.109375 z m 0,0"
               id="id-83fd232c-80ba-4be0-baee-de096344d064" /></g></g><g
           style="fill:#000000;fill-opacity:1"
           id="id-3b465dff-27b1-42e1-812e-f0eda671dfdd"><g
             transform="translate(199.432,134.765)"
             id="g4404"><path
               style="stroke:none"
               d="M 3.453125,-2.453125 4.609375,-3.75 C 4.75,-3.890625 4.8125,-3.953125 5.625,-3.953125 v -0.46875 c -0.34375,0.015625 -0.859375,0.03125 -0.90625,0.03125 -0.25,0 -0.75,-0.03125 -1.03125,-0.03125 v 0.46875 c 0.140625,0 0.265625,0.015625 0.375,0.078125 -0.03125,0.0625 -0.03125,0.09375 -0.078125,0.125 L 3.15625,-2.8125 2.171875,-3.953125 h 0.40625 v -0.46875 c -0.265625,0 -0.890625,0.03125 -1.21875,0.03125 -0.3125,0 -0.765625,-0.03125 -1.09375,-0.03125 v 0.46875 h 0.71875 L 2.53125,-2.125 1.21875,-0.65625 c -0.15625,0.1875 -0.515625,0.1875 -1,0.1875 V 0 c 0.34375,-0.015625 0.875,-0.03125 0.921875,-0.03125 0.25,0 0.828125,0.015625 1.015625,0.03125 v -0.46875 c -0.171875,0 -0.359375,-0.046875 -0.359375,-0.109375 0,-0.015625 0,-0.015625 0.0625,-0.09375 l 0.96875,-1.09375 1.09375,1.296875 H 3.53125 V 0 c 0.265625,-0.015625 0.875,-0.03125 1.203125,-0.03125 0.3125,0 0.765625,0.015625 1.09375,0.03125 V -0.46875 H 5.125 Z m 0,0"
               id="id-ff8066d8-14e2-4d37-905f-a11a3a524d9e" /></g></g><path
           style="fill:none;stroke:#000000;stroke-width:0.398;stroke-linecap:butt;stroke-linejoin:miter;stroke-miterlimit:10;stroke-opacity:1"
           d="M 0.00159375,-0.00115625 H 6.048469"
           transform="matrix(1,0,0,-1,199.432,136.159)"
           id="id-d1b074fb-d538-43ff-9dc2-eddb0ff60b32" /><g
           style="fill:#000000;fill-opacity:1"
           id="id-b1ffdd50-0a4a-4548-bcf5-3112225cbbe5"><g
             transform="translate(205.479,134.765)"
             id="g4409"><path
               style="stroke:none"
               d="m 2.875,-2.5 c 0,-0.765625 -0.109375,-1.96875 -0.65625,-3.109375 -0.59375,-1.21875 -1.453125,-1.875 -1.546875,-1.875 -0.0625,0 -0.109375,0.046875 -0.109375,0.109375 0,0.03125 0,0.046875 0.1875,0.234375 0.984375,0.984375 1.546875,2.5625 1.546875,4.640625 0,1.71875 -0.359375,3.46875 -1.59375,4.71875 C 0.5625,2.34375 0.5625,2.359375 0.5625,2.390625 0.5625,2.453125 0.609375,2.5 0.671875,2.5 0.765625,2.5 1.671875,1.8125 2.25,0.546875 2.765625,-0.546875 2.875,-1.65625 2.875,-2.5 Z m 0,0"
               id="id-10c7d8a3-cce3-426a-9bf0-8a61aae55206" /></g></g></g></g></g></svg>
