<?xml version="1.0"?>
<svg xmlns:rdf="http://www.w3.org/1999/02/22-rdf-syntax-ns#" xmlns="http://www.w3.org/2000/svg" xmlns:cc="http://creativecommons.org/ns#" xmlns:xlink="http://www.w3.org/1999/xlink" xmlns:dc="http://purl.org/dc/elements/1.1/" xmlns:svg="http://www.w3.org/2000/svg" id="svg2" viewBox="0 0 744.09 1052.4" version="1.1">
  <defs id="defs4">
    <filter id="filter6236">
      <feGaussianBlur id="feGaussianBlur6238" stdDeviation="4.4185551"/>
    </filter>
    <linearGradient id="linearGradient6342" y2="437.36" gradientUnits="userSpaceOnUse" x2="-56.071" y1="437.36" x1="-150">
      <stop id="stop5086" stop-color="#191a1a" offset="0"/>
      <stop id="stop5094" stop-color="#e4e4e4" offset=".30026"/>
      <stop id="stop5092" stop-color="#e3e3e3" offset=".66837"/>
      <stop id="stop5088" stop-color="#191a1a" offset="1"/>
    </linearGradient>
    <radialGradient id="radialGradient6344" gradientUnits="userSpaceOnUse" cy="437.36" cx="-103.04" gradientTransform="matrix(1 0 0 .13688 0 377.5)" r="46.964">
      <stop id="stop3630" stop-color="#ccc" offset="0"/>
      <stop id="stop3632" stop-color="#333" offset="1"/>
    </radialGradient>
    <linearGradient id="linearGradient6346" y2="481.61" gradientUnits="userSpaceOnUse" x2="-97.174" gradientTransform="translate(-4.1715 -79.786)" y1="481.61" x1="-135.75">
      <stop id="stop3614" stop-color="#333" offset="0"/>
      <stop id="stop6260" stop-color="#949494" offset=".28042"/>
      <stop id="stop3622" stop-color="#c5c5c5" offset=".48876"/>
      <stop id="stop3620" stop-color="#949494" offset=".66355"/>
      <stop id="stop3616" stop-color="#333" offset="1"/>
    </linearGradient>
    <linearGradient id="linearGradient6348" y2="270.6" gradientUnits="userSpaceOnUse" x2="-44.556" y1="271.61" x1="-272.49">
      <stop id="stop6292" stop-color="#fff" stop-opacity="0" offset="0"/>
      <stop id="stop6294" stop-color="#fff" stop-opacity=".26316" offset="1"/>
    </linearGradient>
  </defs>
  <g id="layer1">
    <text id="text5104" font-size="40px" xml:space="preserve" y="456.87726" x="-148.9975" font-family="Bitstream Vera Sans" fill="#000000">
      <tspan id="tspan5106" y="456.87726" x="-148.9975"/>
    </text>
    <g id="g6302" transform="matrix(1.6689 0 0 1.6689 573.37 48.578)">
      <g id="g5096" transform="translate(.43761 -47.982)">
        <path id="path3636" d="m-56.071 437.36c0 3.5504-21.027 6.4286-46.964 6.4286-25.938 0-46.964-2.8782-46.964-6.4286s21.027-6.4286 46.964-6.4286c25.938 0 46.964 2.8782 46.964 6.4286z" fill="url(#linearGradient6342)" transform="matrix(1.0699 0 0 1.1292 -10.831 -30.329)"/>
        <path id="path3610" d="m-56.071 437.36c0 3.5504-21.027 6.4286-46.964 6.4286-25.938 0-46.964-2.8782-46.964-6.4286s21.027-6.4286 46.964-6.4286c25.938 0 46.964 2.8782 46.964 6.4286z" fill="url(#radialGradient6344)" transform="matrix(1.0591 0 0 1.1179 -11.939 -26.726)"/>
      </g>
      <path id="rect3607" d="m-135.63 389.75h30v22.143c-10.357 2.8571-22.143 2.5-30 0v-22.143z" fill="url(#linearGradient6346)"/>
      <g id="g3624">
        <path id="rect2832" d="m-319.97 149.54h398.67v241.44c-60.714 2.8572-317.24 4.2857-398.67 0v-241.44z" fill="#1a1a1a"/>
        <rect id="rect2830" height="205.84" width="368.87" y="163.93" x="-305.07" fill="#4d4d4d"/>
      </g>
      <g id="g6350" fill="#fff" transform="translate(.59311)">
        <g id="g6196" filter="url(#filter6236)" transform="matrix(.059497 0 0 .059497 -128.46 342.92)">
          <path id="path6198" d="m-36.493 632.09v18.932c-1.5002 0.26091-2.87 0.39136-4.1092 0.39136-7.338 0-13.453-2.4134-18.345-7.2401s-7.3379-10.876-7.3379-18.149c-0.000003-7.077 2.4704-13.078 7.4113-18.002 4.9409-4.9245 10.95-7.3868 18.027-7.3868 7.8923 0.00005 14.113 2.3074 18.663 6.9221 4.5495 4.6148 6.8242 10.917 6.8243 18.907v23.922h-18.296v-22.601c-0.000036-2.5764-0.62784-4.631-1.8834-6.1639-1.2556-1.5328-2.9434-2.2992-5.0632-2.2992-1.9242 0.00003-3.5875 0.70121-4.9898 2.1035-1.4024 1.4024-2.1036 3.0656-2.1035 4.9898-0.000021 2.022 0.63593 3.6853 1.9079 4.9898 1.2719 1.3045 2.8862 1.9568 4.843 1.9568 1.598 0.00002 3.0819-0.42395 4.4517-1.2719z"/>
          <path id="path6200" d="m-4.6875 583.62v66.219c-0.05366 9.422-4.317 19.087-9.7812 27.281-9.5158 14.401-26.73 25.149-45.281 27.375-18.843 2.4452-39.007-2.7006-57.594-10.75-0.0216-0.0103-0.0409-0.0213-0.0625-0.0312-2.9183-2.2497-6.4582-4.5733-10.438-6.6875-1.8087-0.83276-8.7302-4.6695-19.75-9.25-7.7278-4.7926-14.998-10.041-21.375-15.875-15.928-13.952-34.575-24.918-54.312-29.906-23.625-6.0808-46.171-3.6801-66.406 1.9062-29.618-6.6119-59.232-4.5796-81.094 2.3125-0.0233 0.007-0.0392 0.0245-0.0625 0.0312-1.1025-0.78548-2.3234-1.6246-3.375-2.375-11.235-7.911-21.211-13.835-29-16-6.8031-1.8831-11.214-1.6434-12.188-1.7188 0.97301 0.11668 5.3664 0.0709 12 2.2188 7.6013 2.4704 17.213 8.7447 28.062 17.094 0.63566 0.4874 1.3767 1.0268 2.0312 1.5312-27.112 8.2512-43.621 19.595-47.406 22.25 3.8882-2.5566 21.194-13.624 49.031-21 7.5615 5.8338 16.201 12.495 26.094 18.625-20.362 10.041-37.297 18.826-51.281 21.625-15.906 3.6867-24.822-2.8838-26.562-4.25 1.6802 1.4307 10.374 8.4222 26.75 5.3125 14.779-2.3796 32.909-11.064 54.469-20.656 16.813 9.8949 36.726 17.643 59.438 16.25 18.939-1.9721 36.959-5.7197 54.312-5.2188 0.24838 0.002 0.50212-0.003 0.75 0 30.223 19.628 61.545 37.087 89.656 44.719 35.233 10.911 62.644 8.038 66.875 7.4062 4.414-0.46451 8.477-1.39 12.125-2.5312 0.30214-0.0234 0.60375-0.036 0.90625-0.0625 22.97-2.0539 44.57-13.94 57.969-32.5 7.8335-10.91 13.725-23.784 13.781-36.594 0.000735-0.16633 0.0012-0.33369 0-0.5v-66.25h-18.281zm-327.91 49.188c11.256-0.0798 23.109 1.0028 34.969 3.4688-11.18 3.6204-21.555 8.0474-30.844 12.312-4.5984 2.1433-8.9855 4.2722-13.281 6.375-10.171-5.5174-19.295-11.773-27.281-17.438 10.782-2.9014 23.209-4.625 36.438-4.7188zm76.375 2.5c10.137-0.00071 20.468 1.3089 30.812 4.4375 17.095 5.0255 33.079 14.907 47.031 27.531-0.1-0.027-0.21227-0.0668-0.3125-0.0937-14.485-3.778-31.684-6.3903-49.875-5.7812-0.11807 0.002-0.22564-0.002-0.34375 0-6.4206-4.0636-12.93-8.1128-19.719-11.969-9.3303-5.2283-19.056-9.2832-28.906-12.312 6.956-1.1395 14.086-1.812 21.312-1.8125zm-30.625 3.625c12.205 3.4381 24.285 8.4404 35.625 15.25 3.817 2.6348 7.679 5.2322 11.562 7.8438-14.653 1.4194-29.44 4.8282-43.75 6.9062-19.705 2.186-38.258-3.6897-54.531-11.969 3.5922-1.5804 7.2836-3.1322 11.062-4.7188 11.986-4.9968 25.551-10.047 40.031-13.312zm72.719 31.781c11.821 1.2064 22.881 3.666 32.625 6.625 12.278 3.8326 22.558 8.1136 30.469 11.812 9.0403 5.8857 18.562 11.109 28.406 16.125 4.4184 2.1001 8.9674 4.061 13.625 5.8438-7.9502-0.96359-16.867-2.5951-26.562-5.2812-16.993-4.5156-35.941-11.927-55.062-21.844-7.9835-3.8874-15.738-8.4638-23.5-13.281z"/>
          <path id="path6202" d="m41.289 614.28v12.964h-22.356v-12.964z"/>
          <path id="path6204" d="m67.803 602.79v47.599h-19.861v-66.775h25.878c11.349 0.00007 20.236 2.5765 26.661 7.7293 7.6314 6.1639 11.447 14.529 11.447 25.096-0.00007 10.11-3.2614 18.361-9.7839 24.753-6.5227 6.3922-14.921 9.5882-25.194 9.5882-1.2067-0.00001-3.1798-0.0652-5.9193-0.19568v-19.617h3.1798c11.578 0.00002 17.366-4.843 17.366-14.529-0.000051-9.099-5.691-13.648-17.073-13.649z"/>
          <path id="path6206" d="m138.25 601.61v48.773h-18.296v-48.773zm-9.099-21.769c2.4786 0.00007 4.6229 0.87247 6.4329 2.6172 1.81 1.7449 2.715 3.8076 2.715 6.1883-0.00002 2.5439-0.85611 4.6311-2.5683 6.2617-1.7122 1.6307-3.9054 2.446-6.5797 2.446-2.6743 0.00005-4.8675-0.81527-6.5797-2.446-1.7122-1.6306-2.5683-3.7178-2.5683-6.2617 0-2.3807 0.90501-4.4434 2.715-6.1883 1.81-1.7447 3.9543-2.6171 6.4329-2.6172z"/>
          <path id="path6208" d="m179.68 602.3v19.274c-2.5765 0.00003-4.3457 0.48107-5.3078 1.4431-0.96212 0.96211-1.5736 2.8618-1.8345 5.6991-0.84796 9.4252-4.5006 16.078-10.958 19.959-3.4244 2.022-8.2837 3.033-14.578 3.033h-2.5438v-19.372h0.83163c2.9352 0.00002 5.0306-0.61148 6.2862-1.8345s1.9812-3.3673 2.1769-6.4329c0.2609-4.9898 0.72563-8.4957 1.3942-10.518 0.66855-2.022 2.0302-4.0277 4.0848-6.0171 3.5874-3.4896 8.5609-5.2344 14.92-5.2344z"/>
          <path id="path6210" d="m212.8 632.09v18.932c-1.5002 0.26091-2.87 0.39136-4.1092 0.39136-7.338 0-13.453-2.4134-18.345-7.2401s-7.3379-10.876-7.3379-18.149c0-7.077 2.4704-13.078 7.4113-18.002 4.9409-4.9245 10.95-7.3868 18.027-7.3868 7.8923 0.00005 14.113 2.3074 18.663 6.9221 4.5495 4.6148 6.8242 10.917 6.8243 18.907v23.922h-18.296v-22.601c-0.00004-2.5764-0.62784-4.631-1.8834-6.1639-1.2556-1.5328-2.9434-2.2992-5.0632-2.2992-1.9242 0.00003-3.5875 0.70121-4.9898 2.1035-1.4024 1.4024-2.1036 3.0656-2.1035 4.9898-0.00002 2.022 0.63594 3.6853 1.9079 4.9898 1.2719 1.3045 2.8862 1.9568 4.843 1.9568 1.598 0.00002 3.0819-0.42395 4.4517-1.2719z"/>
          <path id="path6212" d="m262.89 601.61v48.773h-18.296v-48.773zm-9.099-21.769c2.4786 0.00007 4.6229 0.87247 6.4329 2.6172 1.81 1.7449 2.715 3.8076 2.715 6.1883-0.00002 2.5439-0.85612 4.6311-2.5683 6.2617-1.7122 1.6307-3.9054 2.446-6.5797 2.446-2.6743 0.00005-4.8675-0.81527-6.5797-2.446-1.7122-1.6306-2.5683-3.7178-2.5683-6.2617 0-2.3807 0.90501-4.4434 2.715-6.1883 1.81-1.7447 3.9543-2.6171 6.4329-2.6172z"/>
          <path id="path6214" d="m317.24 650.39h-18.296v-27.542c-0.00003-2.8047-1.1578-4.207-3.4733-4.2071-2.2829 0.00003-3.4244 1.4024-3.4244 4.2071v27.542h-18.296v-27.199c-0.00001-6.3595 2.1035-11.716 6.3106-16.07 4.2071-4.3538 9.3599-6.5307 15.459-6.5308 6.9792 0.00005 12.572 2.5276 16.779 7.5825 3.2939 3.9462 4.9408 9.4415 4.9409 16.486z"/>
        </g>
        <g id="g6240" filter="url(#filter6236)" transform="matrix(.059497 0 0 .059497 -128.46 342.92)">
          <path id="path6242" d="m-36.493 632.09v18.932c-1.5002 0.26091-2.87 0.39136-4.1092 0.39136-7.338 0-13.453-2.4134-18.345-7.2401s-7.3379-10.876-7.3379-18.149c-0.000003-7.077 2.4704-13.078 7.4113-18.002 4.9409-4.9245 10.95-7.3868 18.027-7.3868 7.8923 0.00005 14.113 2.3074 18.663 6.9221 4.5495 4.6148 6.8242 10.917 6.8243 18.907v23.922h-18.296v-22.601c-0.000036-2.5764-0.62784-4.631-1.8834-6.1639-1.2556-1.5328-2.9434-2.2992-5.0632-2.2992-1.9242 0.00003-3.5875 0.70121-4.9898 2.1035-1.4024 1.4024-2.1036 3.0656-2.1035 4.9898-0.000021 2.022 0.63593 3.6853 1.9079 4.9898 1.2719 1.3045 2.8862 1.9568 4.843 1.9568 1.598 0.00002 3.0819-0.42395 4.4517-1.2719z"/>
          <path id="path6244" d="m-4.6875 583.62v66.219c-0.05366 9.422-4.317 19.087-9.7812 27.281-9.5158 14.401-26.73 25.149-45.281 27.375-18.843 2.4452-39.007-2.7006-57.594-10.75-0.0216-0.0103-0.0409-0.0213-0.0625-0.0312-2.9183-2.2497-6.4582-4.5733-10.438-6.6875-1.8087-0.83276-8.7302-4.6695-19.75-9.25-7.7278-4.7926-14.998-10.041-21.375-15.875-15.928-13.952-34.575-24.918-54.312-29.906-23.625-6.0808-46.171-3.6801-66.406 1.9062-29.618-6.6119-59.232-4.5796-81.094 2.3125-0.0233 0.007-0.0392 0.0245-0.0625 0.0312-1.1025-0.78548-2.3234-1.6246-3.375-2.375-11.235-7.911-21.211-13.835-29-16-6.8031-1.8831-11.214-1.6434-12.188-1.7188 0.97301 0.11668 5.3664 0.0709 12 2.2188 7.6013 2.4704 17.213 8.7447 28.062 17.094 0.63566 0.4874 1.3767 1.0268 2.0312 1.5312-27.112 8.2512-43.621 19.595-47.406 22.25 3.8882-2.5566 21.194-13.624 49.031-21 7.5615 5.8338 16.201 12.495 26.094 18.625-20.362 10.041-37.297 18.826-51.281 21.625-15.906 3.6867-24.822-2.8838-26.562-4.25 1.6802 1.4307 10.374 8.4222 26.75 5.3125 14.779-2.3796 32.909-11.064 54.469-20.656 16.813 9.8949 36.726 17.643 59.438 16.25 18.939-1.9721 36.959-5.7197 54.312-5.2188 0.24838 0.002 0.50212-0.003 0.75 0 30.223 19.628 61.545 37.087 89.656 44.719 35.233 10.911 62.644 8.038 66.875 7.4062 4.414-0.46451 8.477-1.39 12.125-2.5312 0.30214-0.0234 0.60375-0.036 0.90625-0.0625 22.97-2.0539 44.57-13.94 57.969-32.5 7.8335-10.91 13.725-23.784 13.781-36.594 0.000735-0.16633 0.0012-0.33369 0-0.5v-66.25h-18.281zm-327.91 49.188c11.256-0.0798 23.109 1.0028 34.969 3.4688-11.18 3.6204-21.555 8.0474-30.844 12.312-4.5984 2.1433-8.9855 4.2722-13.281 6.375-10.171-5.5174-19.295-11.773-27.281-17.438 10.782-2.9014 23.209-4.625 36.438-4.7188zm76.375 2.5c10.137-0.00071 20.468 1.3089 30.812 4.4375 17.095 5.0255 33.079 14.907 47.031 27.531-0.1-0.027-0.21227-0.0668-0.3125-0.0937-14.485-3.778-31.684-6.3903-49.875-5.7812-0.11807 0.002-0.22564-0.002-0.34375 0-6.4206-4.0636-12.93-8.1128-19.719-11.969-9.3303-5.2283-19.056-9.2832-28.906-12.312 6.956-1.1395 14.086-1.812 21.312-1.8125zm-30.625 3.625c12.205 3.4381 24.285 8.4404 35.625 15.25 3.817 2.6348 7.679 5.2322 11.562 7.8438-14.653 1.4194-29.44 4.8282-43.75 6.9062-19.705 2.186-38.258-3.6897-54.531-11.969 3.5922-1.5804 7.2836-3.1322 11.062-4.7188 11.986-4.9968 25.551-10.047 40.031-13.312zm72.719 31.781c11.821 1.2064 22.881 3.666 32.625 6.625 12.278 3.8326 22.558 8.1136 30.469 11.812 9.0403 5.8857 18.562 11.109 28.406 16.125 4.4184 2.1001 8.9674 4.061 13.625 5.8438-7.9502-0.96359-16.867-2.5951-26.562-5.2812-16.993-4.5156-35.941-11.927-55.062-21.844-7.9835-3.8874-15.738-8.4638-23.5-13.281z"/>
          <path id="path6246" d="m41.289 614.28v12.964h-22.356v-12.964z"/>
          <path id="path6248" d="m67.803 602.79v47.599h-19.861v-66.775h25.878c11.349 0.00007 20.236 2.5765 26.661 7.7293 7.6314 6.1639 11.447 14.529 11.447 25.096-0.00007 10.11-3.2614 18.361-9.7839 24.753-6.5227 6.3922-14.921 9.5882-25.194 9.5882-1.2067-0.00001-3.1798-0.0652-5.9193-0.19568v-19.617h3.1798c11.578 0.00002 17.366-4.843 17.366-14.529-0.000051-9.099-5.691-13.648-17.073-13.649z"/>
          <path id="path6250" d="m138.25 601.61v48.773h-18.296v-48.773zm-9.099-21.769c2.4786 0.00007 4.6229 0.87247 6.4329 2.6172 1.81 1.7449 2.715 3.8076 2.715 6.1883-0.00002 2.5439-0.85611 4.6311-2.5683 6.2617-1.7122 1.6307-3.9054 2.446-6.5797 2.446-2.6743 0.00005-4.8675-0.81527-6.5797-2.446-1.7122-1.6306-2.5683-3.7178-2.5683-6.2617 0-2.3807 0.90501-4.4434 2.715-6.1883 1.81-1.7447 3.9543-2.6171 6.4329-2.6172z"/>
          <path id="path6252" d="m179.68 602.3v19.274c-2.5765 0.00003-4.3457 0.48107-5.3078 1.4431-0.96212 0.96211-1.5736 2.8618-1.8345 5.6991-0.84796 9.4252-4.5006 16.078-10.958 19.959-3.4244 2.022-8.2837 3.033-14.578 3.033h-2.5438v-19.372h0.83163c2.9352 0.00002 5.0306-0.61148 6.2862-1.8345s1.9812-3.3673 2.1769-6.4329c0.2609-4.9898 0.72563-8.4957 1.3942-10.518 0.66855-2.022 2.0302-4.0277 4.0848-6.0171 3.5874-3.4896 8.5609-5.2344 14.92-5.2344z"/>
          <path id="path6254" d="m212.8 632.09v18.932c-1.5002 0.26091-2.87 0.39136-4.1092 0.39136-7.338 0-13.453-2.4134-18.345-7.2401s-7.3379-10.876-7.3379-18.149c0-7.077 2.4704-13.078 7.4113-18.002 4.9409-4.9245 10.95-7.3868 18.027-7.3868 7.8923 0.00005 14.113 2.3074 18.663 6.9221 4.5495 4.6148 6.8242 10.917 6.8243 18.907v23.922h-18.296v-22.601c-0.00004-2.5764-0.62784-4.631-1.8834-6.1639-1.2556-1.5328-2.9434-2.2992-5.0632-2.2992-1.9242 0.00003-3.5875 0.70121-4.9898 2.1035-1.4024 1.4024-2.1036 3.0656-2.1035 4.9898-0.00002 2.022 0.63594 3.6853 1.9079 4.9898 1.2719 1.3045 2.8862 1.9568 4.843 1.9568 1.598 0.00002 3.0819-0.42395 4.4517-1.2719z"/>
          <path id="path6256" d="m262.89 601.61v48.773h-18.296v-48.773zm-9.099-21.769c2.4786 0.00007 4.6229 0.87247 6.4329 2.6172 1.81 1.7449 2.715 3.8076 2.715 6.1883-0.00002 2.5439-0.85612 4.6311-2.5683 6.2617-1.7122 1.6307-3.9054 2.446-6.5797 2.446-2.6743 0.00005-4.8675-0.81527-6.5797-2.446-1.7122-1.6306-2.5683-3.7178-2.5683-6.2617 0-2.3807 0.90501-4.4434 2.715-6.1883 1.81-1.7447 3.9543-2.6171 6.4329-2.6172z"/>
          <path id="path6258" d="m317.24 650.39h-18.296v-27.542c-0.00003-2.8047-1.1578-4.207-3.4733-4.2071-2.2829 0.00003-3.4244 1.4024-3.4244 4.2071v27.542h-18.296v-27.199c-0.00001-6.3595 2.1035-11.716 6.3106-16.07 4.2071-4.3538 9.3599-6.5307 15.459-6.5308 6.9792 0.00005 12.572 2.5276 16.779 7.5825 3.2939 3.9462 4.9408 9.4415 4.9409 16.486z"/>
        </g>
        <g id="g10332" transform="matrix(.059497 0 0 .059497 -128.46 342.92)">
          <path id="path4080" d="m-36.493 632.09v18.932c-1.5002 0.26091-2.87 0.39136-4.1092 0.39136-7.338 0-13.453-2.4134-18.345-7.2401s-7.3379-10.876-7.3379-18.149c-0.000003-7.077 2.4704-13.078 7.4113-18.002 4.9409-4.9245 10.95-7.3868 18.027-7.3868 7.8923 0.00005 14.113 2.3074 18.663 6.9221 4.5495 4.6148 6.8242 10.917 6.8243 18.907v23.922h-18.296v-22.601c-0.000036-2.5764-0.62784-4.631-1.8834-6.1639-1.2556-1.5328-2.9434-2.2992-5.0632-2.2992-1.9242 0.00003-3.5875 0.70121-4.9898 2.1035-1.4024 1.4024-2.1036 3.0656-2.1035 4.9898-0.000021 2.022 0.63593 3.6853 1.9079 4.9898 1.2719 1.3045 2.8862 1.9568 4.843 1.9568 1.598 0.00002 3.0819-0.42395 4.4517-1.2719z"/>
          <path id="path4082" d="m-4.6875 583.62v66.219c-0.05366 9.422-4.317 19.087-9.7812 27.281-9.5158 14.401-26.73 25.149-45.281 27.375-18.843 2.4452-39.007-2.7006-57.594-10.75-0.0216-0.0103-0.0409-0.0213-0.0625-0.0312-2.9183-2.2497-6.4582-4.5733-10.438-6.6875-1.8087-0.83276-8.7302-4.6695-19.75-9.25-7.7278-4.7926-14.998-10.041-21.375-15.875-15.928-13.952-34.575-24.918-54.312-29.906-23.625-6.0808-46.171-3.6801-66.406 1.9062-29.618-6.6119-59.232-4.5796-81.094 2.3125-0.0233 0.007-0.0392 0.0245-0.0625 0.0312-1.1025-0.78548-2.3234-1.6246-3.375-2.375-11.235-7.911-21.211-13.835-29-16-6.8031-1.8831-11.214-1.6434-12.188-1.7188 0.97301 0.11668 5.3664 0.0709 12 2.2188 7.6013 2.4704 17.213 8.7447 28.062 17.094 0.63566 0.4874 1.3767 1.0268 2.0312 1.5312-27.112 8.2512-43.621 19.595-47.406 22.25 3.8882-2.5566 21.194-13.624 49.031-21 7.5615 5.8338 16.201 12.495 26.094 18.625-20.362 10.041-37.297 18.826-51.281 21.625-15.906 3.6867-24.822-2.8838-26.562-4.25 1.6802 1.4307 10.374 8.4222 26.75 5.3125 14.779-2.3796 32.909-11.064 54.469-20.656 16.813 9.8949 36.726 17.643 59.438 16.25 18.939-1.9721 36.959-5.7197 54.312-5.2188 0.24838 0.002 0.50212-0.003 0.75 0 30.223 19.628 61.545 37.087 89.656 44.719 35.233 10.911 62.644 8.038 66.875 7.4062 4.414-0.46451 8.477-1.39 12.125-2.5312 0.30214-0.0234 0.60375-0.036 0.90625-0.0625 22.97-2.0539 44.57-13.94 57.969-32.5 7.8335-10.91 13.725-23.784 13.781-36.594 0.000735-0.16633 0.0012-0.33369 0-0.5v-66.25h-18.281zm-327.91 49.188c11.256-0.0798 23.109 1.0028 34.969 3.4688-11.18 3.6204-21.555 8.0474-30.844 12.312-4.5984 2.1433-8.9855 4.2722-13.281 6.375-10.171-5.5174-19.295-11.773-27.281-17.438 10.782-2.9014 23.209-4.625 36.438-4.7188zm76.375 2.5c10.137-0.00071 20.468 1.3089 30.812 4.4375 17.095 5.0255 33.079 14.907 47.031 27.531-0.1-0.027-0.21227-0.0668-0.3125-0.0937-14.485-3.778-31.684-6.3903-49.875-5.7812-0.11807 0.002-0.22564-0.002-0.34375 0-6.4206-4.0636-12.93-8.1128-19.719-11.969-9.3303-5.2283-19.056-9.2832-28.906-12.312 6.956-1.1395 14.086-1.812 21.312-1.8125zm-30.625 3.625c12.205 3.4381 24.285 8.4404 35.625 15.25 3.817 2.6348 7.679 5.2322 11.562 7.8438-14.653 1.4194-29.44 4.8282-43.75 6.9062-19.705 2.186-38.258-3.6897-54.531-11.969 3.5922-1.5804 7.2836-3.1322 11.062-4.7188 11.986-4.9968 25.551-10.047 40.031-13.312zm72.719 31.781c11.821 1.2064 22.881 3.666 32.625 6.625 12.278 3.8326 22.558 8.1136 30.469 11.812 9.0403 5.8857 18.562 11.109 28.406 16.125 4.4184 2.1001 8.9674 4.061 13.625 5.8438-7.9502-0.96359-16.867-2.5951-26.562-5.2812-16.993-4.5156-35.941-11.927-55.062-21.844-7.9835-3.8874-15.738-8.4638-23.5-13.281z"/>
          <path id="path4084" d="m41.289 614.28v12.964h-22.356v-12.964z"/>
          <path id="path4086" d="m67.803 602.79v47.599h-19.861v-66.775h25.878c11.349 0.00007 20.236 2.5765 26.661 7.7293 7.6314 6.1639 11.447 14.529 11.447 25.096-0.00007 10.11-3.2614 18.361-9.7839 24.753-6.5227 6.3922-14.921 9.5882-25.194 9.5882-1.2067-0.00001-3.1798-0.0652-5.9193-0.19568v-19.617h3.1798c11.578 0.00002 17.366-4.843 17.366-14.529-0.000051-9.099-5.691-13.648-17.073-13.649z"/>
          <path id="path4088" d="m138.25 601.61v48.773h-18.296v-48.773zm-9.099-21.769c2.4786 0.00007 4.6229 0.87247 6.4329 2.6172 1.81 1.7449 2.715 3.8076 2.715 6.1883-0.00002 2.5439-0.85611 4.6311-2.5683 6.2617-1.7122 1.6307-3.9054 2.446-6.5797 2.446-2.6743 0.00005-4.8675-0.81527-6.5797-2.446-1.7122-1.6306-2.5683-3.7178-2.5683-6.2617 0-2.3807 0.90501-4.4434 2.715-6.1883 1.81-1.7447 3.9543-2.6171 6.4329-2.6172z"/>
          <path id="path4090" d="m179.68 602.3v19.274c-2.5765 0.00003-4.3457 0.48107-5.3078 1.4431-0.96212 0.96211-1.5736 2.8618-1.8345 5.6991-0.84796 9.4252-4.5006 16.078-10.958 19.959-3.4244 2.022-8.2837 3.033-14.578 3.033h-2.5438v-19.372h0.83163c2.9352 0.00002 5.0306-0.61148 6.2862-1.8345s1.9812-3.3673 2.1769-6.4329c0.2609-4.9898 0.72563-8.4957 1.3942-10.518 0.66855-2.022 2.0302-4.0277 4.0848-6.0171 3.5874-3.4896 8.5609-5.2344 14.92-5.2344z"/>
          <path id="path4092" d="m212.8 632.09v18.932c-1.5002 0.26091-2.87 0.39136-4.1092 0.39136-7.338 0-13.453-2.4134-18.345-7.2401s-7.3379-10.876-7.3379-18.149c0-7.077 2.4704-13.078 7.4113-18.002 4.9409-4.9245 10.95-7.3868 18.027-7.3868 7.8923 0.00005 14.113 2.3074 18.663 6.9221 4.5495 4.6148 6.8242 10.917 6.8243 18.907v23.922h-18.296v-22.601c-0.00004-2.5764-0.62784-4.631-1.8834-6.1639-1.2556-1.5328-2.9434-2.2992-5.0632-2.2992-1.9242 0.00003-3.5875 0.70121-4.9898 2.1035-1.4024 1.4024-2.1036 3.0656-2.1035 4.9898-0.00002 2.022 0.63594 3.6853 1.9079 4.9898 1.2719 1.3045 2.8862 1.9568 4.843 1.9568 1.598 0.00002 3.0819-0.42395 4.4517-1.2719z"/>
          <path id="path4094" d="m262.89 601.61v48.773h-18.296v-48.773zm-9.099-21.769c2.4786 0.00007 4.6229 0.87247 6.4329 2.6172 1.81 1.7449 2.715 3.8076 2.715 6.1883-0.00002 2.5439-0.85612 4.6311-2.5683 6.2617-1.7122 1.6307-3.9054 2.446-6.5797 2.446-2.6743 0.00005-4.8675-0.81527-6.5797-2.446-1.7122-1.6306-2.5683-3.7178-2.5683-6.2617 0-2.3807 0.90501-4.4434 2.715-6.1883 1.81-1.7447 3.9543-2.6171 6.4329-2.6172z"/>
          <path id="path4096" d="m317.24 650.39h-18.296v-27.542c-0.00003-2.8047-1.1578-4.207-3.4733-4.2071-2.2829 0.00003-3.4244 1.4024-3.4244 4.2071v27.542h-18.296v-27.199c-0.00001-6.3595 2.1035-11.716 6.3106-16.07 4.2071-4.3538 9.3599-6.5307 15.459-6.5308 6.9792 0.00005 12.572 2.5276 16.779 7.5825 3.2939 3.9462 4.9408 9.4415 4.9409 16.486z"/>
        </g>
      </g>
      <path id="path6280" fill="url(#linearGradient6348)" d="m-319.97 149.53v241.44c43.181 2.2727 135.53 2.9583 221.88 2.6562l-57.188-244.09h-164.69z"/>
    </g>
  </g>
  <metadata>
    <rdf:RDF>
      <cc:Work>
        <dc:format>image/svg+xml</dc:format>
        <dc:type rdf:resource="http://purl.org/dc/dcmitype/StillImage"/>
        <cc:license rdf:resource="http://creativecommons.org/licenses/publicdomain/"/>
        <dc:publisher>
          <cc:Agent rdf:about="http://openclipart.org/">
            <dc:title>Openclipart</dc:title>
          </cc:Agent>
        </dc:publisher>
        <dc:title>Just another Plasma TV</dc:title>
        <dc:date>2010-05-07T03:48:53</dc:date>
        <dc:description>Just want to make a simple plasma TV for something I want to create in http://aldisain.wordpress.com</dc:description>
        <dc:source>http://openclipart.org/detail/58909/just-another-plasma-tv-by-abu-ilyas</dc:source>
        <dc:creator>
          <cc:Agent>
            <dc:title>abu ilyas</dc:title>
          </cc:Agent>
        </dc:creator>
        <dc:subject>
          <rdf:Bag>
            <rdf:li>clip art</rdf:li>
            <rdf:li>clipart</rdf:li>
            <rdf:li>plasma</rdf:li>
            <rdf:li>simple</rdf:li>
            <rdf:li>television</rdf:li>
            <rdf:li>tv</rdf:li>
          </rdf:Bag>
        </dc:subject>
      </cc:Work>
      <cc:License rdf:about="http://creativecommons.org/licenses/publicdomain/">
        <cc:permits rdf:resource="http://creativecommons.org/ns#Reproduction"/>
        <cc:permits rdf:resource="http://creativecommons.org/ns#Distribution"/>
        <cc:permits rdf:resource="http://creativecommons.org/ns#DerivativeWorks"/>
      </cc:License>
    </rdf:RDF>
  </metadata>
</svg>
