<?xml version="1.0" encoding="utf-8"?>
<!-- Generator: Adobe Illustrator 16.0.3, SVG Export Plug-In . SVG Version: 6.00 Build 0)  -->
<!DOCTYPE svg PUBLIC "-//W3C//DTD SVG 1.1//EN" "http://www.w3.org/Graphics/SVG/1.1/DTD/svg11.dtd">
<svg xmlns="http://www.w3.org/2000/svg" xmlns:xlink="http://www.w3.org/1999/xlink" version="1.1" x="0px" y="0px" width="612px" height="792px" viewBox="0 0 612 792" style="enable-background:new 0 0 612 792;" xml:space="preserve">
<g id="Layer_1">
	<g style="opacity:0.53;">
		
			
	</g>
	<g style="opacity:0.53;">
		
			
	</g>
	<g>
		<g>
			<defs>
				<polygon id="SVGID_1_" points="279,468.441 207,503.559 207,323.559 279,288.441     "/>
			</defs>
			<clipPath id="SVGID_2_">
				<use xlink:href="#SVGID_1_" style="overflow:visible;"/>
			</clipPath>
			<g style="clip-path:url(#SVGID_2_);">
				<polygon style="fill:#27AAE1;" points="423,398.208 207,503.559 207,323.559 423,218.208     "/>
				<path style="fill:#8DC63F;" d="M315,300.883c0,16.771-18,8.779-27,28.169c-9,19.389,0,30,27,16.831      c27-13.168,18-46.279,45-51.948s30.77,3.134,45,8.052c9,3.11,9,10.61,0,22.5c-20.125,26.586-0.002,30.001,9,25.61      c9-4.39,9,3.11,9,3.11v45L207,503.559v-180c0,0,72-35.117,81-32.006C297,294.663,315,285.883,315,300.883z"/>
				
					<line style="fill:none;stroke:#414042;stroke-width:4.5643;stroke-miterlimit:10;" x1="306" y1="395.273" x2="333" y2="419.604"/>
				
					<line style="fill:none;stroke:#414042;stroke-width:4.5643;stroke-miterlimit:10;" x1="315" y1="390.883" x2="315" y2="428.383"/>
				<polygon style="fill:#414042;" points="333,397.104 324,401.494 324,393.994 333,389.604     "/>
				<path style="fill:none;stroke:#FFFFFF;stroke-width:1.8257;stroke-miterlimit:10;" d="M207,383.559c0,0,36-17.559,45-6.948      s63,6.773,81-2.006c18-8.779,27,1.831,27,9.331s-18,53.779-18,53.779"/>
				<path style="fill:none;stroke:#FFFFFF;stroke-width:1.8257;stroke-miterlimit:10;" d="M360,301.436c0,0,36-2.559,27,24.331      s-36,47.559-36,47.559"/>
				<path style="fill:none;stroke:#FFFFFF;stroke-width:1.8257;stroke-miterlimit:10;" d="M279,468.441c0,0-54-11.162-45-38.052      s18-53.779,18-53.779"/>
				<path style="fill:#006838;" d="M297,302.163c-36,32.558-9,49.39-36,62.558c-14.912,7.273-36,2.559-45-0.552      c-14.058-4.859,18-31.279,36-55.059C262.544,295.181,305.051,294.882,297,302.163z"/>
				<path style="fill:#F7941E;" d="M207,413.559c0,0,0-15,9-19.39s18-8.779,18-1.279s-9,34.39-9,41.89s0,37.5,9,40.61      s9,10.61,9,10.61l-36,17.559L207,413.559z"/>
				<polygon style="fill:#6D6E71;stroke:#D1D3D4;stroke-width:0.9129;stroke-miterlimit:10;" points="360,316.436 351.002,320.824       351.002,313.324 360,308.936     "/>
				<polygon style="fill:#6D6E71;stroke:#D1D3D4;stroke-width:0.9129;stroke-miterlimit:10;" points="369,327.046 360.002,331.435       360.002,317.016 369,312.627     "/>
				<polygon style="fill:#6D6E71;stroke:#D1D3D4;stroke-width:0.9129;stroke-miterlimit:10;" points="351,328.325 342.002,332.714       342.002,325.214 351,320.825     "/>
				<polygon style="fill:#6D6E71;stroke:#D1D3D4;stroke-width:0.9129;stroke-miterlimit:10;" points="360.002,327.685 378,318.906       378,326.406 360.002,335.185     "/>
			</g>
		</g>
		<g>
			<defs>
				<polygon id="SVGID_3_" points="350.999,504.441 278.999,469.324 278.999,289.324 350.999,324.441     "/>
			</defs>
			<clipPath id="SVGID_4_">
				<use xlink:href="#SVGID_3_" style="overflow:visible;"/>
			</clipPath>
			<g style="clip-path:url(#SVGID_4_);">
				<polygon style="fill:#27AAE1;" points="423,539.559 207,434.208 207,254.208 423,359.559     "/>
				<path style="fill:#8DC63F;" d="M315,336.883c0,16.771-18.001-8.779-27.001,1.831c-9,10.61,0.001,30.001,27.001,43.169      c27,13.169,17.999-28.721,44.999-8.052s30.77,33.148,45,51.948c9,11.889,9,19.389,0,22.5c-20.125,6.954-0.001,29.999,9,34.389      C423,487.059,423,494.559,423,494.559v45L207,434.208v-180c0,0,72,35.116,80.999,47.006      C296.999,313.104,315,321.883,315,336.883z"/>
				
					<line style="fill:none;stroke:#414042;stroke-width:4.5643;stroke-miterlimit:10;" x1="305.999" y1="422.493" x2="333" y2="473.162"/>
				
					<line style="fill:none;stroke:#414042;stroke-width:4.5643;stroke-miterlimit:10;" x1="315" y1="426.883" x2="315" y2="464.383"/>
				<polygon style="fill:#414042;" points="333,450.662 324,446.273 324,438.773 333,443.162     "/>
				<path style="fill:none;stroke:#FFFFFF;stroke-width:1.8257;stroke-miterlimit:10;" d="M207,314.208c0,0,36,17.559,45,36.948      c9,19.389,63,68.227,81,77.006s26.999,28.169,26.999,35.669S342,500.052,342,500.052"/>
				<path style="fill:none;stroke:#FFFFFF;stroke-width:1.8257;stroke-miterlimit:10;" d="M359.999,381.331c0,0,36,32.558,27,50.669      c-9,18.109-35.999,12.441-35.999,12.441"/>
				<path style="fill:none;stroke:#FFFFFF;stroke-width:1.8257;stroke-miterlimit:10;" d="M279,469.324c0,0-54-63.837-45-81.947      s18-36.221,18-36.221"/>
				<path style="fill:#006838;" d="M297,320.604c-36-2.559-9,40.611-36,27.442c-14.912-7.273-36-32.559-45-44.448      c-14.058-18.572,18-13.721,36-19.941C262.543,280.012,305.05,321.177,297,320.604z"/>
				<path style="fill:#F7941E;" d="M207,344.208c0,0,0-15,9-10.61s18,8.779,18,16.279s-9,25.61-9,33.11s0,37.5,9,49.39      s9,19.39,9,19.39l-36-17.559L207,344.208z"/>
				<polygon style="fill:#6D6E71;stroke:#D1D3D4;stroke-width:0.9129;stroke-miterlimit:10;" points="360,396.331 351.001,391.942       351.001,384.442 360,388.831     "/>
				<polygon style="fill:#6D6E71;stroke:#D1D3D4;stroke-width:0.9129;stroke-miterlimit:10;" points="369,415.721 360.001,411.332       360.001,396.913 369,401.302     "/>
				<polygon style="fill:#6D6E71;stroke:#D1D3D4;stroke-width:0.9129;stroke-miterlimit:10;" points="351,399.441 342.001,395.053       342.001,387.553 351,391.941     "/>
				<polygon style="fill:#6D6E71;stroke:#D1D3D4;stroke-width:0.9129;stroke-miterlimit:10;" points="360.001,407.582       377.999,416.359 377.999,423.859 360.001,415.082     "/>
			</g>
		</g>
		<g>
			<defs>
				<polygon id="SVGID_5_" points="423,467.559 351,502.676 351,322.676 423,287.559     "/>
			</defs>
			<clipPath id="SVGID_6_">
				<use xlink:href="#SVGID_5_" style="overflow:visible;"/>
			</clipPath>
			<g style="clip-path:url(#SVGID_6_);">
				<polygon style="fill:#27AAE1;" points="423,467.559 207,572.909 207,392.909 423,287.559     "/>
				<path style="fill:#8DC63F;" d="M315,370.234c0,16.771-18,8.779-27,28.168c-9,19.391,0,30,27,16.832      c27-13.169,18-46.279,45-51.948s30.77,3.134,45,8.052c9,3.11,9,10.61,0,22.5c-20.125,26.586-0.002,30.001,9,25.61      c9-4.39,9,3.11,9,3.11v45L207,572.909v-180c0,0,72-35.116,81-32.007C297,364.014,315,355.234,315,370.234z"/>
				
					<line style="fill:none;stroke:#414042;stroke-width:4.5643;stroke-miterlimit:10;" x1="306" y1="464.623" x2="333" y2="488.955"/>
				
					<line style="fill:none;stroke:#414042;stroke-width:4.5643;stroke-miterlimit:10;" x1="315" y1="460.234" x2="315" y2="497.734"/>
				<polygon style="fill:#414042;" points="333,466.455 324,470.845 324,463.345 333,458.955     "/>
				<path style="fill:none;stroke:#FFFFFF;stroke-width:1.8257;stroke-miterlimit:10;" d="M207,452.909c0,0,36-17.559,45-6.948      s63,6.773,81-2.006s27,1.831,27,9.331s-18,53.779-18,53.779"/>
				<path style="fill:none;stroke:#FFFFFF;stroke-width:1.8257;stroke-miterlimit:10;" d="M360,370.786c0,0,36-2.559,27,24.331      s-36,47.559-36,47.559"/>
				<path style="fill:none;stroke:#FFFFFF;stroke-width:1.8257;stroke-miterlimit:10;" d="M279,537.793c0,0-54-11.163-45-38.053      s18-53.779,18-53.779"/>
				<path style="fill:#006838;" d="M297,371.514c-36,32.558-9,49.389-36,62.558c-14.911,7.272-36,2.559-45-0.552      c-14.058-4.859,18-31.279,36-55.059C262.544,364.531,305.051,364.233,297,371.514z"/>
				<path style="fill:#F7941E;" d="M207,482.909c0,0,0-15,9-19.39s18-8.779,18-1.279s-9,34.39-9,41.89s0,37.5,9,40.61      s9,10.61,9,10.61l-36,17.559V482.909z"/>
				<polygon style="fill:#6D6E71;stroke:#D1D3D4;stroke-width:0.9129;stroke-miterlimit:10;" points="360,385.786 351.002,390.175       351.002,382.675 360,378.286     "/>
				<polygon style="fill:#6D6E71;stroke:#D1D3D4;stroke-width:0.9129;stroke-miterlimit:10;" points="369,396.396 360.002,400.785       360.002,386.366 369,381.978     "/>
				<polygon style="fill:#6D6E71;stroke:#D1D3D4;stroke-width:0.9129;stroke-miterlimit:10;" points="351,397.676 342.002,402.064       342.002,394.564 351,390.176     "/>
				<polygon style="fill:#6D6E71;stroke:#D1D3D4;stroke-width:0.9129;stroke-miterlimit:10;" points="360.002,397.035 378,388.257       378,395.757 360.002,404.535     "/>
			</g>
		</g>
		<g>
			<polyline style="fill:none;stroke:#D1D3D4;stroke-width:2;stroke-miterlimit:10;" points="207,359.559 279,323.559 351,359.559      423,323.559    "/>
			<polyline style="fill:none;stroke:#D1D3D4;stroke-width:2;stroke-miterlimit:10;" points="207,395.559 279,359.559 351,395.559      423,359.559    "/>
			<polyline style="fill:none;stroke:#D1D3D4;stroke-width:2;stroke-miterlimit:10;" points="207,431.559 279,395.559 351,431.559      423,395.559    "/>
			<polyline style="fill:none;stroke:#D1D3D4;stroke-width:2;stroke-miterlimit:10;" points="207,467.559 279,431.559 351,467.559      423,431.559    "/>
			<line style="fill:none;stroke:#D1D3D4;stroke-width:2;stroke-miterlimit:10;" x1="243" y1="305.559" x2="243" y2="485.55"/>
			<line style="fill:none;stroke:#D1D3D4;stroke-width:2;stroke-miterlimit:10;" x1="279" y1="287.559" x2="279" y2="467.55"/>
			<line style="fill:none;stroke:#D1D3D4;stroke-width:2;stroke-miterlimit:10;" x1="315" y1="305.559" x2="315" y2="485.55"/>
			<line style="fill:none;stroke:#D1D3D4;stroke-width:2;stroke-miterlimit:10;" x1="351" y1="503.559" x2="351" y2="323.567"/>
			<line style="fill:none;stroke:#D1D3D4;stroke-width:2;stroke-miterlimit:10;" x1="387" y1="305.559" x2="387" y2="485.55"/>
		</g>
		<polygon style="fill:none;stroke:#D1D3D4;stroke-width:5;stroke-miterlimit:10;" points="423,467.559 351,503.559 279,467.559     207,503.559 207,323.559 279,287.559 351,323.559 423,287.559   "/>
	</g>
</g>
<g id="Layer_2">
</g>
</svg>
