<?xml version="1.0" encoding="UTF-8" standalone="no"?>
<!-- Created with Inkscape (http://www.inkscape.org/) -->

<svg
   xmlns:dc="http://purl.org/dc/elements/1.1/"
   xmlns:cc="http://creativecommons.org/ns#"
   xmlns:rdf="http://www.w3.org/1999/02/22-rdf-syntax-ns#"
   xmlns:svg="http://www.w3.org/2000/svg"
   xmlns="http://www.w3.org/2000/svg"
   xmlns:sodipodi="http://sodipodi.sourceforge.net/DTD/sodipodi-0.dtd"
   xmlns:inkscape="http://www.inkscape.org/namespaces/inkscape"
   version="1.1"
   id="svg2"
   xml:space="preserve"
   width="1152"
   height="336"
   viewBox="0 0 1152 336"
   sodipodi:docname="switchfuns.svg"
   inkscape:version="0.92.3 (2405546, 2018-03-11)"><metadata
     id="metadata8"><rdf:RDF><cc:Work
         rdf:about=""><dc:format>image/svg+xml</dc:format><dc:type
           rdf:resource="http://purl.org/dc/dcmitype/StillImage" /><dc:title></dc:title></cc:Work></rdf:RDF></metadata><defs
     id="defs6"><clipPath
       clipPathUnits="userSpaceOnUse"
       id="clipPath20"><path
         d="M 86.4,86.4 H 288 v 144 H 86.4 Z"
         id="path18"
         inkscape:connector-curvature="0" /></clipPath><clipPath
       clipPathUnits="userSpaceOnUse"
       id="clipPath30"><path
         d="M 0,0 H 288 V 252 H 0 Z"
         id="path28"
         inkscape:connector-curvature="0" /></clipPath><clipPath
       clipPathUnits="userSpaceOnUse"
       id="clipPath46"><path
         d="M 86.4,86.4 H 288 v 144 H 86.4 Z"
         id="path44"
         inkscape:connector-curvature="0" /></clipPath><clipPath
       clipPathUnits="userSpaceOnUse"
       id="clipPath112"><path
         d="M 0,0 H 288 V 252 H 0 Z"
         id="path110"
         inkscape:connector-curvature="0" /></clipPath><clipPath
       clipPathUnits="userSpaceOnUse"
       id="clipPath124"><path
         d="M 374.4,86.4 H 576 v 144 H 374.4 Z"
         id="path122"
         inkscape:connector-curvature="0" /></clipPath><clipPath
       clipPathUnits="userSpaceOnUse"
       id="clipPath132"><path
         d="M 374.4,86.4 H 576 v 144 H 374.4 Z"
         id="path130"
         inkscape:connector-curvature="0" /></clipPath><clipPath
       clipPathUnits="userSpaceOnUse"
       id="clipPath142"><path
         d="M 288,0 H 576 V 252 H 288 Z"
         id="path140"
         inkscape:connector-curvature="0" /></clipPath><clipPath
       clipPathUnits="userSpaceOnUse"
       id="clipPath158"><path
         d="M 374.4,86.4 H 576 v 144 H 374.4 Z"
         id="path156"
         inkscape:connector-curvature="0" /></clipPath><clipPath
       clipPathUnits="userSpaceOnUse"
       id="clipPath204"><path
         d="M 662.4,86.4 H 864 v 144 H 662.4 Z"
         id="path202"
         inkscape:connector-curvature="0" /></clipPath><clipPath
       clipPathUnits="userSpaceOnUse"
       id="clipPath212"><path
         d="M 662.4,86.4 H 864 v 144 H 662.4 Z"
         id="path210"
         inkscape:connector-curvature="0" /></clipPath><clipPath
       clipPathUnits="userSpaceOnUse"
       id="clipPath222"><path
         d="M 576,0 H 864 V 252 H 576 Z"
         id="path220"
         inkscape:connector-curvature="0" /></clipPath><clipPath
       clipPathUnits="userSpaceOnUse"
       id="clipPath238"><path
         d="M 662.4,86.4 H 864 v 144 H 662.4 Z"
         id="path236"
         inkscape:connector-curvature="0" /></clipPath></defs><sodipodi:namedview
     pagecolor="#ffffff"
     bordercolor="#666666"
     borderopacity="1"
     objecttolerance="10"
     gridtolerance="10"
     guidetolerance="10"
     inkscape:pageopacity="0"
     inkscape:pageshadow="2"
     inkscape:window-width="1920"
     inkscape:window-height="1052"
     id="namedview4"
     showgrid="false"
     inkscape:zoom="0.32465278"
     inkscape:cx="-18.481283"
     inkscape:cy="168"
     inkscape:window-x="1920"
     inkscape:window-y="0"
     inkscape:window-maximized="1"
     inkscape:current-layer="g10" /><g
     id="g10"
     inkscape:groupmode="layer"
     inkscape:label="switchfuns"
     transform="matrix(1.3333333,0,0,-1.3333333,0,336)"><g
       id="g12" /><g
       id="g14"><g
         id="g16"
         clip-path="url(#clipPath20)"><path
           d="m 93.87,160.73 1.88,-0.04 1.89,-0.05 1.88,-0.05 1.89,-0.05 1.88,-0.04 1.89,-0.05 1.89,-0.05 1.88,-0.04 1.89,-0.05 1.88,-0.05 1.89,-0.05 1.88,-0.04 1.89,-0.05 1.88,-0.05 1.89,-0.04 1.89,-0.05 1.88,-0.05 1.89,-0.05 1.88,-0.04 1.89,-0.05 1.88,-0.05 1.89,-0.04 1.88,-0.05 1.89,-0.05 1.88,-0.05 1.89,-0.04 1.89,-0.05 1.88,-0.05 1.89,-0.04 1.88,-0.05 1.89,-0.05 1.88,-0.05 1.89,-0.04 1.88,-0.05 1.89,-0.05 1.89,-0.04 1.88,-0.05 1.89,-0.05 1.88,-0.05 1.89,-0.04 1.88,-0.05 1.89,-0.05 1.88,-0.04 1.89,-0.05 1.89,-0.05 1.88,-0.05 1.89,-0.04 1.88,-0.05 1.89,-0.05 1.88,-0.04 1.89,-0.05 1.88,-0.05 1.89,-0.04 1.88,-0.05 1.89,-0.05 1.89,-0.05 1.88,-0.04 1.89,-0.05 1.88,-0.05 1.89,-0.04 1.88,-0.05 1.89,-0.05 1.88,-0.05 1.89,-0.04 1.89,-0.05 1.88,-0.05 1.89,-0.04 1.88,-0.05 1.89,-0.05 1.88,-0.05 1.89,-0.04 1.88,-0.05 1.89,-0.05 1.89,-0.04 1.88,-0.05 1.89,-0.05 1.88,-0.05 1.89,-0.04 1.88,-0.05 1.89,-0.05 1.88,-0.04 1.89,-0.05 1.88,-0.05 1.89,-0.05 1.89,-0.04 1.88,-0.05 1.89,-0.05 1.88,-0.04 1.89,-0.05 1.88,-0.05 1.89,-0.05 1.88,-0.04 1.89,-0.05 1.89,-0.05 1.88,-0.04 1.89,-0.05 1.88,-0.05 1.89,-0.05 1.88,-0.04"
           style="fill:none;stroke:#000000;stroke-width:3;stroke-linecap:round;stroke-linejoin:round;stroke-miterlimit:10;stroke-dasharray:none;stroke-opacity:1"
           id="path22"
           inkscape:connector-curvature="0" /></g></g><g
       id="g24"><g
         id="g26"
         clip-path="url(#clipPath30)"><text
           transform="matrix(1,0,0,-1,175.69,4.32)"
           style="font-variant:normal;font-weight:normal;font-size:18px;font-family:Symbol;-inkscape-font-specification:Symbol;writing-mode:lr-tb;fill:#000000;fill-opacity:1;fill-rule:nonzero;stroke:none"
           id="text34"><tspan
             x="0"
             y="0"
             id="tspan32">∆</tspan></text>
<text
           transform="matrix(1,0,0,-1,186.7,4.32)"
           style="font-variant:normal;font-weight:normal;font-size:18px;font-family:Helvetica;-inkscape-font-specification:Helvetica;writing-mode:lr-tb;fill:#000000;fill-opacity:1;fill-rule:nonzero;stroke:none"
           id="text38"><tspan
             x="0"
             y="0"
             id="tspan36">E</tspan></text>
</g></g><g
       id="g40"><g
         id="g42"
         clip-path="url(#clipPath46)"><path
           d="M 86.4,158.4 H 288"
           style="fill:none;stroke:#ff0000;stroke-width:1.5;stroke-linecap:round;stroke-linejoin:round;stroke-miterlimit:10;stroke-dasharray:4.5, 7.5;stroke-dashoffset:0;stroke-opacity:1"
           id="path48"
           inkscape:connector-curvature="0" /><path
           d="m 187.2,86.4 v 144"
           style="fill:none;stroke:#ff0000;stroke-width:1.5;stroke-linecap:round;stroke-linejoin:round;stroke-miterlimit:10;stroke-dasharray:4.5, 7.5;stroke-dashoffset:0;stroke-opacity:1"
           id="path50"
           inkscape:connector-curvature="0" /></g></g><g
       id="g52"><path
         d="m 107.2,86.4 h 160"
         style="fill:none;stroke:#000000;stroke-width:1.5;stroke-linecap:round;stroke-linejoin:round;stroke-miterlimit:10;stroke-dasharray:none;stroke-opacity:1"
         id="path54"
         inkscape:connector-curvature="0" /><path
         d="M 107.2,86.4 V 75.6"
         style="fill:none;stroke:#000000;stroke-width:1.5;stroke-linecap:round;stroke-linejoin:round;stroke-miterlimit:10;stroke-dasharray:none;stroke-opacity:1"
         id="path56"
         inkscape:connector-curvature="0" /><path
         d="M 147.2,86.4 V 75.6"
         style="fill:none;stroke:#000000;stroke-width:1.5;stroke-linecap:round;stroke-linejoin:round;stroke-miterlimit:10;stroke-dasharray:none;stroke-opacity:1"
         id="path58"
         inkscape:connector-curvature="0" /><path
         d="M 187.2,86.4 V 75.6"
         style="fill:none;stroke:#000000;stroke-width:1.5;stroke-linecap:round;stroke-linejoin:round;stroke-miterlimit:10;stroke-dasharray:none;stroke-opacity:1"
         id="path60"
         inkscape:connector-curvature="0" /><path
         d="M 227.2,86.4 V 75.6"
         style="fill:none;stroke:#000000;stroke-width:1.5;stroke-linecap:round;stroke-linejoin:round;stroke-miterlimit:10;stroke-dasharray:none;stroke-opacity:1"
         id="path62"
         inkscape:connector-curvature="0" /><path
         d="M 267.2,86.4 V 75.6"
         style="fill:none;stroke:#000000;stroke-width:1.5;stroke-linecap:round;stroke-linejoin:round;stroke-miterlimit:10;stroke-dasharray:none;stroke-opacity:1"
         id="path64"
         inkscape:connector-curvature="0" /><text
         transform="matrix(1,0,0,-1,96.94,47.52)"
         style="font-variant:normal;font-weight:normal;font-size:18px;font-family:Helvetica;-inkscape-font-specification:Helvetica;writing-mode:lr-tb;fill:#000000;fill-opacity:1;fill-rule:nonzero;stroke:none"
         id="text68"><tspan
           x="0 10.512"
           y="0"
           sodipodi:role="line"
           id="tspan66">−6</tspan></text>
<text
         transform="matrix(1,0,0,-1,136.94,47.52)"
         style="font-variant:normal;font-weight:normal;font-size:18px;font-family:Helvetica;-inkscape-font-specification:Helvetica;writing-mode:lr-tb;fill:#000000;fill-opacity:1;fill-rule:nonzero;stroke:none"
         id="text72"><tspan
           x="0 10.512"
           y="0"
           sodipodi:role="line"
           id="tspan70">−3</tspan></text>
<text
         transform="matrix(1,0,0,-1,182.2,47.52)"
         style="font-variant:normal;font-weight:normal;font-size:18px;font-family:Helvetica;-inkscape-font-specification:Helvetica;writing-mode:lr-tb;fill:#000000;fill-opacity:1;fill-rule:nonzero;stroke:none"
         id="text76"><tspan
           x="0"
           y="0"
           id="tspan74">0</tspan></text>
<text
         transform="matrix(1,0,0,-1,222.2,47.52)"
         style="font-variant:normal;font-weight:normal;font-size:18px;font-family:Helvetica;-inkscape-font-specification:Helvetica;writing-mode:lr-tb;fill:#000000;fill-opacity:1;fill-rule:nonzero;stroke:none"
         id="text80"><tspan
           x="0"
           y="0"
           id="tspan78">3</tspan></text>
<text
         transform="matrix(1,0,0,-1,262.2,47.52)"
         style="font-variant:normal;font-weight:normal;font-size:18px;font-family:Helvetica;-inkscape-font-specification:Helvetica;writing-mode:lr-tb;fill:#000000;fill-opacity:1;fill-rule:nonzero;stroke:none"
         id="text84"><tspan
           x="0"
           y="0"
           id="tspan82">6</tspan></text>
<path
         d="M 86.4,91.73 V 225.07"
         style="fill:none;stroke:#000000;stroke-width:1.5;stroke-linecap:round;stroke-linejoin:round;stroke-miterlimit:10;stroke-dasharray:none;stroke-opacity:1"
         id="path86"
         inkscape:connector-curvature="0" /><path
         d="M 86.4,91.73 H 75.6"
         style="fill:none;stroke:#000000;stroke-width:1.5;stroke-linecap:round;stroke-linejoin:round;stroke-miterlimit:10;stroke-dasharray:none;stroke-opacity:1"
         id="path88"
         inkscape:connector-curvature="0" /><path
         d="M 86.4,158.4 H 75.6"
         style="fill:none;stroke:#000000;stroke-width:1.5;stroke-linecap:round;stroke-linejoin:round;stroke-miterlimit:10;stroke-dasharray:none;stroke-opacity:1"
         id="path90"
         inkscape:connector-curvature="0" /><path
         d="M 86.4,225.07 H 75.6"
         style="fill:none;stroke:#000000;stroke-width:1.5;stroke-linecap:round;stroke-linejoin:round;stroke-miterlimit:10;stroke-dasharray:none;stroke-opacity:1"
         id="path92"
         inkscape:connector-curvature="0" /><text
         transform="matrix(0,1,1,0,60.48,79.22)"
         style="font-variant:normal;font-weight:normal;font-size:18px;font-family:Helvetica;-inkscape-font-specification:Helvetica;writing-mode:lr-tb;fill:#000000;fill-opacity:1;fill-rule:nonzero;stroke:none"
         id="text96"><tspan
           x="0 10.008 15.012"
           y="0"
           sodipodi:role="line"
           id="tspan94">0.0</tspan></text>
<text
         transform="matrix(0,1,1,0,60.48,145.89)"
         style="font-variant:normal;font-weight:normal;font-size:18px;font-family:Helvetica;-inkscape-font-specification:Helvetica;writing-mode:lr-tb;fill:#000000;fill-opacity:1;fill-rule:nonzero;stroke:none"
         id="text100"><tspan
           x="0 10.008 15.012"
           y="0"
           sodipodi:role="line"
           id="tspan98">0.5</tspan></text>
<text
         transform="matrix(0,1,1,0,60.48,212.56)"
         style="font-variant:normal;font-weight:normal;font-size:18px;font-family:Helvetica;-inkscape-font-specification:Helvetica;writing-mode:lr-tb;fill:#000000;fill-opacity:1;fill-rule:nonzero;stroke:none"
         id="text104"><tspan
           x="0 10.008 15.012"
           y="0"
           sodipodi:role="line"
           id="tspan102">1.0</tspan></text>
</g><g
       id="g106"><g
         id="g108"
         clip-path="url(#clipPath112)"><text
           transform="matrix(0,1,1,0,17.28,149.9)"
           style="font-variant:normal;font-weight:normal;font-size:18px;font-family:Helvetica;-inkscape-font-specification:Helvetica;writing-mode:lr-tb;fill:#000000;fill-opacity:1;fill-rule:nonzero;stroke:none"
           id="text116"><tspan
             x="0"
             y="0"
             id="tspan114">W</tspan></text>
</g></g><g
       id="g118"><g
         id="g120"
         clip-path="url(#clipPath124)" /></g><g
       id="g126"><g
         id="g128"
         clip-path="url(#clipPath132)"><path
           d="m 381.87,224.95 1.88,-0.02 1.89,-0.02 1.88,-0.03 1.89,-0.03 1.88,-0.03 1.89,-0.04 1.89,-0.04 1.88,-0.05 1.89,-0.06 1.88,-0.06 1.89,-0.08 1.88,-0.08 1.89,-0.1 1.88,-0.12 1.89,-0.13 1.89,-0.15 1.88,-0.18 1.89,-0.2 1.88,-0.23 1.89,-0.26 1.88,-0.3 1.89,-0.35 1.88,-0.39 1.89,-0.46 1.88,-0.52 1.89,-0.59 1.89,-0.68 1.88,-0.77 1.89,-0.87 1.88,-1 1.89,-1.12 1.88,-1.28 1.89,-1.43 1.88,-1.61 1.89,-1.8 1.89,-2.01 1.88,-2.24 1.89,-2.47 1.88,-2.71 1.89,-2.97 1.88,-3.22 1.89,-3.48 1.88,-3.72 1.89,-3.96 1.89,-4.17 1.88,-4.35 1.89,-4.51 1.88,-4.62 1.89,-4.68 1.88,-4.72 1.89,-4.68 1.88,-4.62 1.89,-4.51 1.88,-4.35 1.89,-4.17 1.89,-3.96 1.88,-3.72 1.89,-3.48 1.88,-3.22 1.89,-2.97 1.88,-2.71 1.89,-2.47 1.88,-2.24 1.89,-2.01 1.89,-1.8 1.88,-1.61 1.89,-1.43 1.88,-1.28 1.89,-1.12 1.88,-1 1.89,-0.87 1.88,-0.77 1.89,-0.68 1.89,-0.59 1.88,-0.52 1.89,-0.46 1.88,-0.39 1.89,-0.35 1.88,-0.3 1.89,-0.26 1.88,-0.23 1.89,-0.2 1.88,-0.18 1.89,-0.15 1.89,-0.13 1.88,-0.12 1.89,-0.1 1.88,-0.08 1.89,-0.08 1.88,-0.06 1.89,-0.06 1.88,-0.05 1.89,-0.04 1.89,-0.04 1.88,-0.03 1.89,-0.03 1.88,-0.03 1.89,-0.02 1.88,-0.02"
           style="fill:none;stroke:#000000;stroke-width:3;stroke-linecap:round;stroke-linejoin:round;stroke-miterlimit:10;stroke-dasharray:none;stroke-opacity:1"
           id="path134"
           inkscape:connector-curvature="0" /></g></g><g
       id="g136"><g
         id="g138"
         clip-path="url(#clipPath142)"><text
           transform="matrix(1,0,0,-1,463.69,4.32)"
           style="font-variant:normal;font-weight:normal;font-size:18px;font-family:Symbol;-inkscape-font-specification:Symbol;writing-mode:lr-tb;fill:#000000;fill-opacity:1;fill-rule:nonzero;stroke:none"
           id="text146"><tspan
             x="0"
             y="0"
             id="tspan144">∆</tspan></text>
<text
           transform="matrix(1,0,0,-1,474.7,4.32)"
           style="font-variant:normal;font-weight:normal;font-size:18px;font-family:Helvetica;-inkscape-font-specification:Helvetica;writing-mode:lr-tb;fill:#000000;fill-opacity:1;fill-rule:nonzero;stroke:none"
           id="text150"><tspan
             x="0"
             y="0"
             id="tspan148">E</tspan></text>
</g></g><g
       id="g152"><g
         id="g154"
         clip-path="url(#clipPath158)"><path
           d="M 374.4,158.4 H 576"
           style="fill:none;stroke:#ff0000;stroke-width:1.5;stroke-linecap:round;stroke-linejoin:round;stroke-miterlimit:10;stroke-dasharray:4.5, 7.5;stroke-dashoffset:0;stroke-opacity:1"
           id="path160"
           inkscape:connector-curvature="0" /><path
           d="m 475.2,86.4 v 144"
           style="fill:none;stroke:#ff0000;stroke-width:1.5;stroke-linecap:round;stroke-linejoin:round;stroke-miterlimit:10;stroke-dasharray:4.5, 7.5;stroke-dashoffset:0;stroke-opacity:1"
           id="path162"
           inkscape:connector-curvature="0" /></g></g><g
       id="g164"><path
         d="m 395.2,86.4 h 160"
         style="fill:none;stroke:#000000;stroke-width:1.5;stroke-linecap:round;stroke-linejoin:round;stroke-miterlimit:10;stroke-dasharray:none;stroke-opacity:1"
         id="path166"
         inkscape:connector-curvature="0" /><path
         d="M 395.2,86.4 V 75.6"
         style="fill:none;stroke:#000000;stroke-width:1.5;stroke-linecap:round;stroke-linejoin:round;stroke-miterlimit:10;stroke-dasharray:none;stroke-opacity:1"
         id="path168"
         inkscape:connector-curvature="0" /><path
         d="M 435.2,86.4 V 75.6"
         style="fill:none;stroke:#000000;stroke-width:1.5;stroke-linecap:round;stroke-linejoin:round;stroke-miterlimit:10;stroke-dasharray:none;stroke-opacity:1"
         id="path170"
         inkscape:connector-curvature="0" /><path
         d="M 475.2,86.4 V 75.6"
         style="fill:none;stroke:#000000;stroke-width:1.5;stroke-linecap:round;stroke-linejoin:round;stroke-miterlimit:10;stroke-dasharray:none;stroke-opacity:1"
         id="path172"
         inkscape:connector-curvature="0" /><path
         d="M 515.2,86.4 V 75.6"
         style="fill:none;stroke:#000000;stroke-width:1.5;stroke-linecap:round;stroke-linejoin:round;stroke-miterlimit:10;stroke-dasharray:none;stroke-opacity:1"
         id="path174"
         inkscape:connector-curvature="0" /><path
         d="M 555.2,86.4 V 75.6"
         style="fill:none;stroke:#000000;stroke-width:1.5;stroke-linecap:round;stroke-linejoin:round;stroke-miterlimit:10;stroke-dasharray:none;stroke-opacity:1"
         id="path176"
         inkscape:connector-curvature="0" /><text
         transform="matrix(1,0,0,-1,384.94,47.52)"
         style="font-variant:normal;font-weight:normal;font-size:18px;font-family:Helvetica;-inkscape-font-specification:Helvetica;writing-mode:lr-tb;fill:#000000;fill-opacity:1;fill-rule:nonzero;stroke:none"
         id="text180"><tspan
           x="0 10.512"
           y="0"
           sodipodi:role="line"
           id="tspan178">−6</tspan></text>
<text
         transform="matrix(1,0,0,-1,424.94,47.52)"
         style="font-variant:normal;font-weight:normal;font-size:18px;font-family:Helvetica;-inkscape-font-specification:Helvetica;writing-mode:lr-tb;fill:#000000;fill-opacity:1;fill-rule:nonzero;stroke:none"
         id="text184"><tspan
           x="0 10.512"
           y="0"
           sodipodi:role="line"
           id="tspan182">−3</tspan></text>
<text
         transform="matrix(1,0,0,-1,470.2,47.52)"
         style="font-variant:normal;font-weight:normal;font-size:18px;font-family:Helvetica;-inkscape-font-specification:Helvetica;writing-mode:lr-tb;fill:#000000;fill-opacity:1;fill-rule:nonzero;stroke:none"
         id="text188"><tspan
           x="0"
           y="0"
           id="tspan186">0</tspan></text>
<text
         transform="matrix(1,0,0,-1,510.2,47.52)"
         style="font-variant:normal;font-weight:normal;font-size:18px;font-family:Helvetica;-inkscape-font-specification:Helvetica;writing-mode:lr-tb;fill:#000000;fill-opacity:1;fill-rule:nonzero;stroke:none"
         id="text192"><tspan
           x="0"
           y="0"
           id="tspan190">3</tspan></text>
<text
         transform="matrix(1,0,0,-1,550.2,47.52)"
         style="font-variant:normal;font-weight:normal;font-size:18px;font-family:Helvetica;-inkscape-font-specification:Helvetica;writing-mode:lr-tb;fill:#000000;fill-opacity:1;fill-rule:nonzero;stroke:none"
         id="text196"><tspan
           x="0"
           y="0"
           id="tspan194">6</tspan></text>
</g><g
       id="g198"><g
         id="g200"
         clip-path="url(#clipPath204)" /></g><g
       id="g206"><g
         id="g208"
         clip-path="url(#clipPath212)"><path
           d="m 669.87,225.07 h 1.88 1.89 1.88 1.89 1.88 1.89 1.89 1.88 1.89 1.88 1.89 1.88 1.89 1.88 1.89 1.89 1.88 1.89 1.88 1.89 1.88 1.89 1.88 1.89 1.88 1.89 1.89 1.88 1.89 1.88 1.89 1.88 1.89 1.88 1.89 1.89 1.88 1.89 1.88 1.89 1.88 1.89 1.88 1.89 1.89 1.88 1.89 1.88 l 1.89,-0.12 1.88,-133.1 1.89,-0.12 h 1.88 1.89 1.88 1.89 1.89 1.88 1.89 1.88 1.89 1.88 1.89 1.88 1.89 1.89 1.88 1.89 1.88 1.89 1.88 1.89 1.88 1.89 1.89 1.88 1.89 1.88 1.89 1.88 1.89 1.88 1.89 1.88 1.89 1.89 1.88 1.89 1.88 1.89 1.88 1.89 1.88 1.89 1.89 1.88 1.89 1.88 1.89 1.88"
           style="fill:none;stroke:#000000;stroke-width:3;stroke-linecap:round;stroke-linejoin:round;stroke-miterlimit:10;stroke-dasharray:none;stroke-opacity:1"
           id="path214"
           inkscape:connector-curvature="0" /></g></g><g
       id="g216"><g
         id="g218"
         clip-path="url(#clipPath222)"><text
           transform="matrix(1,0,0,-1,751.69,4.32)"
           style="font-variant:normal;font-weight:normal;font-size:18px;font-family:Symbol;-inkscape-font-specification:Symbol;writing-mode:lr-tb;fill:#000000;fill-opacity:1;fill-rule:nonzero;stroke:none"
           id="text226"><tspan
             x="0"
             y="0"
             id="tspan224">∆</tspan></text>
<text
           transform="matrix(1,0,0,-1,762.71,4.32)"
           style="font-variant:normal;font-weight:normal;font-size:18px;font-family:Helvetica;-inkscape-font-specification:Helvetica;writing-mode:lr-tb;fill:#000000;fill-opacity:1;fill-rule:nonzero;stroke:none"
           id="text230"><tspan
             x="0"
             y="0"
             id="tspan228">E</tspan></text>
</g></g><g
       id="g232"><g
         id="g234"
         clip-path="url(#clipPath238)"><path
           d="M 662.4,158.4 H 864"
           style="fill:none;stroke:#ff0000;stroke-width:1.5;stroke-linecap:round;stroke-linejoin:round;stroke-miterlimit:10;stroke-dasharray:4.5, 7.5;stroke-dashoffset:0;stroke-opacity:1"
           id="path240"
           inkscape:connector-curvature="0" /><path
           d="m 763.2,86.4 v 144"
           style="fill:none;stroke:#ff0000;stroke-width:1.5;stroke-linecap:round;stroke-linejoin:round;stroke-miterlimit:10;stroke-dasharray:4.5, 7.5;stroke-dashoffset:0;stroke-opacity:1"
           id="path242"
           inkscape:connector-curvature="0" /></g></g><g
       id="g244"><path
         d="m 683.2,86.4 h 160"
         style="fill:none;stroke:#000000;stroke-width:1.5;stroke-linecap:round;stroke-linejoin:round;stroke-miterlimit:10;stroke-dasharray:none;stroke-opacity:1"
         id="path246"
         inkscape:connector-curvature="0" /><path
         d="M 683.2,86.4 V 75.6"
         style="fill:none;stroke:#000000;stroke-width:1.5;stroke-linecap:round;stroke-linejoin:round;stroke-miterlimit:10;stroke-dasharray:none;stroke-opacity:1"
         id="path248"
         inkscape:connector-curvature="0" /><path
         d="M 723.2,86.4 V 75.6"
         style="fill:none;stroke:#000000;stroke-width:1.5;stroke-linecap:round;stroke-linejoin:round;stroke-miterlimit:10;stroke-dasharray:none;stroke-opacity:1"
         id="path250"
         inkscape:connector-curvature="0" /><path
         d="M 763.2,86.4 V 75.6"
         style="fill:none;stroke:#000000;stroke-width:1.5;stroke-linecap:round;stroke-linejoin:round;stroke-miterlimit:10;stroke-dasharray:none;stroke-opacity:1"
         id="path252"
         inkscape:connector-curvature="0" /><path
         d="M 803.2,86.4 V 75.6"
         style="fill:none;stroke:#000000;stroke-width:1.5;stroke-linecap:round;stroke-linejoin:round;stroke-miterlimit:10;stroke-dasharray:none;stroke-opacity:1"
         id="path254"
         inkscape:connector-curvature="0" /><path
         d="M 843.2,86.4 V 75.6"
         style="fill:none;stroke:#000000;stroke-width:1.5;stroke-linecap:round;stroke-linejoin:round;stroke-miterlimit:10;stroke-dasharray:none;stroke-opacity:1"
         id="path256"
         inkscape:connector-curvature="0" /><text
         transform="matrix(1,0,0,-1,672.94,47.52)"
         style="font-variant:normal;font-weight:normal;font-size:18px;font-family:Helvetica;-inkscape-font-specification:Helvetica;writing-mode:lr-tb;fill:#000000;fill-opacity:1;fill-rule:nonzero;stroke:none"
         id="text260"><tspan
           x="0 10.512"
           y="0"
           sodipodi:role="line"
           id="tspan258">−6</tspan></text>
<text
         transform="matrix(1,0,0,-1,712.94,47.52)"
         style="font-variant:normal;font-weight:normal;font-size:18px;font-family:Helvetica;-inkscape-font-specification:Helvetica;writing-mode:lr-tb;fill:#000000;fill-opacity:1;fill-rule:nonzero;stroke:none"
         id="text264"><tspan
           x="0 10.512"
           y="0"
           sodipodi:role="line"
           id="tspan262">−3</tspan></text>
<text
         transform="matrix(1,0,0,-1,758.2,47.52)"
         style="font-variant:normal;font-weight:normal;font-size:18px;font-family:Helvetica;-inkscape-font-specification:Helvetica;writing-mode:lr-tb;fill:#000000;fill-opacity:1;fill-rule:nonzero;stroke:none"
         id="text268"><tspan
           x="0"
           y="0"
           id="tspan266">0</tspan></text>
<text
         transform="matrix(1,0,0,-1,798.2,47.52)"
         style="font-variant:normal;font-weight:normal;font-size:18px;font-family:Helvetica;-inkscape-font-specification:Helvetica;writing-mode:lr-tb;fill:#000000;fill-opacity:1;fill-rule:nonzero;stroke:none"
         id="text272"><tspan
           x="0"
           y="0"
           id="tspan270">3</tspan></text>
<text
         transform="matrix(1,0,0,-1,838.2,47.52)"
         style="font-variant:normal;font-weight:normal;font-size:18px;font-family:Helvetica;-inkscape-font-specification:Helvetica;writing-mode:lr-tb;fill:#000000;fill-opacity:1;fill-rule:nonzero;stroke:none"
         id="text276"><tspan
           x="0"
           y="0"
           id="tspan274">6</tspan></text>
</g></g></svg>