<?xml version="1.0" encoding="UTF-8" standalone="no"?>
<!-- Created with Inkscape (http://www.inkscape.org/) -->

<svg
   xmlns:dc="http://purl.org/dc/elements/1.1/"
   xmlns:cc="http://creativecommons.org/ns#"
   xmlns:rdf="http://www.w3.org/1999/02/22-rdf-syntax-ns#"
   xmlns:svg="http://www.w3.org/2000/svg"
   xmlns="http://www.w3.org/2000/svg"
   xmlns:sodipodi="http://sodipodi.sourceforge.net/DTD/sodipodi-0.dtd"
   xmlns:inkscape="http://www.inkscape.org/namespaces/inkscape"
   width="59.049911mm"
   height="58.072453mm"
   viewBox="0 0 59.049911 58.072453"
   version="1.1"
   id="svg8"
   inkscape:version="0.92.3 (2405546, 2018-03-11)"
   sodipodi:docname="koffer.svg">
  <defs
     id="defs2" />
  <sodipodi:namedview
     id="base"
     pagecolor="#ffffff"
     bordercolor="#666666"
     borderopacity="1.0"
     inkscape:pageopacity="0.0"
     inkscape:pageshadow="2"
     inkscape:zoom="2.8"
     inkscape:cx="55.116597"
     inkscape:cy="133.65813"
     inkscape:document-units="mm"
     inkscape:current-layer="layer1"
     showgrid="false"
     inkscape:window-width="1667"
     inkscape:window-height="1385"
     inkscape:window-x="53"
     inkscape:window-y="27"
     inkscape:window-maximized="1" />
  <metadata
     id="metadata5">
    <rdf:RDF>
      <cc:Work
         rdf:about="">
        <dc:format>image/svg+xml</dc:format>
        <dc:type
           rdf:resource="http://purl.org/dc/dcmitype/StillImage" />
        <dc:title></dc:title>
      </cc:Work>
    </rdf:RDF>
  </metadata>
  <g
     inkscape:label="Layer 1"
     inkscape:groupmode="layer"
     id="layer1"
     transform="translate(-57.810138,-51.676481)">
    <rect
       style="opacity:1;fill:none;fill-opacity:1;stroke:#000000;stroke-width:1.94700003;stroke-miterlimit:4;stroke-dasharray:none;stroke-dashoffset:0;stroke-opacity:1"
       id="rect817-1"
       width="3.6081386"
       height="2.0045214"
       x="71.199654"
       y="106.62917" />
    <rect
       style="opacity:1;fill:none;fill-opacity:1;stroke:#000000;stroke-width:1.94700003;stroke-miterlimit:4;stroke-dasharray:none;stroke-dashoffset:0;stroke-opacity:1"
       id="rect817-6"
       width="3.6081386"
       height="2.0045214"
       x="101.22833"
       y="106.77091" />
    <path
       style="fill:none;stroke:#9e0000;stroke-width:0.26458332px;stroke-linecap:butt;stroke-linejoin:miter;stroke-opacity:1"
       d="m 91.006929,64.218278 1.611331,-3.981287 c 0.239473,-0.591692 0.551551,-1.013076 0.838013,-1.095077 m 0.381534,-0.147362 c 0.259006,-0.03992 0.307881,0.102159 0.307881,0.102159"
       id="path947-2"
       inkscape:connector-curvature="0"
       sodipodi:nodetypes="csccc" />
    <rect
       style="opacity:1;fill:none;fill-opacity:1;stroke:#000000;stroke-width:2.3470118;stroke-miterlimit:4;stroke-dasharray:none;stroke-dashoffset:0;stroke-opacity:1"
       id="rect884"
       width="12.589811"
       height="7.5930972"
       x="81.040192"
       y="65.348946"
       ry="1.8716413" />
    <rect
       style="opacity:1;fill:#ffffff;fill-opacity:1;stroke:#000000;stroke-width:1.94700003;stroke-miterlimit:4;stroke-dasharray:none;stroke-dashoffset:0;stroke-opacity:1"
       id="rect815"
       width="57.102913"
       height="34.364395"
       x="58.783638"
       y="72.278564"
       ry="7.4916186" />
    <rect
       style="opacity:1;fill:#000000;fill-opacity:1;stroke:#c5813f;stroke-width:1.37867153;stroke-miterlimit:4;stroke-dasharray:none;stroke-dashoffset:0;stroke-opacity:1"
       id="rect817-2"
       width="3.6081386"
       height="1.0050794"
       x="100.96106"
       y="70.218987" />
    <rect
       style="opacity:1;fill:#000000;fill-opacity:1;stroke:#c5813f;stroke-width:1.37867153;stroke-miterlimit:4;stroke-dasharray:none;stroke-dashoffset:0;stroke-opacity:1"
       id="rect817-2-6"
       width="3.6081386"
       height="1.0050794"
       x="70.425522"
       y="70.053352" />
    <text
       xml:space="preserve"
       style="font-style:normal;font-variant:normal;font-weight:normal;font-stretch:normal;font-size:4.23333311px;line-height:1.25;font-family:sans-serif;-inkscape-font-specification:'sans-serif, Normal';font-variant-ligatures:normal;font-variant-caps:normal;font-variant-numeric:normal;font-feature-settings:normal;text-align:start;letter-spacing:0px;word-spacing:0px;writing-mode:lr-tb;text-anchor:start;fill:#000000;fill-opacity:1;stroke:none;stroke-width:0.26458332"
       x="67.515625"
       y="92.167458"
       id="text888"
       transform="rotate(-21.781968)"
       inkscape:transform-center-x="-7.7957589"
       inkscape:transform-center-y="-2.031622"><tspan
         sodipodi:role="line"
         id="tspan886"
         x="67.515625"
         y="92.167458"
         style="stroke-width:0.26458332">KPCA</tspan></text>
    <path
       style="opacity:1;fill:#000000;fill-opacity:1;stroke:none;stroke-width:0.15137963;stroke-miterlimit:4;stroke-dasharray:none;stroke-dashoffset:0;stroke-opacity:1"
       id="path894"
       d="m 93.068717,58.556015 c 0.135998,-0.254917 0.335668,-0.489363 0.544504,-0.715807 0.209806,-0.227496 0.372806,-0.397732 0.612711,-0.617446 0.141916,-0.12997 0.29234,-0.255112 0.438511,-0.382668 0.48576,-0.409978 1.011844,-0.796788 1.594353,-1.139014 0.219252,-0.128814 0.446622,-0.25081 0.676412,-0.37028 0.60568,-0.314893 0.832331,-0.406664 1.465493,-0.692107 0.963368,-0.417927 1.997519,-0.749229 3.050169,-1.045179 0.40997,-0.115289 1.10768,-0.296657 1.51692,-0.404232 1.47533,-0.401918 2.92613,-0.853579 4.3062,-1.393218 0.69876,-0.119583 0.69876,-0.119583 0.69876,-0.119583 -0.27087,0.109869 -0.5387,0.223389 -0.81261,0.329585 -0.57976,0.224762 -1.13328,0.417836 -1.7322,0.617576 -0.45655,0.152261 -1.30458,0.423149 -1.77403,0.562288 -0.26907,0.07973 -0.54221,0.152891 -0.81331,0.229404 -0.26037,0.07008 -0.52046,0.140681 -0.78111,0.210305 -0.24473,0.06536 -0.49178,0.126731 -0.735,0.194712 -1.05013,0.293055 -2.081088,0.623516 -3.040936,1.039968 -0.629409,0.283937 -0.864092,0.378293 -1.463635,0.695111 -0.842426,0.445153 -1.609223,0.955599 -2.273531,1.532098 -0.421356,0.376283 -0.439047,0.377016 -0.805325,0.759144 -0.09101,0.09495 -0.177487,0.192115 -0.263465,0.289451 -0.06441,0.07292 -0.105672,0.157952 -0.187651,0.221268 -0.0554,0.04279 0.06694,-0.106588 0.105643,-0.157932 0.01636,-0.02171 -0.02564,0.04587 -0.03847,0.0688 l -0.287819,0.287673 z"
       inkscape:connector-curvature="0"
       sodipodi:nodetypes="csccccccccccccccccccccccccc" />
    <path
       style="opacity:1;fill:#000000;fill-opacity:1;stroke:none;stroke-width:0.15137963;stroke-miterlimit:4;stroke-dasharray:none;stroke-dashoffset:0;stroke-opacity:1"
       id="path894-6"
       d="m 96.467812,63.141589 c 0.135998,-0.254917 0.335668,-0.489363 0.544504,-0.715807 0.209806,-0.227496 0.372806,-0.397732 0.612711,-0.617446 0.141916,-0.12997 0.29234,-0.255112 0.438511,-0.382668 0.48576,-0.409978 1.011844,-0.796788 1.594353,-1.139014 0.219252,-0.128814 0.446619,-0.25081 0.676409,-0.37028 0.60568,-0.314893 0.83233,-0.406664 1.4655,-0.692107 0.96336,-0.417927 1.99752,-0.749229 3.05017,-1.045179 0.40997,-0.115289 1.10768,-0.296657 1.51692,-0.404232 1.47532,-0.401918 2.92612,-0.853579 4.30619,-1.393218 0.69876,-0.119583 0.69876,-0.119583 0.69876,-0.119583 -0.27087,0.109869 -0.5387,0.223389 -0.81261,0.329585 -0.57976,0.224762 -1.13328,0.417836 -1.7322,0.617576 -0.45655,0.152261 -1.30458,0.423149 -1.77403,0.562288 -0.26907,0.07973 -0.5422,0.152891 -0.8133,0.229404 -0.26037,0.07008 -0.52046,0.140681 -0.78111,0.210305 -0.24473,0.06536 -0.49178,0.126731 -0.735,0.194712 -1.05013,0.293055 -2.08109,0.623516 -3.04094,1.039968 -0.62941,0.283937 -0.86409,0.378293 -1.46364,0.695111 -0.842422,0.445153 -1.609219,0.955599 -2.273527,1.532098 -0.421356,0.376283 -0.439047,0.377016 -0.805325,0.759144 -0.09101,0.09495 -0.177487,0.192115 -0.263465,0.289451 -0.06441,0.07292 -0.105672,0.157952 -0.187651,0.221268 -0.0554,0.04279 0.06694,-0.106588 0.105643,-0.157932 0.01636,-0.02171 -0.02564,0.04587 -0.03847,0.0688 l -0.287819,0.287673 z"
       inkscape:connector-curvature="0"
       sodipodi:nodetypes="csccccccccccccccccccccccccc" />
    <path
       style="opacity:1;fill:#000000;fill-opacity:1;stroke:none;stroke-width:0.89999998;stroke-miterlimit:4;stroke-dasharray:none;stroke-dashoffset:0;stroke-opacity:1"
       id="path894-6-4"
       d="m 107.97275,51.676481 c 0.12595,0.04184 0.24179,0.103276 0.35367,0.167529 0.1124,0.06456 0.19652,0.114703 0.30507,0.188515 0.0642,0.04367 0.12605,0.08994 0.18907,0.134918 0.20257,0.149456 0.39369,0.311318 0.56277,0.49054 0.0636,0.06746 0.12393,0.137414 0.18296,0.208114 0.15558,0.186352 0.20093,0.256086 0.34196,0.450895 0.20649,0.2964 0.37018,0.614584 0.51641,0.938457 0.057,0.126137 0.14658,0.340804 0.19972,0.466716 0.19859,0.453917 0.42175,0.900289 0.68838,1.3249 0.0591,0.21499 0.0591,0.21499 0.0591,0.21499 -0.0543,-0.08334 -0.11037,-0.165744 -0.16284,-0.250018 -0.11105,-0.178377 -0.20645,-0.348681 -0.30514,-0.532952 -0.0752,-0.140468 -0.20907,-0.401385 -0.27782,-0.545822 -0.0394,-0.08279 -0.0755,-0.166821 -0.11334,-0.250231 -0.0346,-0.0801 -0.0695,-0.160132 -0.10391,-0.240327 -0.0323,-0.0753 -0.0626,-0.151307 -0.0962,-0.22614 -0.14479,-0.323097 -0.30807,-0.640296 -0.51384,-0.935616 -0.14028,-0.193653 -0.18691,-0.265858 -0.34344,-0.450324 -0.21994,-0.25919 -0.47215,-0.495114 -0.75699,-0.699504 -0.18592,-0.12964 -0.18628,-0.135083 -0.37508,-0.247777 -0.0469,-0.028 -0.0949,-0.05461 -0.14302,-0.08106 -0.036,-0.01981 -0.078,-0.03251 -0.10932,-0.05773 -0.0211,-0.01705 0.0527,0.0206 0.078,0.03251 0.0107,0.0051 -0.0227,-0.0079 -0.034,-0.01184 l -0.14213,-0.08855 z"
       inkscape:connector-curvature="0"
       sodipodi:nodetypes="csccccccccccccccccccccccccc" />
    <path
       style="opacity:1;fill:#000000;fill-opacity:1;stroke:none;stroke-width:0.90000004;stroke-miterlimit:4;stroke-dasharray:none;stroke-dashoffset:0;stroke-opacity:1"
       id="path894-6-4-1"
       d="m 93.339477,58.367489 c -0.0043,0.132636 0.01338,0.262581 0.03503,0.389772 0.02179,0.127797 0.03974,0.224044 0.07151,0.351411 0.01883,0.07535 0.04082,0.149347 0.06129,0.22404 0.07027,0.241732 0.156142,0.477002 0.265914,0.697588 0.04137,0.083 0.08613,0.163771 0.132087,0.243592 0.121137,0.210383 0.170907,0.277031 0.305,0.476679 0.206812,0.296174 0.448852,0.559708 0.702271,0.808828 0.09867,0.09707 0.269177,0.255292 0.368976,0.348659 0.357363,0.34318 0.699154,0.706809 1.005506,1.103714 0.181335,0.129734 0.181335,0.129734 0.181335,0.129734 -0.05941,-0.07973 -0.117406,-0.160834 -0.178369,-0.23919 -0.129022,-0.165834 -0.255888,-0.314199 -0.394718,-0.470473 -0.105841,-0.119099 -0.304437,-0.334863 -0.416233,-0.449281 -0.06409,-0.06558 -0.130465,-0.128483 -0.195666,-0.192809 -0.06321,-0.06014 -0.12626,-0.120538 -0.189635,-0.180539 -0.05951,-0.05632 -0.120366,-0.111025 -0.178982,-0.168403 -0.253184,-0.247498 -0.494435,-0.510305 -0.700483,-0.805431 -0.133273,-0.198547 -0.184918,-0.267249 -0.303954,-0.477872 -0.167247,-0.29594 -0.301509,-0.614126 -0.39491,-0.952039 -0.05742,-0.219259 -0.06241,-0.22148 -0.102942,-0.437587 -0.01007,-0.05369 -0.01845,-0.10792 -0.0267,-0.162232 -0.0061,-0.04062 -0.0036,-0.08443 -0.01638,-0.122524 -0.0087,-0.02567 0.0011,0.05657 0.0036,0.08443 9.55e-4,0.01176 3.11e-4,-0.02407 6.98e-4,-0.03598 l -0.03395,-0.163954 z"
       inkscape:connector-curvature="0"
       sodipodi:nodetypes="csccccccccccccccccccccccccc" />
    <path
       style="opacity:1;fill:none;fill-opacity:1;stroke:#000000;stroke-width:0.2;stroke-miterlimit:4;stroke-dasharray:none;stroke-dashoffset:0;stroke-opacity:1"
       id="path943"
       sodipodi:type="arc"
       sodipodi:cx="94.463074"
       sodipodi:cy="58.846146"
       sodipodi:rx="0.56794775"
       sodipodi:ry="0.55124336"
       sodipodi:start="0"
       sodipodi:end="6.2829061"
       sodipodi:open="true"
       d="m 95.031021,58.846146 a 0.56794775,0.55124336 0 0 1 -0.567908,0.551243 0.56794775,0.55124336 0 0 1 -0.567987,-0.551166 0.56794775,0.55124336 0 0 1 0.567829,-0.551321 0.56794775,0.55124336 0 0 1 0.568066,0.55109" />
    <path
       style="fill:none;stroke:#9e0000;stroke-width:0.26458332px;stroke-linecap:butt;stroke-linejoin:miter;stroke-opacity:1"
       d="m 91.30595,66.546848 -0.334086,-2.405425 c 0,0 0.972453,-2.175716 1.249999,-2.828424 0.54836,-1.289586 1.648717,-2.047229 1.865169,-2.180243 0.05866,-0.03605 0.07536,-0.117479 0.07536,-0.117479"
       id="path947"
       inkscape:connector-curvature="0"
       sodipodi:nodetypes="ccssc" />
    <text
       xml:space="preserve"
       style="font-style:normal;font-variant:normal;font-weight:normal;font-stretch:normal;font-size:4.23333311px;line-height:1.25;font-family:sans-serif;-inkscape-font-specification:'sans-serif, Normal';font-variant-ligatures:normal;font-variant-caps:normal;font-variant-numeric:normal;font-feature-settings:normal;text-align:start;letter-spacing:0px;word-spacing:0px;writing-mode:lr-tb;text-anchor:start;fill:#000000;fill-opacity:1;stroke:none;stroke-width:0.26458332"
       x="87.3125"
       y="97.901047"
       id="text975"><tspan
         sodipodi:role="line"
         x="87.3125"
         y="101.64655"
         style="font-style:normal;font-variant:normal;font-weight:normal;font-stretch:normal;font-size:4.23333311px;font-family:sans-serif;-inkscape-font-specification:'sans-serif, Normal';font-variant-ligatures:normal;font-variant-caps:normal;font-variant-numeric:normal;font-feature-settings:normal;text-align:center;writing-mode:lr-tb;text-anchor:middle;stroke-width:0.26458332"
         id="tspan995" /></text>
    <text
       xml:space="preserve"
       style="font-style:normal;font-variant:normal;font-weight:normal;font-stretch:normal;font-size:4.23333311px;line-height:1.25;font-family:sans-serif;-inkscape-font-specification:'sans-serif, Normal';font-variant-ligatures:normal;font-variant-caps:normal;font-variant-numeric:normal;font-feature-settings:normal;text-align:start;letter-spacing:0px;word-spacing:0px;writing-mode:lr-tb;text-anchor:start;fill:#000000;fill-opacity:1;stroke:none;stroke-width:0.26458332"
       x="87.595985"
       y="79.758186"
       id="text983"><tspan
         sodipodi:role="line"
         id="tspan981"
         x="87.595985"
         y="79.758186"
         style="font-style:normal;font-variant:normal;font-weight:normal;font-stretch:normal;font-size:4.23333311px;font-family:sans-serif;-inkscape-font-specification:'sans-serif, Normal';font-variant-ligatures:normal;font-variant-caps:normal;font-variant-numeric:normal;font-feature-settings:normal;text-align:center;writing-mode:lr-tb;text-anchor:middle;stroke-width:0.26458332">non-linear</tspan><tspan
         sodipodi:role="line"
         x="87.595985"
         y="85.04985"
         style="font-style:normal;font-variant:normal;font-weight:normal;font-stretch:normal;font-size:4.23333311px;font-family:sans-serif;-inkscape-font-specification:'sans-serif, Normal';font-variant-ligatures:normal;font-variant-caps:normal;font-variant-numeric:normal;font-feature-settings:normal;text-align:center;writing-mode:lr-tb;text-anchor:middle;stroke-width:0.26458332"
         id="tspan985">transformation</tspan><tspan
         sodipodi:role="line"
         x="87.595985"
         y="90.341522"
         style="font-style:normal;font-variant:normal;font-weight:normal;font-stretch:normal;font-size:4.23333311px;font-family:sans-serif;-inkscape-font-specification:'sans-serif, Normal';font-variant-ligatures:normal;font-variant-caps:normal;font-variant-numeric:normal;font-feature-settings:normal;text-align:center;writing-mode:lr-tb;text-anchor:middle;stroke-width:0.26458332"
         id="tspan997">+</tspan><tspan
         sodipodi:role="line"
         x="87.595985"
         y="95.633186"
         style="font-style:normal;font-variant:normal;font-weight:normal;font-stretch:normal;font-size:4.23333311px;font-family:sans-serif;-inkscape-font-specification:'sans-serif, Normal';font-variant-ligatures:normal;font-variant-caps:normal;font-variant-numeric:normal;font-feature-settings:normal;text-align:center;writing-mode:lr-tb;text-anchor:middle;stroke-width:0.26458332"
         id="tspan1001">standard linear</tspan><tspan
         sodipodi:role="line"
         x="87.595985"
         y="100.92485"
         style="font-style:normal;font-variant:normal;font-weight:normal;font-stretch:normal;font-size:4.23333311px;font-family:sans-serif;-inkscape-font-specification:'sans-serif, Normal';font-variant-ligatures:normal;font-variant-caps:normal;font-variant-numeric:normal;font-feature-settings:normal;text-align:center;writing-mode:lr-tb;text-anchor:middle;stroke-width:0.26458332"
         id="tspan1003">PCA</tspan></text>
  </g>
</svg>
