<?xml version="1.0" encoding="UTF-8" standalone="no"?>
<!-- Created with Inkscape (http://www.inkscape.org/) -->

<svg
   xmlns:dc="http://purl.org/dc/elements/1.1/"
   xmlns:cc="http://creativecommons.org/ns#"
   xmlns:rdf="http://www.w3.org/1999/02/22-rdf-syntax-ns#"
   xmlns:svg="http://www.w3.org/2000/svg"
   xmlns="http://www.w3.org/2000/svg"
   xmlns:sodipodi="http://sodipodi.sourceforge.net/DTD/sodipodi-0.dtd"
   xmlns:inkscape="http://www.inkscape.org/namespaces/inkscape"
   width="38.773064mm"
   height="10.802828mm"
   viewBox="0 0 38.773063 10.802828"
   version="1.1"
   id="svg8"
   inkscape:version="0.92.3 (2405546, 2018-03-11)"
   sodipodi:docname="telephone_masts.svg">
  <defs
     id="defs2" />
  <sodipodi:namedview
     id="base"
     pagecolor="#ffffff"
     bordercolor="#666666"
     borderopacity="1.0"
     inkscape:pageopacity="0.0"
     inkscape:pageshadow="2"
     inkscape:zoom="5.6"
     inkscape:cx="102.86264"
     inkscape:cy="29.787464"
     inkscape:document-units="mm"
     inkscape:current-layer="layer1"
     showgrid="false"
     inkscape:window-width="3387"
     inkscape:window-height="1385"
     inkscape:window-x="53"
     inkscape:window-y="27"
     inkscape:window-maximized="1" />
  <metadata
     id="metadata5">
    <rdf:RDF>
      <cc:Work
         rdf:about="">
        <dc:format>image/svg+xml</dc:format>
        <dc:type
           rdf:resource="http://purl.org/dc/dcmitype/StillImage" />
        <dc:title></dc:title>
      </cc:Work>
    </rdf:RDF>
  </metadata>
  <g
     inkscape:label="Layer 1"
     inkscape:groupmode="layer"
     id="layer1"
     transform="translate(-37.18325,-93.536026)">
    <g
       id="g927"
       transform="translate(0,5.1765689)">
      <path
         sodipodi:nodetypes="cc"
         inkscape:connector-curvature="0"
         id="path817"
         d="m 47.039437,90.667924 v 8.652847"
         style="fill:none;stroke:#000000;stroke-width:0.26458332px;stroke-linecap:butt;stroke-linejoin:miter;stroke-opacity:1" />
      <path
         sodipodi:nodetypes="cc"
         inkscape:connector-curvature="0"
         id="path817-1"
         d="m 43.072388,90.813986 h 7.934097"
         style="fill:none;stroke:#000000;stroke-width:0.26458332px;stroke-linecap:butt;stroke-linejoin:miter;stroke-opacity:1" />
      <path
         d="m 43.706146,90.388763 a 0.29169062,0.29169062 0 0 1 -0.29167,0.291691 0.29169062,0.29169062 0 0 1 -0.291711,-0.29165 0.29169062,0.29169062 0 0 1 0.291629,-0.291731 0.29169062,0.29169062 0 0 1 0.291752,0.291609"
         sodipodi:open="true"
         sodipodi:end="6.2829061"
         sodipodi:start="0"
         sodipodi:ry="0.29169062"
         sodipodi:rx="0.29169062"
         sodipodi:cy="90.388763"
         sodipodi:cx="43.414455"
         sodipodi:type="arc"
         id="path838"
         style="opacity:1;fill:#000000;fill-opacity:1;stroke:#0d0000;stroke-width:0.10075592;stroke-miterlimit:4;stroke-dasharray:none;stroke-dashoffset:0;stroke-opacity:1" />
      <path
         d="m 50.956108,90.388763 a 0.29169062,0.29169062 0 0 1 -0.29167,0.291691 0.29169062,0.29169062 0 0 1 -0.291711,-0.29165 0.29169062,0.29169062 0 0 1 0.291629,-0.291731 0.29169062,0.29169062 0 0 1 0.291752,0.291609"
         sodipodi:open="true"
         sodipodi:end="6.2829061"
         sodipodi:start="0"
         sodipodi:ry="0.29169062"
         sodipodi:rx="0.29169062"
         sodipodi:cy="90.388763"
         sodipodi:cx="50.664417"
         sodipodi:type="arc"
         id="path838-3"
         style="opacity:1;fill:#000000;fill-opacity:1;stroke:#0d0000;stroke-width:0.10075592;stroke-miterlimit:4;stroke-dasharray:none;stroke-dashoffset:0;stroke-opacity:1" />
      <path
         d="m 47.314293,90.388763 a 0.29169062,0.29169062 0 0 1 -0.291671,0.291691 0.29169062,0.29169062 0 0 1 -0.291711,-0.29165 0.29169062,0.29169062 0 0 1 0.29163,-0.291731 0.29169062,0.29169062 0 0 1 0.291752,0.291609"
         sodipodi:open="true"
         sodipodi:end="6.2829061"
         sodipodi:start="0"
         sodipodi:ry="0.29169062"
         sodipodi:rx="0.29169062"
         sodipodi:cy="90.388763"
         sodipodi:cx="47.022602"
         sodipodi:type="arc"
         id="path838-5"
         style="opacity:1;fill:#000000;fill-opacity:1;stroke:#0d0000;stroke-width:0.10075592;stroke-miterlimit:4;stroke-dasharray:none;stroke-dashoffset:0;stroke-opacity:1" />
    </g>
    <g
       id="g920"
       transform="translate(0,5.149926)">
      <path
         sodipodi:nodetypes="cc"
         inkscape:connector-curvature="0"
         id="path817-9"
         d="m 64.512183,90.694567 v 8.652848"
         style="fill:none;stroke:#000000;stroke-width:0.26458332px;stroke-linecap:butt;stroke-linejoin:miter;stroke-opacity:1" />
      <path
         sodipodi:nodetypes="cc"
         inkscape:connector-curvature="0"
         id="path817-1-4"
         d="m 60.545134,90.840629 h 7.934097"
         style="fill:none;stroke:#000000;stroke-width:0.26458332px;stroke-linecap:butt;stroke-linejoin:miter;stroke-opacity:1" />
      <path
         d="m 61.178894,90.415405 a 0.29169062,0.29169062 0 0 1 -0.29167,0.291691 0.29169062,0.29169062 0 0 1 -0.291711,-0.29165 0.29169062,0.29169062 0 0 1 0.291629,-0.291731 0.29169062,0.29169062 0 0 1 0.291752,0.291609"
         sodipodi:open="true"
         sodipodi:end="6.2829061"
         sodipodi:start="0"
         sodipodi:ry="0.29169062"
         sodipodi:rx="0.29169062"
         sodipodi:cy="90.415405"
         sodipodi:cx="60.887203"
         sodipodi:type="arc"
         id="path838-2"
         style="opacity:1;fill:#000000;fill-opacity:1;stroke:#0d0000;stroke-width:0.10075592;stroke-miterlimit:4;stroke-dasharray:none;stroke-dashoffset:0;stroke-opacity:1" />
      <path
         d="m 68.428852,90.415405 a 0.29169062,0.29169062 0 0 1 -0.29167,0.291691 0.29169062,0.29169062 0 0 1 -0.291711,-0.29165 0.29169062,0.29169062 0 0 1 0.291629,-0.291731 0.29169062,0.29169062 0 0 1 0.291752,0.291609"
         sodipodi:open="true"
         sodipodi:end="6.2829061"
         sodipodi:start="0"
         sodipodi:ry="0.29169062"
         sodipodi:rx="0.29169062"
         sodipodi:cy="90.415405"
         sodipodi:cx="68.137161"
         sodipodi:type="arc"
         id="path838-3-2"
         style="opacity:1;fill:#000000;fill-opacity:1;stroke:#0d0000;stroke-width:0.10075592;stroke-miterlimit:4;stroke-dasharray:none;stroke-dashoffset:0;stroke-opacity:1" />
      <path
         d="m 64.787037,90.415405 a 0.29169062,0.29169062 0 0 1 -0.291671,0.291691 0.29169062,0.29169062 0 0 1 -0.291711,-0.29165 0.29169062,0.29169062 0 0 1 0.29163,-0.291731 0.29169062,0.29169062 0 0 1 0.291752,0.291609"
         sodipodi:open="true"
         sodipodi:end="6.2829061"
         sodipodi:start="0"
         sodipodi:ry="0.29169062"
         sodipodi:rx="0.29169062"
         sodipodi:cy="90.415405"
         sodipodi:cx="64.495346"
         sodipodi:type="arc"
         id="path838-5-6"
         style="opacity:1;fill:#000000;fill-opacity:1;stroke:#0d0000;stroke-width:0.10075592;stroke-miterlimit:4;stroke-dasharray:none;stroke-dashoffset:0;stroke-opacity:1" />
    </g>
    <path
       style="fill:none;stroke:#000000;stroke-width:0.125;stroke-linecap:butt;stroke-linejoin:miter;stroke-miterlimit:4;stroke-dasharray:none;stroke-opacity:1"
       d="m 43.706146,95.565254 c 0,0 12.296146,3.883748 17.166236,-0.03974"
       id="path931"
       inkscape:connector-curvature="0"
       sodipodi:nodetypes="cc" />
    <path
       style="fill:none;stroke:#000000;stroke-width:0.125;stroke-linecap:butt;stroke-linejoin:miter;stroke-miterlimit:4;stroke-dasharray:none;stroke-opacity:1"
       d="m 50.956108,95.565254 c 0,0 12.602654,3.923487 17.472744,-10e-7"
       id="path931-4"
       inkscape:connector-curvature="0"
       sodipodi:nodetypes="cc" />
    <path
       style="fill:none;stroke:#000000;stroke-width:0.125;stroke-linecap:butt;stroke-linejoin:miter;stroke-miterlimit:4;stroke-dasharray:none;stroke-opacity:1"
       d="m 47.314293,95.565254 c 0,0 12.602654,3.923487 17.472744,-10e-7"
       id="path931-1"
       inkscape:connector-curvature="0"
       sodipodi:nodetypes="cc" />
    <path
       style="fill:none;stroke:#000000;stroke-width:0.125;stroke-linecap:butt;stroke-linejoin:miter;stroke-miterlimit:4;stroke-dasharray:none;stroke-opacity:1"
       d="m 26.007202,95.623966 c 0,0 12.296146,3.883748 17.166236,-0.03974"
       id="path931-2"
       inkscape:connector-curvature="0"
       sodipodi:nodetypes="cc" />
    <path
       style="fill:none;stroke:#000000;stroke-width:0.125;stroke-linecap:butt;stroke-linejoin:miter;stroke-miterlimit:4;stroke-dasharray:none;stroke-opacity:1"
       d="m 33.257164,95.623966 c 0,0 12.602654,3.923487 17.472744,-10e-7"
       id="path931-4-8"
       inkscape:connector-curvature="0"
       sodipodi:nodetypes="cc" />
    <path
       style="fill:none;stroke:#000000;stroke-width:0.125;stroke-linecap:butt;stroke-linejoin:miter;stroke-miterlimit:4;stroke-dasharray:none;stroke-opacity:1"
       d="m 29.615349,95.623966 c 0,0 12.602654,3.923487 17.472744,-10e-7"
       id="path931-1-8"
       inkscape:connector-curvature="0"
       sodipodi:nodetypes="cc" />
    <path
       style="fill:none;stroke:#000000;stroke-width:0.125;stroke-linecap:butt;stroke-linejoin:miter;stroke-miterlimit:4;stroke-dasharray:none;stroke-opacity:1"
       d="m 60.762136,95.581445 c 0,0 12.296146,3.883748 17.166236,-0.03974"
       id="path931-2-9"
       inkscape:connector-curvature="0"
       sodipodi:nodetypes="cc" />
    <path
       style="fill:none;stroke:#000000;stroke-width:0.125;stroke-linecap:butt;stroke-linejoin:miter;stroke-miterlimit:4;stroke-dasharray:none;stroke-opacity:1"
       d="m 68.012098,95.581445 c 0,0 12.602654,3.923487 17.472744,-10e-7"
       id="path931-4-8-2"
       inkscape:connector-curvature="0"
       sodipodi:nodetypes="cc" />
    <path
       style="fill:none;stroke:#000000;stroke-width:0.125;stroke-linecap:butt;stroke-linejoin:miter;stroke-miterlimit:4;stroke-dasharray:none;stroke-opacity:1"
       d="m 64.370283,95.581445 c 0,0 12.602654,3.923487 17.472744,-10e-7"
       id="path931-1-8-8"
       inkscape:connector-curvature="0"
       sodipodi:nodetypes="cc" />
  </g>
</svg>
