<?xml version="1.0" encoding="UTF-8" standalone="no"?>
<svg
   xmlns:dc="http://purl.org/dc/elements/1.1/"
   xmlns:cc="http://creativecommons.org/ns#"
   xmlns:rdf="http://www.w3.org/1999/02/22-rdf-syntax-ns#"
   xmlns:svg="http://www.w3.org/2000/svg"
   xmlns="http://www.w3.org/2000/svg"
   xmlns:sodipodi="http://sodipodi.sourceforge.net/DTD/sodipodi-0.dtd"
   xmlns:inkscape="http://www.inkscape.org/namespaces/inkscape"
   version="1.1"
   id="svg2"
   xml:space="preserve"
   width="507.82797"
   height="244.65068"
   viewBox="0 0 507.82797 244.65068"
   sodipodi:docname="section2_fig5_b_2_blue-red.svg"
   inkscape:version="1.0.2 (1.0.2+r75+1)"><metadata
     id="metadata8"><rdf:RDF><cc:Work
         rdf:about=""><dc:format>image/svg+xml</dc:format><dc:type
           rdf:resource="http://purl.org/dc/dcmitype/StillImage" /><dc:title></dc:title></cc:Work></rdf:RDF></metadata><defs
     id="defs6"><clipPath
       clipPathUnits="userSpaceOnUse"
       id="clipPath44"><path
         d="M 0,0 H 381 V 184 H 0 Z"
         id="path42" /></clipPath></defs><sodipodi:namedview
     pagecolor="#ffffff"
     bordercolor="#666666"
     borderopacity="1"
     objecttolerance="10"
     gridtolerance="10"
     guidetolerance="10"
     inkscape:pageopacity="0"
     inkscape:pageshadow="2"
     inkscape:window-width="1867"
     inkscape:window-height="1145"
     id="namedview4"
     showgrid="false"
     inkscape:zoom="2.8040992"
     inkscape:cx="253.91399"
     inkscape:cy="122.32534"
     inkscape:window-x="53"
     inkscape:window-y="27"
     inkscape:window-maximized="1"
     inkscape:current-layer="g12" /><g
     id="g10"
     inkscape:groupmode="layer"
     inkscape:label="section2_fig5_b_2_blue-red"
     transform="matrix(1.3333333,0,0,1.3333333,0,1.0116267e-5)"><g
       id="g12"><path
         d="m 370.039,92.824 c 0.141,-0.429 0.141,-0.476 0.141,-0.715 0,-0.523 -0.426,-0.808 -0.903,-0.808 -0.285,0 -0.761,0.191 -1.047,0.617 -0.05,0.191 -0.335,1.098 -0.429,1.668 -0.239,0.762 -0.43,1.617 -0.617,2.43 l -1.383,5.472 c -0.094,0.43 -1.43,2.571 -3.426,2.571 -1.523,0 -1.859,-1.332 -1.859,-2.473 0,-1.383 0.523,-3.285 1.523,-5.953 0.477,-1.238 0.621,-1.571 0.621,-2.192 0,-1.332 -0.953,-2.472 -2.476,-2.472 -2.907,0 -4,4.426 -4,4.664 0,0.332 0.285,0.332 0.332,0.332 0.336,0 0.336,-0.094 0.476,-0.57 0.86,-2.856 2.047,-3.762 3.098,-3.762 0.234,0 0.762,0 0.762,0.953 0,0.762 -0.336,1.57 -0.528,2.144 -1.234,3.235 -1.758,4.95 -1.758,6.379 0,2.711 1.903,3.618 3.711,3.618 1.192,0 2.192,-0.524 3.047,-1.383 -0.379,1.574 -0.762,3.097 -1.949,4.715 -0.813,1 -1.953,1.906 -3.336,1.906 -0.426,0 -1.809,-0.098 -2.332,-1.285 0.477,0 0.906,0 1.285,-0.383 0.336,-0.238 0.621,-0.668 0.621,-1.238 0,-0.954 -0.812,-1.047 -1.097,-1.047 -0.711,0 -1.711,0.476 -1.711,1.953 0,1.523 1.332,2.664 3.234,2.664 3.098,0 6.238,-2.762 7.094,-6.188 z"
         style="fill:#000000;fill-opacity:1;fill-rule:nonzero;stroke:none"
         id="path14" /><path
         d="m 380.871,105.09 h -0.711 c -0.051,0.476 -0.289,1.715 -0.574,1.902 -0.141,0.145 -1.762,0.145 -2.094,0.145 h -3.902 c 2.238,-1.953 3,-2.571 4.234,-3.571 1.574,-1.238 3.047,-2.57 3.047,-4.57 0,-2.57 -2.234,-4.144 -4.949,-4.144 -2.617,0 -4.43,1.859 -4.43,3.808 0,1.051 0.906,1.192 1.145,1.192 0.476,0 1.093,-0.379 1.093,-1.141 0,-0.383 -0.14,-1.145 -1.238,-1.145 0.668,-1.476 2.098,-1.953 3.098,-1.953 2.14,0 3.234,1.668 3.234,3.383 0,1.856 -1.332,3.285 -2,4.047 l -5.094,5.094 c -0.238,0.191 -0.238,0.238 -0.238,0.808 h 8.762 z"
         style="fill:#000000;fill-opacity:1;fill-rule:nonzero;stroke:none"
         id="path16" /><path
         d="m 227.062,156.848 h -0.71 c -0.051,0.472 -0.29,1.711 -0.571,1.906 -0.144,0.141 -1.765,0.141 -2.097,0.141 h -3.899 c 2.235,-1.954 3,-2.575 4.231,-3.575 1.574,-1.23 3.046,-2.566 3.046,-4.566 0,-2.57 -2.23,-4.145 -4.945,-4.145 -2.617,0 -4.433,1.86 -4.433,3.813 0,1.047 0.906,1.187 1.148,1.187 0.473,0 1.09,-0.382 1.09,-1.14 0,-0.379 -0.137,-1.145 -1.238,-1.145 0.668,-1.476 2.101,-1.953 3.101,-1.953 2.137,0 3.231,1.668 3.231,3.383 0,1.855 -1.332,3.281 -2,4.047 l -5.094,5.094 c -0.238,0.191 -0.238,0.238 -0.238,0.808 h 8.765 z"
         style="fill:#ff0000;fill-opacity:1;fill-rule:nonzero;stroke:none"
         id="path18" /><g
         id="g20"
         transform="scale(1,-1)"
         style="stroke:#0000ff;stroke-opacity:1"><path
           d="m 36.258,-43 161.68,-11.953"
           style="fill:none;stroke:#0000ff;stroke-width:1;stroke-linecap:butt;stroke-linejoin:miter;stroke-miterlimit:4;stroke-dasharray:none;stroke-opacity:1"
           id="path22" /></g><g
         id="g24"
         transform="scale(1,-1)"
         style="stroke:#0000ff;stroke-opacity:1"><path
           d="m 35.652,-69.605 162.286,14.652"
           style="fill:none;stroke:#0000ff;stroke-width:1;stroke-linecap:butt;stroke-linejoin:miter;stroke-miterlimit:4;stroke-dasharray:none;stroke-opacity:1"
           id="path26" /></g><g
         id="g28"
         transform="scale(1,-1)"
         style="stroke:#0000ff;stroke-opacity:1"><path
           d="M 197.938,-54.953 36.258,-174.82"
           style="fill:none;stroke:#0000ff;stroke-width:1;stroke-linecap:butt;stroke-linejoin:miter;stroke-miterlimit:4;stroke-dasharray:none;stroke-opacity:1"
           id="path30" /></g><g
         id="g32"
         transform="scale(1,-1)"><path
           d="m 36.082,-122.289 161.856,67.336"
           style="fill:none;stroke:#0000ff;stroke-width:1;stroke-linecap:butt;stroke-linejoin:miter;stroke-miterlimit:4;stroke-dasharray:none;stroke-opacity:1"
           id="path34" /></g><g
         id="g36"><g
           id="g38"><g
             id="g40"
             clip-path="url(#clipPath44)"><g
               id="g46"><g
                 id="g48"
                 transform="scale(1,-1)"><path
                   d="m 102.422,-89.926 c 2.422,0 4.383,-1.961 4.383,-4.383 0,-2.421 -1.961,-4.382 -4.383,-4.382 -2.422,0 -4.383,1.961 -4.383,4.382 0,2.422 1.961,4.383 4.383,4.383 z"
                   style="fill:none;stroke:#000000;stroke-width:1;stroke-linecap:butt;stroke-linejoin:miter;stroke-miterlimit:4;stroke-dasharray:1, 1;stroke-dashoffset:0;stroke-opacity:1"
                   id="path50" /></g><g
                 id="g52"
                 transform="scale(1,-1)"><path
                   d="m 103.176,-88.414 c 0,0 9.676,36.887 38.097,56.844 l 28.418,19.953"
                   style="fill:none;stroke:#000000;stroke-width:1;stroke-linecap:butt;stroke-linejoin:miter;stroke-miterlimit:4;stroke-dasharray:1, 1;stroke-dashoffset:0;stroke-opacity:1"
                   id="path54" /></g><g
                 id="g56"
                 transform="scale(1,-1)"><path
                   d="m 17.773,-134.125 v -30.789"
                   style="fill:none;stroke:#000000;stroke-width:1;stroke-linecap:butt;stroke-linejoin:miter;stroke-miterlimit:4;stroke-dasharray:1, 12;stroke-dashoffset:0;stroke-opacity:1"
                   id="path58" /></g><g
                 id="g60"
                 transform="scale(1,-1)"><path
                   d="m 17.773,-81.961 v -30.785"
                   style="fill:none;stroke:#000000;stroke-width:1;stroke-linecap:butt;stroke-linejoin:miter;stroke-miterlimit:4;stroke-dasharray:1, 12;stroke-dashoffset:0;stroke-opacity:1"
                   id="path62" /></g><g
                 id="g64"
                 transform="scale(1,-1)"><path
                   d="m 206.555,-46.336 c 4.757,0 8.617,-3.859 8.617,-8.617 0,-4.758 -3.86,-8.617 -8.617,-8.617 -4.758,0 -8.617,3.859 -8.617,8.617 0,4.758 3.859,8.617 8.617,8.617 z"
                   style="fill:none;stroke:#000000;stroke-width:1;stroke-linecap:butt;stroke-linejoin:miter;stroke-miterlimit:4;stroke-dasharray:none;stroke-opacity:1"
                   id="path66" /></g><g
                 id="g68"
                 transform="scale(1,-1)"><path
                   d="M 215.309,-54.539 H 350.457"
                   style="fill:none;stroke:#000000;stroke-width:1;stroke-linecap:butt;stroke-linejoin:miter;stroke-miterlimit:4;stroke-dasharray:none;stroke-opacity:1"
                   id="path70" /></g><path
                 d="m 369.824,47.211 v -0.059 h 0.031 V 47.031 L 369.887,47 v -0.09 l 0.027,-0.031 v -0.121 l 0.031,-0.028 v -0.21 c 0,-0.54 -0.422,-0.809 -0.871,-0.809 -0.301,0 -0.777,0.18 -1.051,0.629 -0.058,0.148 -0.3,1.078 -0.418,1.621 -0.21,0.777 -0.421,1.59 -0.601,2.367 l -1.352,5.371 c -0.117,0.449 -1.406,2.551 -3.386,2.551 -1.5,0 -1.832,-1.32 -1.832,-2.43 0,-1.379 0.511,-3.211 1.531,-5.851 0.48,-1.199 0.57,-1.528 0.57,-2.129 0,-1.352 -0.93,-2.461 -2.43,-2.461 -2.851,0 -3.96,4.351 -3.96,4.59 0,0.301 0.3,0.301 0.359,0.301 0.301,0 0.332,-0.059 0.48,-0.512 0.809,-2.817 2.012,-3.719 3.032,-3.719 0.238,0 0.75,0 0.75,0.961 0,0.75 -0.301,1.531 -0.512,2.098 -1.199,3.152 -1.738,4.863 -1.738,6.242 0,2.668 1.89,3.539 3.66,3.539 1.168,0 2.16,-0.508 3,-1.32 -0.391,1.531 -0.75,3 -1.922,4.589 -0.809,1.02 -1.918,1.86 -3.301,1.86 -0.418,0 -1.769,-0.09 -2.277,-1.227 0.48,0 0.867,0 1.289,-0.363 0.301,-0.27 0.597,-0.66 0.597,-1.227 0,-0.933 -0.808,-1.05 -1.109,-1.05 -0.687,0 -1.68,0.48 -1.68,1.949 0,1.469 1.321,2.578 3.18,2.578 3.063,0 6.152,-2.699 6.992,-6.09 z"
                 style="fill:#000000;fill-opacity:1;fill-rule:nonzero;stroke:none"
                 id="path72" /><path
                 d="m 376.965,49.789 v -0.301 l -0.031,-0.027 v -0.09 l -0.032,-0.031 v -0.031 l -0.058,-0.059 h -0.028 l -0.031,-0.031 h -0.121 l -0.027,-0.031 h -0.301 c -1.352,1.324 -3.242,1.351 -4.109,1.351 v 0.75 c 0.507,0 1.886,0 3.027,-0.601 V 61.34 c 0,0.691 0,0.961 -2.098,0.961 h -0.781 v 0.75 c 0.359,-0.031 2.941,-0.09 3.719,-0.09 0.66,0 3.301,0.059 3.75,0.09 v -0.75 h -0.778 c -2.101,0 -2.101,-0.27 -2.101,-0.961 z"
                 style="fill:#000000;fill-opacity:1;fill-rule:nonzero;stroke:none"
                 id="path74" /><g
                 id="g76"
                 transform="scale(1,-1)"><path
                   d="m 206.555,-93.316 c 4.757,0 8.617,-3.86 8.617,-8.618 0,-4.757 -3.86,-8.617 -8.617,-8.617 -4.758,0 -8.617,3.86 -8.617,8.617 0,4.758 3.859,8.618 8.617,8.618 z"
                   style="fill:none;stroke:#000000;stroke-width:1;stroke-linecap:butt;stroke-linejoin:miter;stroke-miterlimit:4;stroke-dasharray:none;stroke-opacity:1"
                   id="path78" /></g><g
                 id="g80"
                 transform="scale(1,-1)"><path
                   d="M 215.309,-101.52 H 350.457"
                   style="fill:none;stroke:#000000;stroke-width:1;stroke-linecap:butt;stroke-linejoin:miter;stroke-miterlimit:4;stroke-dasharray:none;stroke-opacity:1"
                   id="path82" /></g><g
                 id="g84"
                 transform="scale(1,-1)"><path
                   d="m 36.559,-42.695 161.379,-59.239"
                   style="fill:none;stroke:#f80000;stroke-width:1;stroke-linecap:butt;stroke-linejoin:miter;stroke-miterlimit:4;stroke-dasharray:none;stroke-opacity:1"
                   id="path86" /></g><g
                 id="g88"
                 transform="scale(1,-1)"><path
                   d="m 35.957,-69.301 161.981,-32.633"
                   style="fill:none;stroke:#f80000;stroke-width:1;stroke-linecap:butt;stroke-linejoin:miter;stroke-miterlimit:4;stroke-dasharray:none;stroke-opacity:1"
                   id="path90" /></g><g
                 id="g92"
                 transform="scale(1,-1)"><path
                   d="m 36.258,-121.91 161.68,19.976"
                   style="fill:none;stroke:#ff0000;stroke-width:1;stroke-linecap:butt;stroke-linejoin:miter;stroke-miterlimit:4;stroke-dasharray:none;stroke-opacity:1"
                   id="path94" /></g><g
                 id="g96"
                 transform="scale(1,-1)"><path
                   d="m 36.559,-174.215 161.379,72.281"
                   style="fill:none;stroke:#fb0000;stroke-width:1;stroke-linecap:butt;stroke-linejoin:miter;stroke-miterlimit:4;stroke-dasharray:none;stroke-opacity:1"
                   id="path98" /></g><path
                 d="m 191.234,2.852 0.059,-0.153 0.062,-0.117 0.059,-0.121 0.063,-0.121 0.058,-0.121 0.059,-0.117 0.062,-0.09 0.117,-0.18 0.09,-0.094 0.063,-0.058 0.148,-0.149 0.09,-0.062 0.063,-0.059 0.089,-0.058 0.09,-0.063 0.059,-0.059 0.09,-0.031 0.09,-0.027 0.089,-0.063 0.09,-0.027 0.18,-0.062 h 0.09 l 0.09,-0.032 h 0.089 l 0.09,-0.027 h 0.09 l 0.121,-0.031 h 0.18 V 0 c -0.66,0.059 -1.527,0.09 -2.188,0.09 -0.839,0 -2.191,-0.059 -2.761,-0.09 v 0.93 c 1.082,0.031 1.738,0.57 1.738,1.441 0,0.18 0,0.238 -0.148,0.629 l -2.731,7.621 -2.969,-8.312 c -0.121,-0.36 -0.152,-0.418 -0.152,-0.571 0,-0.808 1.172,-0.808 1.773,-0.808 V 0 c -0.871,0.031 -2.402,0.09 -3.121,0.09 -0.902,0 -1.769,-0.031 -2.64,-0.09 v 0.93 c 1.082,0 1.558,0.058 1.859,0.449 0.152,0.18 0.481,1.082 0.691,1.652 l -2.55,7.199 -2.852,-7.949 c -0.148,-0.359 -0.148,-0.422 -0.148,-0.543 0,-0.808 1.172,-0.808 1.769,-0.808 V 0 c -0.898,0.031 -2.578,0.09 -3.269,0.09 -0.121,0 -1.711,-0.031 -2.789,-0.09 v 0.93 c 1.5,0 1.859,0.09 2.218,1.05 l 3.782,10.559 c 0.148,0.422 0.238,0.633 0.629,0.633 0.39,0 0.421,-0.152 0.57,-0.57 l 3.031,-8.461 3.059,8.488 c 0.121,0.332 0.211,0.543 0.601,0.543 0.387,0 0.481,-0.242 0.598,-0.543 z"
                 style="fill:#0000ff;fill-opacity:1;fill-rule:nonzero;stroke:none"
                 id="path100" /><path
                 d="M 201.344,4.082 V 3.781 L 201.316,3.75 V 3.66 L 201.285,3.629 V 3.602 L 201.254,3.57 201.227,3.539 h -0.032 l -0.031,-0.027 h -0.121 L 201.016,3.48 h -0.301 c -1.348,1.321 -3.238,1.352 -4.11,1.352 v 0.75 c 0.512,0 1.891,0 3.032,-0.602 v 10.649 c 0,0.691 0,0.961 -2.102,0.961 h -0.781 v 0.75 c 0.363,-0.031 2.941,-0.09 3.723,-0.09 0.66,0 3.3,0.059 3.75,0.09 v -0.75 h -0.782 c -2.101,0 -2.101,-0.27 -2.101,-0.961 z"
                 style="fill:#0000ff;fill-opacity:1;fill-rule:nonzero;stroke:none"
                 id="path102" /><path
                 d="M 215.445,4.289 V 4.199 L 215.414,4.172 V 4.051 L 215.387,4.02 V 3.988 L 215.355,3.961 V 3.93 L 215.324,3.898 215.293,3.871 V 3.84 L 215.266,3.809 215.234,3.781 215.203,3.75 215.176,3.719 215.145,3.688 215.113,3.66 215.086,3.629 h -0.031 L 215.027,3.602 214.965,3.57 h -0.031 l -0.028,-0.031 h -0.09 l -0.058,-0.027 h -0.153 c -0.597,0 -1.171,0.57 -1.171,1.136 0,0.332 0.242,0.813 0.843,0.813 0.567,0 1.168,-0.57 1.168,-1.172 z"
                 style="fill:#0000ff;fill-opacity:1;fill-rule:nonzero;stroke:none"
                 id="path104" /><path
                 d="m 211.004,18.359 -0.059,0.121 -0.031,0.149 -0.027,0.121 -0.063,0.152 -0.058,0.118 -0.063,0.121 -0.058,0.121 -0.059,0.117 -0.063,0.121 -0.058,0.121 -0.09,0.09 -0.059,0.121 -0.089,0.117 -0.09,0.09 -0.094,0.09 -0.059,0.09 -0.089,0.09 -0.122,0.093 -0.089,0.09 -0.18,0.117 -0.117,0.063 -0.094,0.058 -0.117,0.059 -0.09,0.063 -0.121,0.027 -0.121,0.031 -0.09,0.031 -0.117,0.028 -0.121,0.031 h -0.243 c -0.269,0 -0.507,-0.031 -0.75,-0.121 0.543,-0.238 0.723,-0.75 0.723,-1.047 0,-0.512 -0.391,-0.781 -0.812,-0.781 -0.661,0 -1.2,0.57 -1.2,1.23 0,0.778 0.809,1.321 2.071,1.321 1.261,0 3.718,-0.75 4.379,-3.301 l 1.89,-7.469 c 0.063,-0.242 0.09,-0.422 0.09,-0.723 0,-1.168 -0.988,-1.98 -2.25,-1.98 -2.34,0 -3.66,2.91 -3.66,3.211 0,0.269 0.301,0.269 0.359,0.269 0.242,0 0.274,-0.058 0.422,-0.39 0.508,-1.199 1.621,-2.489 2.82,-2.489 0.54,0 0.719,0.36 0.719,1.02 0,0.211 -0.058,0.512 -0.058,0.629 z"
                 style="fill:#0000ff;fill-opacity:1;fill-rule:nonzero;stroke:none"
                 id="path106" /><path
                 d="m 215.488,145.602 0.059,-0.149 0.055,-0.121 0.066,-0.117 0.176,-0.363 0.121,-0.18 0.062,-0.09 0.301,-0.301 0.09,-0.058 0.055,-0.059 0.089,-0.062 0.094,-0.059 0.059,-0.059 0.176,-0.062 0.097,-0.059 0.09,-0.031 0.09,-0.027 0.09,-0.032 h 0.086 l 0.09,-0.031 h 0.093 l 0.09,-0.027 h 0.09 l 0.121,-0.031 h 0.18 v -0.93 c -0.664,0.058 -1.535,0.09 -2.196,0.09 -0.839,0 -2.187,-0.063 -2.761,-0.09 v 0.93 c 1.082,0.031 1.746,0.57 1.746,1.437 0,0.184 0,0.242 -0.156,0.633 l -2.723,7.617 -2.973,-8.309 c -0.117,-0.359 -0.148,-0.417 -0.148,-0.57 0,-0.808 1.168,-0.808 1.765,-0.808 v -0.93 c -0.867,0.027 -2.394,0.09 -3.117,0.09 -0.898,0 -1.773,-0.032 -2.644,-0.09 v 0.93 c 1.082,0 1.566,0.058 1.867,0.449 0.144,0.179 0.473,1.082 0.684,1.648 l -2.551,7.203 -2.844,-7.953 c -0.156,-0.359 -0.156,-0.418 -0.156,-0.539 0,-0.808 1.172,-0.808 1.777,-0.808 v -0.93 c -0.906,0.027 -2.582,0.09 -3.277,0.09 -0.117,0 -1.707,-0.032 -2.789,-0.09 v 0.93 c 1.5,0 1.863,0.089 2.226,1.05 l 3.774,10.559 c 0.156,0.422 0.246,0.629 0.629,0.629 0.394,0 0.421,-0.149 0.574,-0.57 l 3.031,-8.457 3.055,8.488 c 0.121,0.332 0.211,0.539 0.605,0.539 0.391,0 0.477,-0.238 0.602,-0.539 z"
                 style="fill:#ff0000;fill-opacity:1;fill-rule:nonzero;stroke:none"
                 id="path108" /><path
                 d="m 236.215,147.043 v -0.211 l -0.031,-0.027 v -0.032 l -0.028,-0.031 v -0.031 l -0.031,-0.027 v -0.032 l -0.09,-0.09 v -0.031 l -0.152,-0.148 h -0.055 l -0.031,-0.031 -0.035,-0.028 h -0.024 l -0.066,-0.031 h -0.086 l -0.035,-0.031 h -0.145 c -0.629,0 -1.199,0.57 -1.199,1.14 0,0.332 0.266,0.809 0.84,0.809 0.57,0 1.168,-0.57 1.168,-1.168 z"
                 style="fill:#ff0000;fill-opacity:1;fill-rule:nonzero;stroke:none"
                 id="path110" /><path
                 d="m 231.777,161.113 -0.031,0.121 -0.031,0.149 -0.059,0.121 -0.031,0.148 -0.117,0.243 -0.063,0.117 -0.117,0.242 -0.09,0.121 -0.066,0.09 -0.086,0.117 -0.059,0.121 -0.539,0.539 -0.097,0.063 -0.114,0.058 -0.093,0.059 -0.122,0.062 -0.089,0.059 -0.121,0.059 -0.09,0.031 -0.121,0.031 -0.114,0.027 -0.093,0.032 -0.122,0.031 h -0.234 c -0.277,0 -0.516,-0.031 -0.75,-0.121 0.539,-0.238 0.719,-0.75 0.719,-1.051 0,-0.508 -0.422,-0.777 -0.84,-0.777 -0.629,0 -1.172,0.57 -1.172,1.23 0,0.777 0.809,1.317 2.067,1.317 1.265,0 3.726,-0.75 4.355,-3.297 l 1.887,-7.473 c 0.062,-0.238 0.121,-0.418 0.121,-0.719 0,-1.172 -0.992,-1.98 -2.25,-1.98 -2.34,0 -3.664,2.91 -3.664,3.211 0,0.269 0.277,0.269 0.332,0.269 0.273,0 0.273,-0.058 0.418,-0.39 0.543,-1.2 1.621,-2.489 2.855,-2.489 0.512,0 0.719,0.36 0.719,1.02 0,0.211 -0.063,0.508 -0.09,0.629 z"
                 style="fill:#ff0000;fill-opacity:1;fill-rule:nonzero;stroke:none"
                 id="path112" /><path
                 d="m 13.32,39.566 0.18,-0.207 0.18,-0.242 0.179,-0.211 0.18,-0.238 0.359,-0.449 0.18,-0.242 0.211,-0.239 0.18,-0.211 0.152,-0.211 0.18,-0.207 0.179,-0.211 0.09,-0.089 0.059,-0.09 0.09,-0.121 0.09,-0.09 0.062,-0.059 0.059,-0.09 0.09,-0.089 0.058,-0.063 c 0.934,-1.078 2.16,-1.527 3.57,-1.559 v -0.929 c -0.777,0.058 -1.679,0.09 -2.457,0.09 -0.902,0 -2.492,-0.063 -2.882,-0.09 v 0.929 c 0.632,0.059 0.871,0.45 0.871,0.93 0,0.481 -0.301,0.871 -0.45,1.051 l -1.859,2.309 -2.312,-3 c -0.27,-0.301 -0.27,-0.36 -0.27,-0.54 0,-0.449 0.449,-0.718 1.051,-0.75 v -0.929 c -0.781,0.027 -2.762,0.09 -3.238,0.09 -0.633,0 -2.043,-0.032 -2.852,-0.09 v 0.929 c 2.102,0 2.129,0.032 3.539,1.829 l 2.941,3.839 -2.789,3.543 C 7.5,45.598 5.73,45.656 5.102,45.656 v 0.934 c 0.777,-0.094 1.707,-0.121 2.488,-0.121 0.871,0 2.129,0.09 2.851,0.121 V 45.656 C 9.781,45.566 9.57,45.18 9.57,44.727 c 0,-0.661 0.871,-1.649 2.668,-3.778 l 2.282,2.969 c 0.242,0.328 0.628,0.809 0.628,0.988 0,0.274 -0.269,0.723 -1.078,0.75 v 0.934 c 0.899,-0.031 2.578,-0.121 3.239,-0.121 0.812,0 1.98,0.027 2.882,0.121 v -0.934 c -1.621,0 -2.16,-0.058 -2.851,-0.929 z"
                 style="fill:#000000;fill-opacity:1;fill-rule:nonzero;stroke:none"
                 id="path114" /><path
                 d="m 27.539,37.797 v -0.359 h -0.027 v -0.09 H 27.48 V 37.285 H 27.449 V 37.258 H 27.391 L 27.359,37.227 H 27.238 V 37.195 H 26.91 c -1.32,1.321 -3.238,1.352 -4.109,1.352 v 0.75 c 0.511,0 1.89,0 3.058,-0.602 v 10.653 c 0,0.687 0,0.961 -2.097,0.961 h -0.813 v 0.75 c 0.391,-0.032 2.973,-0.09 3.75,-0.09 0.633,0 3.27,0.058 3.75,0.09 v -0.75 h -0.808 c -2.102,0 -2.102,-0.274 -2.102,-0.961 z"
                 style="fill:#000000;fill-opacity:1;fill-rule:nonzero;stroke:none"
                 id="path116" /><path
                 d="m 12.988,65.574 0.18,-0.211 0.184,-0.238 0.179,-0.211 0.18,-0.238 0.359,-0.449 0.18,-0.243 0.211,-0.238 0.18,-0.211 0.148,-0.211 0.18,-0.211 0.179,-0.207 0.09,-0.09 0.063,-0.089 0.09,-0.122 0.148,-0.148 0.063,-0.094 0.148,-0.148 c 0.93,-1.078 2.16,-1.531 3.57,-1.559 v -0.929 c -0.781,0.058 -1.679,0.089 -2.461,0.089 -0.898,0 -2.488,-0.062 -2.879,-0.089 v 0.929 c 0.629,0.059 0.872,0.449 0.872,0.93 0,0.48 -0.301,0.871 -0.454,1.051 l -1.859,2.308 -2.309,-3 c -0.269,-0.3 -0.269,-0.359 -0.269,-0.539 0,-0.449 0.449,-0.722 1.051,-0.75 v -0.929 c -0.782,0.027 -2.762,0.089 -3.242,0.089 -0.629,0 -2.04,-0.031 -2.852,-0.089 v 0.929 c 2.102,0 2.133,0.028 3.543,1.828 l 2.937,3.84 -2.789,3.539 C 7.168,71.605 5.398,71.664 4.77,71.664 v 0.93 c 0.781,-0.09 1.71,-0.117 2.492,-0.117 0.867,0 2.129,0.089 2.847,0.117 v -0.93 c -0.66,-0.09 -0.871,-0.48 -0.871,-0.93 0,-0.66 0.871,-1.648 2.672,-3.777 l 2.281,2.969 c 0.239,0.328 0.629,0.808 0.629,0.988 0,0.27 -0.269,0.723 -1.082,0.75 v 0.93 c 0.903,-0.028 2.582,-0.117 3.242,-0.117 0.809,0 1.981,0.027 2.879,0.117 v -0.93 c -1.621,0 -2.16,-0.059 -2.847,-0.93 z"
                 style="fill:#000000;fill-opacity:1;fill-rule:nonzero;stroke:none"
                 id="path118" /><path
                 d="m 30.781,73.254 h -0.722 c -0.059,0.48 -0.27,1.711 -0.539,1.922 -0.18,0.121 -1.77,0.121 -2.071,0.121 h -3.871 c 2.223,-1.953 2.942,-2.52 4.203,-3.512 1.559,-1.23 3,-2.519 3,-4.5 0,-2.519 -2.222,-4.082 -4.89,-4.082 -2.61,0 -4.379,1.832 -4.379,3.75 0,1.051 0.898,1.172 1.109,1.172 0.508,0 1.109,-0.359 1.109,-1.109 0,-0.391 -0.152,-1.11 -1.23,-1.11 0.66,-1.468 2.07,-1.953 3.059,-1.953 2.101,0 3.179,1.621 3.179,3.332 0,1.801 -1.289,3.242 -1.949,3.992 l -5.07,4.977 c -0.207,0.18 -0.207,0.211 -0.207,0.812 h 8.636 z"
                 style="fill:#000000;fill-opacity:1;fill-rule:nonzero;stroke:none"
                 id="path120" /><path
                 d="m 13.68,120.789 0.179,-0.211 0.18,-0.242 0.18,-0.207 0.179,-0.242 0.36,-0.449 0.183,-0.239 0.207,-0.242 0.18,-0.211 0.152,-0.207 0.36,-0.422 0.09,-0.09 0.058,-0.089 0.09,-0.122 0.09,-0.089 0.062,-0.059 0.059,-0.09 0.152,-0.152 c 0.93,-1.078 2.161,-1.528 3.567,-1.559 v -0.929 c -0.778,0.058 -1.68,0.089 -2.457,0.089 -0.903,0 -2.492,-0.058 -2.883,-0.089 v 0.929 c 0.633,0.059 0.871,0.449 0.871,0.93 0,0.48 -0.301,0.871 -0.449,1.051 l -1.86,2.308 -2.312,-3 c -0.27,-0.297 -0.27,-0.359 -0.27,-0.539 0,-0.449 0.454,-0.719 1.051,-0.75 v -0.929 c -0.781,0.031 -2.758,0.089 -3.238,0.089 -0.633,0 -2.043,-0.031 -2.852,-0.089 v 0.929 c 2.102,0 2.129,0.031 3.539,1.832 l 2.942,3.84 -2.789,3.539 c -1.442,1.738 -3.211,1.801 -3.84,1.801 v 0.93 c 0.777,-0.09 1.707,-0.121 2.488,-0.121 0.871,0 2.129,0.089 2.852,0.121 v -0.93 c -0.66,-0.09 -0.871,-0.481 -0.871,-0.93 0,-0.66 0.871,-1.652 2.672,-3.781 l 2.277,2.969 c 0.242,0.332 0.629,0.812 0.629,0.992 0,0.269 -0.27,0.719 -1.078,0.75 v 0.93 c 0.898,-0.032 2.578,-0.121 3.238,-0.121 0.812,0 1.98,0.031 2.883,0.121 v -0.93 c -1.621,0 -2.16,-0.063 -2.852,-0.93 z"
                 style="fill:#000000;fill-opacity:1;fill-rule:nonzero;stroke:none"
                 id="path122" /><path
                 d="m 30.09,119.227 v -0.118 l -0.031,-0.031 v -0.09 l -0.028,-0.031 v -0.031 L 30,118.898 v -0.031 l -0.059,-0.058 v -0.032 l -0.031,-0.031 -0.031,-0.027 -0.027,-0.031 -0.122,-0.122 h -0.031 l -0.031,-0.027 -0.059,-0.031 h -0.031 l -0.027,-0.031 h -0.09 l -0.059,-0.032 H 29.25 c -0.598,0 -1.172,0.575 -1.172,1.141 0,0.332 0.242,0.812 0.84,0.812 0.57,0 1.172,-0.57 1.172,-1.171 z"
                 style="fill:#000000;fill-opacity:1;fill-rule:nonzero;stroke:none"
                 id="path124" /><path
                 d="m 25.648,133.297 -0.027,0.121 -0.062,0.148 -0.028,0.122 -0.062,0.148 -0.117,0.242 -0.032,0.121 -0.09,0.121 -0.058,0.118 -0.063,0.121 -0.089,0.089 -0.059,0.118 -0.09,0.121 -0.09,0.09 -0.062,0.093 -0.09,0.086 -0.09,0.09 -0.117,0.094 -0.094,0.086 -0.09,0.062 -0.09,0.059 -0.117,0.058 -0.09,0.063 -0.121,0.059 -0.09,0.062 -0.121,0.027 -0.121,0.032 -0.09,0.031 -0.117,0.027 -0.121,0.032 h -0.211 c -0.301,0 -0.539,-0.032 -0.777,-0.118 0.539,-0.242 0.719,-0.75 0.719,-1.054 0,-0.508 -0.391,-0.778 -0.813,-0.778 -0.656,0 -1.199,0.571 -1.199,1.231 0,0.777 0.812,1.32 2.07,1.32 1.262,0 3.723,-0.75 4.379,-3.301 l 1.891,-7.472 c 0.062,-0.239 0.09,-0.418 0.09,-0.719 0,-1.168 -0.989,-1.977 -2.25,-1.977 -2.309,0 -3.661,2.907 -3.661,3.207 0,0.27 0.301,0.27 0.364,0.27 0.238,0 0.269,-0.059 0.418,-0.391 0.511,-1.199 1.621,-2.488 2.82,-2.488 0.539,0 0.719,0.359 0.719,1.02 0,0.21 -0.028,0.511 -0.059,0.632 z"
                 style="fill:#000000;fill-opacity:1;fill-rule:nonzero;stroke:none"
                 id="path126" /><path
                 d="m 8.219,172 0.179,-0.211 0.18,-0.238 0.184,-0.211 0.179,-0.238 0.36,-0.454 0.179,-0.238 0.211,-0.238 0.18,-0.211 0.149,-0.211 0.179,-0.211 0.18,-0.207 0.09,-0.094 0.062,-0.09 0.09,-0.117 0.09,-0.09 0.059,-0.062 0.058,-0.09 0.09,-0.09 0.062,-0.058 c 0.93,-1.082 2.161,-1.532 3.571,-1.559 v -0.934 c -0.781,0.063 -1.68,0.09 -2.461,0.09 -0.899,0 -2.488,-0.058 -2.879,-0.09 v 0.934 c 0.629,0.059 0.867,0.449 0.867,0.93 0,0.476 -0.297,0.867 -0.449,1.047 l -1.859,2.312 -2.309,-3 c -0.27,-0.301 -0.27,-0.359 -0.27,-0.539 0,-0.453 0.45,-0.723 1.047,-0.75 v -0.934 c -0.777,0.032 -2.758,0.09 -3.238,0.09 -0.629,0 -2.039,-0.027 -2.852,-0.09 v 0.934 c 2.102,0 2.133,0.027 3.543,1.828 l 2.938,3.84 -2.789,3.539 C 2.398,178.031 0.629,178.09 0,178.09 v 0.93 c 0.781,-0.09 1.711,-0.122 2.488,-0.122 0.871,0 2.133,0.09 2.852,0.122 v -0.93 C 4.68,178 4.469,177.609 4.469,177.16 c 0,-0.66 0.871,-1.648 2.672,-3.781 l 2.277,2.973 c 0.242,0.328 0.633,0.808 0.633,0.988 0,0.269 -0.27,0.719 -1.082,0.75 v 0.93 c 0.902,-0.032 2.582,-0.122 3.242,-0.122 0.809,0 1.98,0.032 2.879,0.122 v -0.93 c -1.621,0 -2.16,-0.059 -2.848,-0.93 z"
                 style="fill:#000000;fill-opacity:1;fill-rule:nonzero;stroke:none"
                 id="path128" /><path
                 d="m 32.91,171.52 0.031,-0.149 0.059,-0.152 0.031,-0.059 0.028,-0.09 0.031,-0.058 0.031,-0.063 0.027,-0.058 0.032,-0.059 0.031,-0.094 0.059,-0.058 0.031,-0.059 0.058,-0.031 0.063,-0.059 0.058,-0.062 0.059,-0.059 0.063,-0.031 0.058,-0.059 0.09,-0.031 0.09,-0.059 0.09,-0.031 0.09,-0.027 0.089,-0.031 0.121,-0.032 0.09,-0.027 0.121,-0.031 0.118,-0.031 h 0.273 l 0.09,-0.032 h 0.207 c 0.121,0 0.422,-0.027 0.422,-0.449 0,-0.117 -0.09,-0.301 -0.301,-0.301 -0.691,0 -1.469,0.094 -2.191,0.094 -0.508,0 -1.707,-0.094 -2.219,-0.094 -0.121,0 -0.418,0 -0.418,0.453 0,0.27 0.269,0.297 0.449,0.297 0.988,0.032 1.348,0.332 1.348,0.871 0,0.153 -0.028,0.27 -0.09,0.481 l -2.277,9.09 -5.34,-10.828 c -0.153,-0.364 -0.211,-0.364 -0.692,-0.364 h -2.879 c -0.39,0 -0.691,0 -0.691,0.453 0,0.297 0.27,0.297 0.719,0.297 0.422,0 0.902,0.032 1.32,0.121 L 19.5,181.27 c -0.211,0.781 -0.539,1.41 -2.191,1.468 -0.149,0 -0.45,0.032 -0.45,0.422 0,0.238 0.18,0.328 0.332,0.328 0.688,0 1.469,-0.09 2.188,-0.09 0.48,0 1.711,0.09 2.223,0.09 0.207,0 0.418,-0.117 0.418,-0.449 0,-0.269 -0.27,-0.301 -0.481,-0.301 -1.348,-0.058 -1.348,-0.597 -1.348,-0.867 0,-0.09 0,-0.211 0.09,-0.539 l 2.699,-10.684 6.122,12.481 c 0.148,0.332 0.238,0.359 0.449,0.359 0.328,0 0.328,-0.058 0.449,-0.449 z"
                 style="fill:#000000;fill-opacity:1;fill-rule:nonzero;stroke:none"
                 id="path130" /><g
                 id="g132"
                 transform="scale(1,-1)"><path
                   d="m 99.328,-118.25 c -2.266,0 -4.101,1.898 -4.101,4.234 0,2.34 1.835,4.235 4.101,4.235 2.266,0 4.106,-1.895 4.106,-4.235 0,-2.336 -1.84,-4.234 -4.106,-4.234 z"
                   style="fill:none;stroke:#000000;stroke-width:1;stroke-linecap:butt;stroke-linejoin:miter;stroke-miterlimit:4;stroke-dasharray:1, 1;stroke-dashoffset:0;stroke-opacity:1"
                   id="path134" /></g><g
                 id="g136"
                 transform="scale(1,-1)"><path
                   d="m 191.266,-149.086 c 0.015,0.008 -61.914,6.504 -84.086,26.344 l -5.063,4.531"
                   style="fill:none;stroke:#000000;stroke-width:1;stroke-linecap:butt;stroke-linejoin:miter;stroke-miterlimit:4;stroke-dasharray:1, 1;stroke-dashoffset:0;stroke-opacity:1"
                   id="path138" /></g></g></g></g></g></g></g></svg>
