<?xml version="1.0" encoding="UTF-8" standalone="no"?>
<svg
   xmlns:dc="http://purl.org/dc/elements/1.1/"
   xmlns:cc="http://creativecommons.org/ns#"
   xmlns:rdf="http://www.w3.org/1999/02/22-rdf-syntax-ns#"
   xmlns:svg="http://www.w3.org/2000/svg"
   xmlns="http://www.w3.org/2000/svg"
   xmlns:sodipodi="http://sodipodi.sourceforge.net/DTD/sodipodi-0.dtd"
   xmlns:inkscape="http://www.inkscape.org/namespaces/inkscape"
   version="1.1"
   x="0"
   y="0"
   width="219.70457"
   height="248.70255"
   viewBox="0 0 219.70457 248.70255"
   id="svg227"
   sodipodi:docname="smart_cookie.svg"
   inkscape:version="1.0.2 (1.0.2+r75+1)">
  <metadata
     id="metadata231">
    <rdf:RDF>
      <cc:Work
         rdf:about="">
        <dc:format>image/svg+xml</dc:format>
        <dc:type
           rdf:resource="http://purl.org/dc/dcmitype/StillImage" />
        <dc:title></dc:title>
      </cc:Work>
    </rdf:RDF>
  </metadata>
  <sodipodi:namedview
     pagecolor="#ffffff"
     bordercolor="#666666"
     borderopacity="1"
     objecttolerance="10"
     gridtolerance="10"
     guidetolerance="10"
     inkscape:pageopacity="0"
     inkscape:pageshadow="2"
     inkscape:window-width="1867"
     inkscape:window-height="1145"
     id="namedview229"
     showgrid="false"
     inkscape:zoom="1.8298969"
     inkscape:cx="98.955"
     inkscape:cy="153.53955"
     inkscape:window-x="53"
     inkscape:window-y="27"
     inkscape:window-maximized="1"
     inkscape:current-layer="svg227" />
  <defs
     id="defs74">
    <clipPath
       id="Clip_1">
      <path
         d="m 12.945,3.967 h 185.08 V 192.164 H 12.945 Z"
         id="path2" />
    </clipPath>
    <clipPath
       id="Clip_2">
      <path
         d="m 10.735,11.091 h 176.19 V 191.315 H 10.735 Z"
         id="path5" />
    </clipPath>
    <clipPath
       id="Clip_3">
      <path
         d="m 2.045,9.388 h 196.31 v 175.93 H 2.045 Z"
         id="path8" />
    </clipPath>
    <clipPath
       id="Clip_4">
      <path
         d="m 14.135,11.996 h 175.55 V 188.041 H 14.135 Z"
         id="path11" />
    </clipPath>
    <clipPath
       id="Clip_5">
      <path
         d="m 22.125,16.124 h 165.23 V 184.456 H 22.125 Z"
         id="path14" />
    </clipPath>
    <clipPath
       id="Clip_6">
      <path
         d="m 7.335,12.366 h 176.18 V 178.73 H 7.335 Z"
         id="path17" />
    </clipPath>
    <clipPath
       id="Clip_7">
      <path
         d="m 22.725,16.105 h 158.69 V 181.771 H 22.725 Z"
         id="path20" />
    </clipPath>
    <clipPath
       id="Clip_8">
      <path
         d="m 25.235,15.539 h 160.87 V 181.15 H 25.235 Z"
         id="path23" />
    </clipPath>
    <clipPath
       id="Clip_9">
      <path
         d="m 18.535,16.067 h 152.48 V 176.065 H 18.535 Z"
         id="path26" />
    </clipPath>
    <clipPath
       id="Clip_10">
      <path
         d="m 26.515,23.013 h 147.35 V 172.78 H 26.515 Z"
         id="path29" />
    </clipPath>
    <clipPath
       id="Clip_11">
      <path
         d="m 28.565,20.985 h 151.43 V 174.964 H 28.565 Z"
         id="path32" />
    </clipPath>
    <clipPath
       id="Clip_12">
      <path
         d="m 28.635,20.579 h 140.45 V 167.473 H 28.635 Z"
         id="path35" />
    </clipPath>
    <clipPath
       id="Clip_13">
      <path
         d="m 19.245,25.059 h 161.64 V 169.914 H 19.245 Z"
         id="path38" />
    </clipPath>
    <clipPath
       id="Clip_14">
      <path
         d="m 28.555,26.543 h 146.1 v 146.513 h -146.1 z"
         id="path41" />
    </clipPath>
    <clipPath
       id="Clip_15">
      <path
         d="m 34.595,29.323 h 139.04 V 170.97 H 34.595 Z"
         id="path44" />
    </clipPath>
    <clipPath
       id="Clip_16">
      <path
         d="m 21.375,25.44 h 149.94 V 167.027 H 21.375 Z"
         id="path47" />
    </clipPath>
    <clipPath
       id="Clip_17">
      <path
         d="m 33.815,27.905 h 136.64 V 170.552 H 33.815 Z"
         id="path50" />
    </clipPath>
    <clipPath
       id="Clip_18">
      <path
         d="m 35.315,26.66 h 140.18 V 170.984 H 35.315 Z"
         id="path53" />
    </clipPath>
    <clipPath
       id="Clip_19">
      <path
         d="m 28.695,26.332 h 134.54 V 167.501 H 28.695 Z"
         id="path56" />
    </clipPath>
    <clipPath
       id="Clip_20">
      <path
         d="m 35.025,31.713 h 131.68 V 165.55 H 35.025 Z"
         id="path59" />
    </clipPath>
    <clipPath
       id="Clip_21">
      <path
         d="m 36.125,29.091 h 137.11 V 168.513 H 36.125 Z"
         id="path62" />
    </clipPath>
    <clipPath
       id="Clip_22">
      <path
         d="m 35.425,27.869 h 128.91 V 162.69 H 35.425 Z"
         id="path65" />
    </clipPath>
    <clipPath
       id="Clip_23">
      <path
         d="m 32.265,32.412 h 134.08 V 161.52 H 32.265 Z"
         id="path68" />
    </clipPath>
    <clipPath
       id="Clip_24">
      <path
         d="m 2.045,3.967 h 196.31 V 192.164 H 2.045 Z"
         id="path71" />
    </clipPath>
  </defs>
  <g
     id="レイヤー_3"
     transform="translate(-2.045,56.539551)" />
  <g
     id="レイヤー_1"
     transform="translate(-2.045,56.539551)">
    <g
       clip-path="url(#Clip_24)"
       id="g169">
      <g
         clip-path="url(#Clip_1)"
         id="g79">
        <path
           d="m 197.99,94.027 c 0.479,11.11 -4.073,21.277 -7.993,31.001 -3.943,9.781 -7.62,20.187 -14.995,28.223 -7.047,7.68 -17.13,12.436 -26.398,18.216 -8.936,5.573 -17.545,12.603 -27.732,16.136 -10.1,3.503 -21.01,3.325 -31.557,4.56 -7.476,-1.909 -16.941,-2.862 -25.789,-7.78 -7.561,-4.204 -13.632,-11.638 -20.568,-17.887 -6.677,-6.014 -14.765,-11.247 -19.5,-19.028 -4.642,-7.629 -5.556,-16.991 -7.06,-26.199 -1.37,-8.384 -3.844,-17.085 -1.615,-26.684 C 11.21,85.418 13.571,76.364 15.744,67.41 17.847,58.741 19.888,49.232 25.851,41.556 31.387,34.427 40.124,29.8 47.738,24.175 55.276,18.606 62.223,11.605 70.623,8.119 79.685,4.359 89.442,4.571 98.096,3.966 c 9.416,0.371 19.259,0.088 28.229,3.888 8.58,3.635 15.473,10.939 23.136,16.95 7.432,5.83 16.18,10.688 22.288,18.063 6.151,7.426 9.289,16.944 13.637,25.246 4.578,8.743 10.552,16.988 12.604,25.914"
           fill="#bf7721"
           id="path77" />
      </g>
      <g
         clip-path="url(#Clip_2)"
         id="g83">
        <path
           d="m 185.66,96.83 c 2.672,9.532 0.137,18.668 -1.761,27.644 -1.926,9.11 -3.5,18.788 -8.839,26.695 -5.217,7.729 -13.687,12.976 -20.934,18.957 -7.429,6.132 -14.23,13.415 -22.497,17.081 -9.268,4.11 -19.114,3.947 -27.688,4.108 -10.468,-1.203 -20.597,-0.746 -29.38,-3.643 C 64.557,184.373 56.813,177.706 49.091,172.564 40.437,166.8 31.459,161.885 25.808,154.308 19.792,146.241 17.854,136.179 15.412,126.676 13.008,117.324 9.78,107.744 11.006,97.615 10.013,87.791 13.31,79.047 15.375,70.77 17.677,61.539 19.334,52.205 24.588,45.046 30.021,37.644 38.582,33.274 46.198,28.257 53.801,23.248 61.163,17.098 69.955,14.64 c 8.837,-2.471 18.448,-1.022 27.488,-0.742 10.337,-1.275 20.211,-3.768 29.196,-2.418 10.252,1.541 18.678,7.13 26.696,11.577 8.843,4.905 17.891,9.496 23.372,17.241 5.534,7.819 6.799,17.847 8.215,27.813 1.279,9.005 3.361,18.545 0.738,28.719"
           fill="#c07924"
           id="path81" />
      </g>
      <g
         clip-path="url(#Clip_3)"
         id="g87">
        <path
           d="m 198.359,95.897 c -3.307,9.343 -9.304,17.713 -13.296,26.249 -4.233,9.051 -6.76,18.826 -12.292,26.42 -5.787,7.944 -14.245,13.129 -22.062,18.846 -7.493,5.48 -14.939,12.078 -24.858,14.93 -8.511,2.447 -18.439,1.283 -29.112,1.405 -10.253,0.934 -19.851,2.722 -28.33,0.513 -9.433,-2.457 -16.684,-8.986 -24.073,-14.7 C 37.074,163.945 28.893,158.663 23.454,150.539 18.423,143.027 16.421,133.382 12.825,124.244 9.487,115.764 4.243,107.235 2.041,97.77 3.218,88.435 8.345,79.921 12.167,71.495 16.017,63.008 18.872,53.722 24.776,46.551 30.73,39.32 39.339,34.72 46.737,29.23 c 7.614,-5.65 14.57,-12.514 23.019,-15.884 8.9,-3.55 18.593,-3.214 27.615,-3.73 9.379,-0.136 19.304,-1.043 28.619,2.052 8.919,2.964 16.479,9.588 24.563,15.025 7.89,5.308 16.894,9.747 23.273,16.96 6.352,7.183 9.643,16.62 13.797,25.252 4.139,8.6 9.469,17.388 10.736,26.992"
           fill="#c27c26"
           id="path85" />
      </g>
      <g
         clip-path="url(#Clip_4)"
         id="g91">
        <path
           d="m 189.611,102.589 c 0.666,9.468 -3.432,18.249 -6.983,26.795 -3.44,8.277 -6.553,17.377 -13.137,24.384 -6.099,6.492 -14.975,10.404 -23.111,15.474 -7.645,4.764 -14.942,11.103 -23.84,14.34 -8.568,3.117 -18.056,2.999 -27.303,4.46 -8.919,-1.064 -17.785,-0.952 -25.525,-4.286 -8.134,-3.505 -14.235,-10.268 -20.792,-15.71 -6.783,-5.629 -14.511,-10.447 -19.3,-17.513 -4.956,-7.312 -6.493,-16.302 -8.973,-24.448 -2.571,-8.44 -6.202,-16.661 -5.738,-25.212 -1.942,-9.446 0.261,-18.629 1.359,-27.357 1.187,-9.428 1.655,-19.025 5.915,-26.881 4.436,-8.18 12.303,-13.693 19.525,-19.324 7.093,-5.529 14.313,-11.859 23.561,-14.107 8.408,-2.044 17.907,-0.058 27.681,1.255 10.711,-1.443 20.722,-3.613 29.56,-1.729 10.042,2.141 17.877,8.534 25.612,14.296 7.677,5.719 16.074,11.337 21.594,19.919 5.069,7.881 6.982,17.923 10.324,27.652 3.066,8.926 7.887,17.95 9.571,27.992"
           fill="#c37e29"
           id="path89" />
      </g>
      <g
         clip-path="url(#Clip_5)"
         id="g95">
        <path
           d="m 187.343,93.628 c -0.389,10.606 -4.222,20.201 -6.643,29.352 -2.701,10.205 -4.454,20.423 -9.804,28.413 -5.602,8.368 -14.393,13.656 -23.044,19.113 -7.95,5.015 -16.305,10.973 -26.947,13.133 -8.984,1.822 -19.173,0.093 -30.15,-0.37 -8.408,0.132 -16.946,0.895 -24.34,-2.265 -7.382,-3.154 -12.754,-9.853 -18.622,-15.828 -5.487,-5.586 -12.211,-10.885 -15.95,-18.548 -3.407,-6.984 -3.66,-15.537 -5.29,-23.949 -1.477,-7.62 -4.63,-15.524 -4.404,-24.094 -0.308,-8.45 2.877,-16.606 4.59,-24.648 1.776,-8.345 2.306,-17.144 6.18,-24.331 4.037,-7.49 11.107,-12.621 17.335,-18.043 6.197,-5.394 12.273,-11.691 20.549,-14.221 7.447,-2.276 16.047,-0.79 25.11,-0.12 9.338,-0.165 18.547,-1.703 26.864,0.175 9.074,2.049 16.576,7.541 24.073,11.693 8.057,4.462 16.628,8.118 22.413,14.597 5.991,6.71 8.535,15.642 11.577,24.05 2.946,8.144 6.804,16.592 6.503,25.891"
           fill="#c4802c"
           id="path93" />
      </g>
      <g
         clip-path="url(#Clip_6)"
         id="g99">
        <path
           d="m 183.304,100.726 c -1.256,7.956 -6.096,15.378 -9.649,23.2 -3.412,7.515 -5.701,16.026 -10.827,22.659 -5.16,6.677 -12.803,11.009 -19.296,16.039 -6.754,5.233 -12.979,11.494 -20.726,14.106 -7.913,2.67 -16.633,1.372 -25.1,0.409 -8.346,1.224 -17.376,2.739 -25.94,0.254 -8.073,-2.34 -15.015,-8.308 -22.408,-13.079 -7.27,-4.694 -15.563,-8.502 -21.361,-14.742 -6.113,-6.579 -9.187,-15.159 -12.743,-22.55 -4.012,-8.34 -8.403,-16.561 -7.878,-24.671 2.239,-9.433 7.342,-17.64 10.656,-25.845 3.633,-8.995 5.785,-18.353 10.778,-25.691 5.373,-7.896 13.338,-13.146 20.371,-18.896 7.103,-5.807 13.867,-12.547 22.754,-15.922 8.22,-3.122 17.702,-2.789 27.524,-3.63 8.025,0.198 17.369,0.16 26.263,4.131 7.778,3.473 14.3,10.295 21.508,16.037 6.936,5.525 15.078,10.275 20.44,17.378 5.462,7.236 7.707,16.277 10.463,24.616 2.799,8.468 6.292,17.154 5.171,26.197"
           fill="#c6822e"
           id="path97" />
      </g>
      <g
         clip-path="url(#Clip_7)"
         id="g103">
        <path
           d="m 180.789,100.258 c 1.969,8.432 -1.072,16.947 -3.841,25.461 -2.575,7.919 -4.854,16.749 -10.483,23.802 -5.31,6.654 -13.385,11 -20.54,16.1 -7.12,5.075 -13.858,11.301 -21.968,14.088 -8.384,2.881 -17.327,2.019 -25.863,1.642 -7.712,-1.492 -16.004,-1.849 -23.239,-5.454 -7.069,-3.522 -12.45,-9.962 -18.51,-15.242 -5.976,-5.207 -13.11,-9.637 -17.577,-16.307 -4.387,-6.552 -5.783,-14.775 -8.213,-22.504 -2.325,-7.396 -5.963,-14.723 -6.049,-22.99 -2.762,-8.882 -1.54,-17.295 -1.334,-24.876 0.244,-9.008 0.152,-17.657 3.833,-24.713 3.881,-7.441 11.23,-12.254 17.998,-17.384 6.458,-4.896 12.921,-10.8 21.155,-13.463 7.729,-2.5 16.45,-1.653 25.032,-2.08 9.766,0.045 19.157,-1.068 27.518,1.209 9.287,2.529 16.686,8.491 24.046,13.365 7.809,5.17 16.1,9.828 21.504,17.138 5.403,7.308 7.436,16.621 10.192,25.553 2.624,8.501 6.328,17.137 6.339,26.655"
           fill="#c78531"
           id="path101" />
      </g>
      <g
         clip-path="url(#Clip_8)"
         id="g107">
        <path
           d="m 186.101,99.611 c -0.709,8.906 -5.311,17.095 -8.972,25.108 -3.645,7.977 -6.622,16.672 -12.47,23.368 -5.797,6.638 -14.048,10.812 -21.305,15.803 -7.37,5.068 -14.245,11.257 -22.389,14.226 -8.533,3.11 -17.636,2.683 -26.191,3.034 -8.025,-1.12 -16.417,-1.258 -23.746,-4.754 C 63.756,172.926 58.286,166.43 52.313,160.854 46.482,155.41 39.589,150.443 35.572,143.21 31.766,136.357 31.076,127.946 29.396,119.676 27.864,112.139 24.994,104.334 25.611,95.765 24.305,87.898 26.729,80.177 28.101,72.582 29.494,64.871 30.027,56.664 33.91,49.854 37.738,43.141 44.501,38.482 50.487,33.248 56.212,28.241 61.64,22.083 69.106,18.965 76,16.086 84.07,16.379 92.263,15.54 c 9.947,0.374 19.185,-0.413 27.204,2.055 9.256,2.847 16.27,9.042 23.301,14.183 7.43,5.432 15.363,10.358 20.735,17.739 5.266,7.234 7.625,16.412 11.33,24.922 3.578,8.218 8.767,16.306 11.268,25.172"
           fill="#c98733"
           id="path105" />
      </g>
      <g
         clip-path="url(#Clip_9)"
         id="g111">
        <path
           d="m 170.446,98.571 c -0.122,8.828 -3.368,16.651 -5.234,24.184 -2.099,8.469 -3.23,16.981 -7.567,23.634 -4.522,6.936 -11.876,11.257 -18.871,16.009 -6.443,4.378 -12.995,9.841 -21.57,12.191 -7.367,2.019 -15.859,1.002 -24.82,1.41 -8.407,0.047 -16.869,0.59 -24.357,-2.484 -7.506,-3.082 -13.231,-9.49 -19.376,-15.089 -5.934,-5.408 -12.892,-10.41 -17.154,-17.596 -4.099,-6.912 -5.237,-15.404 -7.431,-23.452 -2.113,-7.754 -5.509,-15.75 -5.534,-24.106 1.871,-7.599 6.857,-14.824 10.54,-22.493 3.501,-7.291 5.841,-15.608 10.858,-22.187 4.995,-6.548 12.341,-10.964 18.721,-16.061 6.43,-5.137 12.414,-11.32 20.132,-14.223 7.476,-2.811 15.83,-2.176 24.403,-2.187 7.729,1.468 15.957,1.716 23.169,5.038 7.245,3.338 12.834,9.493 18.847,14.54 6.124,5.139 13.144,9.646 17.244,16.387 4.053,6.664 4.819,14.854 6.162,22.915 1.226,7.356 3.448,15.184 1.838,23.57"
           fill="#ca8936"
           id="path109" />
      </g>
      <g
         clip-path="url(#Clip_10)"
         id="g115">
        <path
           d="m 172.84,95.291 c 2.151,8.471 0.394,16.478 -0.504,23.855 -1.015,8.335 -1.702,16.62 -5.762,23.244 -4.214,6.876 -11.44,11.238 -17.948,15.903 -6.484,4.647 -12.91,10.104 -20.675,12.187 -7.714,2.069 -16.12,0.572 -24.12,-0.255 -8.89,1.024 -17.139,3.254 -24.486,2.339 -8.88,-1.105 -15.959,-5.64 -22.562,-9.162 -7.54,-4.022 -15.039,-7.84 -19.574,-14.379 -4.521,-6.521 -5.509,-14.963 -7.004,-23.315 -1.356,-7.573 -3.687,-15.483 -2.524,-24.036 -2.381,-8.655 -0.577,-16.958 0.602,-24.833 1.268,-8.466 2.342,-17.118 6.9,-24.084 4.551,-6.954 12.11,-11.467 19.09,-16.308 6.775,-4.698 13.572,-10.267 21.847,-12.4 7.922,-2.043 16.616,-0.568 25.216,0.247 8.363,-0.541 16.25,-2.117 23.102,-0.454 7.896,1.917 13.858,7.187 19.769,11.579 6.133,4.556 12.837,8.832 16.859,15.519 3.8,6.316 4.61,14.314 6.551,22.06 1.785,7.127 4.992,14.327 5.223,22.293"
           fill="#cb8b39"
           id="path113" />
      </g>
      <g
         clip-path="url(#Clip_11)"
         id="g119">
        <path
           d="m 179.966,94.67 c 0.392,9.09 -3.332,17.409 -6.539,25.365 -3.226,8.002 -6.235,16.516 -12.269,23.091 -5.766,6.284 -14.015,10.175 -21.599,14.904 -7.311,4.559 -14.355,10.311 -22.689,13.202 -8.264,2.866 -17.19,2.721 -25.82,3.732 -6.116,-1.563 -13.861,-2.342 -21.1,-6.367 -6.186,-3.439 -11.153,-9.521 -16.828,-14.633 -5.463,-4.922 -12.081,-9.203 -15.955,-15.569 -3.798,-6.242 -4.545,-13.903 -5.776,-21.436 C 30.27,110.1 28.246,102.981 30.07,95.127 27.146,87.626 29.078,80.218 30.855,72.893 32.577,65.8 34.247,58.02 39.125,51.739 43.655,45.906 50.803,42.12 57.033,37.518 63.2,32.962 68.884,27.234 75.757,24.382 c 7.414,-3.077 15.397,-2.903 22.478,-3.398 7.704,0.304 15.757,0.072 23.096,3.181 7.02,2.974 12.66,8.95 18.93,13.868 6.08,4.77 13.238,8.744 18.235,14.779 5.032,6.076 7.6,13.863 11.157,20.655 3.746,7.154 8.634,13.9 10.313,21.203"
           fill="#cd8e3b"
           id="path117" />
      </g>
      <g
         clip-path="url(#Clip_12)"
         id="g123">
        <path
           d="m 169.088,94.621 c -0.19,7.7 -3.627,14.903 -5.917,21.976 -2.362,7.297 -3.823,15.079 -7.989,21.244 -4.311,6.377 -11.035,10.585 -16.801,15.24 -5.995,4.841 -11.624,10.463 -18.66,12.867 -7.142,2.44 -14.984,1.382 -22.634,0.703 -7.483,0.062 -15.253,1.142 -22.317,-0.831 -7.282,-2.034 -13.302,-7.013 -19.428,-10.886 -6.456,-4.081 -13.502,-7.535 -17.852,-13.284 -4.526,-5.982 -5.767,-13.6 -7.079,-20.962 -1.227,-6.88 -2.975,-14.104 -0.591,-21.823 -2.012,-8.001 -0.363,-15.467 0.397,-22.577 0.843,-7.894 1.221,-15.806 4.798,-22.338 3.681,-6.722 10.261,-11.317 16.063,-16.3 5.76,-4.947 11.259,-10.772 18.34,-13.711 7.047,-2.925 14.922,-2.715 22.519,-3.359 8.431,1.368 16.389,1.103 23.173,3.367 8.136,2.715 14.215,7.977 20.226,11.901 6.957,4.542 14.029,8.322 18.523,14.358 4.626,6.216 6.17,14.158 8.627,21.813 2.276,7.091 5.816,14.398 6.602,22.602"
           fill="#ce903e"
           id="path121" />
      </g>
      <g
         clip-path="url(#Clip_13)"
         id="g127">
        <path
           d="m 180.886,96.288 c -2.723,7.692 -7.661,14.584 -10.948,21.613 -3.485,7.452 -5.566,15.5 -10.12,21.753 -4.765,6.54 -11.729,10.809 -18.166,15.517 -6.169,4.512 -12.3,9.945 -20.466,12.293 -7.008,2.015 -15.183,1.056 -23.97,1.157 -8.442,0.768 -16.345,2.241 -23.327,0.422 -7.766,-2.023 -13.737,-7.399 -19.82,-12.103 -5.979,-4.624 -12.715,-8.973 -17.194,-15.662 -4.142,-6.185 -5.791,-14.126 -8.751,-21.65 -2.749,-6.983 -7.066,-14.005 -8.879,-21.798 0.969,-7.686 5.19,-14.696 8.337,-21.634 3.17,-6.988 5.521,-14.633 10.382,-20.538 4.902,-5.954 11.99,-9.741 18.082,-14.261 6.269,-4.652 11.996,-10.304 18.952,-13.078 7.328,-2.923 15.309,-2.647 22.738,-3.072 7.722,-0.112 15.894,-0.859 23.564,1.69 7.343,2.44 13.568,7.894 20.224,12.371 6.496,4.37 13.91,8.025 19.163,13.964 5.23,5.914 7.939,13.684 11.36,20.792 3.408,7.081 7.796,14.316 8.839,22.224"
           fill="#cf903e"
           id="path125" />
      </g>
      <g
         clip-path="url(#Clip_14)"
         id="g131">
        <path
           d="m 174.591,101.939 c 0.554,7.88 -2.856,15.188 -5.812,22.3 -2.863,6.889 -5.453,14.462 -10.932,20.293 -5.077,5.403 -12.463,8.659 -19.234,12.879 -6.363,3.965 -12.436,9.24 -19.841,11.934 -7.131,2.594 -15.027,2.496 -22.724,3.711 -7.422,-0.885 -14.8,-0.791 -21.242,-3.567 C 68.037,166.573 62.958,160.944 57.501,156.416 51.856,151.731 45.425,147.72 41.439,141.84 37.315,135.755 36.036,128.272 33.971,121.494 31.832,114.469 28.81,107.628 29.196,100.511 27.58,92.65 29.413,85.007 30.327,77.743 31.315,69.896 31.705,61.909 35.25,55.372 38.942,48.564 45.489,43.975 51.5,39.289 c 5.902,-4.602 11.912,-9.869 19.608,-11.74 6.998,-1.701 14.903,-0.048 23.037,1.044 8.915,-1.201 17.247,-3.007 24.603,-1.438 8.357,1.782 14.877,7.102 21.315,11.897 6.389,4.76 13.377,9.436 17.971,16.578 4.219,6.559 5.811,14.916 8.592,23.013 2.552,7.429 6.564,14.939 7.965,23.296"
           fill="#cf903f"
           id="path129" />
      </g>
      <g
         clip-path="url(#Clip_15)"
         id="g135">
        <path
           d="m 173.621,94.541 c -0.327,8.925 -3.552,16.998 -5.59,24.699 -2.273,8.588 -3.748,17.185 -8.249,23.908 -4.715,7.042 -12.112,11.491 -19.392,16.084 -6.689,4.22 -13.719,9.233 -22.675,11.05 -7.559,1.534 -16.133,0.079 -25.37,-0.31 -7.075,0.111 -14.26,0.752 -20.482,-1.906 -6.211,-2.655 -10.732,-8.291 -15.67,-13.319 -4.617,-4.701 -10.275,-9.159 -13.421,-15.608 -2.867,-5.877 -3.08,-13.074 -4.452,-20.152 -1.242,-6.412 -3.895,-13.063 -3.706,-20.275 -0.258,-7.111 2.422,-13.974 3.863,-20.74 1.495,-7.022 1.94,-14.427 5.2,-20.474 3.397,-6.303 9.347,-10.621 14.588,-15.183 5.214,-4.539 10.327,-9.838 17.291,-11.967 6.266,-1.915 13.503,-0.664 21.129,-0.101 7.858,-0.138 15.607,-1.433 22.606,0.148 7.635,1.724 13.948,6.345 20.257,9.839 6.78,3.755 13.992,6.832 18.859,12.284 5.041,5.646 7.183,13.162 9.742,20.237 2.478,6.852 5.725,13.961 5.472,21.786"
           fill="#d0913f"
           id="path133" />
      </g>
      <g
         clip-path="url(#Clip_16)"
         id="g139">
        <path
           d="m 171.135,100.64 c -1.069,6.771 -5.188,13.089 -8.212,19.746 -2.904,6.395 -4.852,13.638 -9.214,19.283 -4.392,5.684 -10.897,9.369 -16.422,13.651 -5.748,4.454 -11.047,9.781 -17.64,12.006 -6.734,2.272 -14.156,1.167 -21.362,0.348 -7.103,1.041 -14.788,2.33 -22.077,0.216 -6.87,-1.993 -12.779,-7.07 -19.07,-11.132 -6.187,-3.994 -13.246,-7.235 -18.18,-12.546 -5.203,-5.6 -7.819,-12.902 -10.845,-19.192 -3.415,-7.098 -7.152,-14.095 -6.705,-20.997 1.906,-8.028 6.249,-15.013 9.069,-21.996 3.092,-7.655 4.924,-15.619 9.173,-21.864 4.573,-6.721 11.351,-11.189 17.337,-16.083 6.045,-4.942 11.802,-10.678 19.365,-13.55 6.996,-2.658 15.065,-2.374 23.425,-3.09 6.83,0.169 14.782,0.137 22.352,3.516 6.62,2.956 12.17,8.762 18.305,13.649 5.902,4.702 12.832,8.744 17.395,14.79 4.649,6.158 6.56,13.853 8.905,20.95 2.383,7.208 5.355,14.598 4.401,22.295"
           fill="#d1913f"
           id="path137" />
      </g>
      <g
         clip-path="url(#Clip_17)"
         id="g143">
        <path
           d="m 169.915,100.365 c 1.696,7.26 -0.923,14.592 -3.307,21.923 -2.218,6.819 -4.18,14.422 -9.026,20.495 -4.573,5.73 -11.526,9.472 -17.687,13.864 -6.13,4.369 -11.933,9.73 -18.916,12.13 -7.219,2.481 -14.919,1.738 -22.269,1.414 -6.641,-1.285 -13.78,-1.592 -20.01,-4.696 -6.087,-3.033 -10.72,-8.578 -15.939,-13.125 -5.145,-4.483 -11.288,-8.298 -15.134,-14.041 -3.778,-5.641 -4.98,-12.722 -7.072,-19.377 -2.003,-6.369 -5.135,-12.678 -5.209,-19.796 -2.378,-7.648 -1.326,-14.893 -1.149,-21.42 0.211,-7.756 0.132,-15.204 3.301,-21.28 3.342,-6.406 9.67,-10.551 15.497,-14.968 5.561,-4.215 11.126,-9.299 18.216,-11.593 6.655,-2.152 14.164,-1.423 21.554,-1.79 8.409,0.038 16.495,-0.92 23.694,1.041 7.997,2.177 14.368,7.311 20.706,11.508 6.724,4.452 13.862,8.463 18.516,14.756 4.652,6.293 6.403,14.312 8.776,22.003 2.259,7.32 5.448,14.757 5.458,22.952"
           fill="#d2913f"
           id="path141" />
      </g>
      <g
         clip-path="url(#Clip_18)"
         id="g147">
        <path
           d="m 175.498,99.925 c -0.618,7.761 -4.628,14.898 -7.819,21.88 -3.176,6.953 -5.77,14.53 -10.866,20.365 -5.053,5.785 -12.243,9.422 -18.567,13.771 -6.423,4.418 -12.414,9.811 -19.511,12.398 -7.436,2.711 -15.37,2.339 -22.825,2.645 -6.993,-0.977 -14.307,-1.097 -20.694,-4.144 -6.337,-3.023 -11.104,-8.685 -16.309,-13.544 -5.082,-4.745 -11.089,-9.072 -14.59,-15.376 -3.316,-5.972 -3.917,-13.302 -5.382,-20.509 -1.335,-6.568 -3.836,-13.37 -3.298,-20.838 -1.138,-6.855 0.974,-13.584 2.17,-20.203 1.214,-6.72 1.678,-13.871 5.062,-19.806 3.336,-5.85 9.23,-9.911 14.446,-14.472 4.989,-4.363 9.72,-9.73 16.226,-12.447 6.008,-2.509 13.041,-2.254 20.18,-2.985 8.669,0.326 16.72,-0.36 23.708,1.791 8.066,2.481 14.178,7.88 20.306,12.36 6.475,4.734 13.388,9.026 18.07,15.459 4.589,6.304 6.644,14.302 9.874,21.718 3.118,7.162 7.64,14.211 9.819,21.937"
           fill="#d29140"
           id="path145" />
      </g>
      <g
         clip-path="url(#Clip_19)"
         id="g151">
        <path
           d="m 162.733,99.127 c -0.108,7.789 -2.972,14.692 -4.618,21.338 -1.852,7.473 -2.85,14.983 -6.677,20.853 -3.989,6.119 -10.478,9.931 -16.649,14.124 -5.685,3.863 -11.466,8.683 -19.032,10.757 -6.5,1.781 -13.993,0.884 -21.899,1.243 -7.418,0.042 -14.884,0.521 -21.49,-2.191 -6.623,-2.72 -11.675,-8.373 -17.096,-13.313 -5.236,-4.772 -11.375,-9.185 -15.135,-15.526 -3.617,-6.098 -4.621,-13.59 -6.556,-20.692 -1.865,-6.841 -4.861,-13.896 -4.883,-21.268 1.65,-6.705 6.05,-13.08 9.299,-19.847 3.089,-6.432 5.154,-13.77 9.581,-19.575 4.406,-5.778 10.888,-9.674 16.517,-14.171 5.674,-4.532 10.953,-9.988 17.763,-12.549 6.596,-2.48 13.966,-1.92 21.531,-1.93 6.819,1.295 14.079,1.514 20.442,4.446 6.393,2.944 11.323,8.376 16.629,12.828 5.403,4.535 11.597,8.511 15.214,14.459 3.577,5.88 4.252,13.106 5.438,20.218 1.081,6.49 3.041,13.397 1.621,20.796"
           fill="#d39140"
           id="path149" />
      </g>
      <g
         clip-path="url(#Clip_20)"
         id="g155">
        <path
           d="m 165.784,96.303 c 1.923,7.571 0.352,14.727 -0.451,21.32 -0.907,7.447 -1.521,14.851 -5.149,20.77 -3.766,6.144 -10.223,10.043 -16.039,14.211 -5.794,4.153 -11.537,9.029 -18.475,10.89 -6.894,1.849 -14.406,0.511 -21.555,-0.227 -7.944,0.915 -15.315,2.907 -21.881,2.09 -7.935,-0.988 -14.262,-5.041 -20.162,-8.188 -6.738,-3.594 -13.44,-7.006 -17.492,-12.85 -4.041,-5.827 -4.923,-13.371 -6.259,-20.835 -1.212,-6.767 -3.295,-13.836 -2.256,-21.479 -2.128,-7.734 -0.515,-15.154 0.539,-22.192 1.133,-7.565 2.093,-15.297 6.166,-21.522 4.066,-6.215 10.821,-10.247 17.059,-14.573 6.054,-4.198 12.128,-9.175 19.523,-11.081 7.079,-1.825 14.848,-0.507 22.534,0.221 7.474,-0.483 14.521,-1.892 20.644,-0.406 7.056,1.713 12.384,6.423 17.666,10.347 5.481,4.072 11.472,7.893 15.067,13.869 3.395,5.644 4.119,12.791 5.853,19.713 1.596,6.369 4.461,12.804 4.668,19.922"
           fill="#d49140"
           id="path153" />
      </g>
      <g
         clip-path="url(#Clip_21)"
         id="g159">
        <path
           d="m 173.213,95.811 c 0.355,8.231 -3.017,15.763 -5.921,22.967 -2.921,7.246 -5.646,14.954 -11.109,20.908 -5.221,5.69 -12.69,9.213 -19.557,13.495 -6.62,4.128 -12.997,9.336 -20.544,11.953 -7.483,2.596 -15.564,2.464 -23.378,3.379 -5.538,-1.414 -12.551,-2.12 -19.105,-5.764 C 67.997,159.635 63.5,154.127 58.361,149.498 53.415,145.042 47.423,141.166 43.915,135.401 40.476,129.75 39.8,122.814 38.685,115.993 37.67,109.782 35.837,103.336 37.489,96.224 34.842,89.433 36.591,82.726 38.2,76.093 39.758,69.671 41.27,62.626 45.687,56.939 49.789,51.658 56.261,48.23 61.902,44.063 67.486,39.938 72.633,34.751 78.856,32.169 85.57,29.382 92.798,29.54 99.209,29.092 c 6.976,0.275 14.267,0.065 20.912,2.88 6.357,2.693 11.463,8.104 17.141,12.557 5.505,4.319 11.986,7.918 16.511,13.381 4.556,5.502 6.882,12.553 10.102,18.703 3.392,6.477 7.818,12.585 9.338,19.198"
           fill="#d59240"
           id="path157" />
      </g>
      <g
         clip-path="url(#Clip_22)"
         id="g163">
        <path
           d="m 164.333,95.826 c -0.175,7.067 -3.329,13.678 -5.431,20.17 -2.168,6.697 -3.508,13.839 -7.333,19.498 -3.955,5.853 -10.128,9.715 -15.419,13.987 -5.503,4.443 -10.669,9.604 -17.127,11.81 -6.555,2.24 -13.752,1.268 -20.773,0.645 -6.868,0.057 -14,1.048 -20.483,-0.763 -6.684,-1.866 -12.209,-6.437 -17.831,-9.991 C 54.01,147.436 47.543,144.266 43.551,138.99 39.397,133.5 38.258,126.508 37.053,119.751 35.928,113.436 34.323,106.805 36.511,99.721 34.664,92.377 36.178,85.525 36.875,79 37.649,71.755 37.996,64.492 41.279,58.497 44.657,52.329 50.697,48.111 56.021,43.538 61.308,38.997 66.356,33.65 72.854,30.953 79.323,28.269 86.55,28.461 93.522,27.87 c 7.738,1.255 15.042,1.012 21.269,3.09 7.468,2.492 13.047,7.321 18.564,10.923 6.385,4.169 12.876,7.638 17,13.178 4.247,5.705 5.664,12.995 7.919,20.021 2.089,6.507 5.338,13.214 6.059,20.744"
           fill="#d59241"
           id="path161" />
      </g>
      <g
         clip-path="url(#Clip_23)"
         id="g167">
        <path
           d="m 165.851,97.08 c 0.469,7.95 -2.254,14.929 -4.17,21.566 -2.122,7.356 -3.91,14.762 -8.519,20.351 -4.618,5.601 -11.595,8.796 -18.242,12.461 -6.191,3.414 -12.485,7.766 -20.043,9.365 -6.89,1.458 -14.461,0.2 -22.187,0.047 -5.995,0.008 -12.503,0.568 -18.437,-1.865 -5.538,-2.271 -9.92,-7.17 -14.859,-11.193 -4.699,-3.827 -10.418,-7.034 -14.11,-12.129 -3.585,-4.948 -4.882,-11.34 -7.096,-17.196 -2.155,-5.698 -5.454,-11.39 -5.922,-17.682 0.148,-7.798 2.97,-14.931 4.596,-21.695 1.823,-7.584 2.78,-15.184 6.425,-21.163 3.937,-6.457 10.318,-10.571 16.332,-14.76 5.8,-4.04 11.8,-8.692 19.486,-10.251 6.643,-1.347 14.155,0.238 22.177,1 6.31,-0.442 13.48,-1.155 20.233,1.287 6.139,2.221 11.326,7.195 16.94,11.219 5.515,3.953 11.901,7.232 16.098,12.398 4.411,5.431 6.183,12.31 8.225,18.489 2.159,6.533 4.637,13.08 3.073,19.751"
           fill="#d69241"
           id="path165" />
      </g>
    </g>
    <path
       d="m 158.99,48.913 c -3.956,5.63 -12.463,6.471 -19.002,1.877 -6.539,-4.594 -8.632,-12.882 -4.676,-18.513 3.955,-5.63 12.463,-6.471 19.001,-1.877 6.539,4.594 8.633,12.883 4.677,18.513"
       fill="#51310e"
       id="path171" />
    <path
       d="m 156.231,45.009 c -3.165,4.504 -9.971,5.177 -15.201,1.502 -5.231,-3.675 -6.906,-10.306 -3.742,-14.811 3.165,-4.504 9.971,-5.176 15.202,-1.501 5.231,3.675 6.906,10.306 3.741,14.81"
       fill="#56320f"
       id="path173" />
    <path
       d="m 154.336,43.678 c -2.532,3.604 -7.976,4.141 -12.161,1.201 -4.185,-2.94 -5.525,-8.244 -2.993,-11.848 2.532,-3.603 7.976,-4.141 12.161,-1.201 4.185,2.94 5.525,8.244 2.993,11.848"
       fill="#6d3c17"
       id="path175" />
    <path
       d="m 66.208,73.044 c 5.874,3.584 7.262,12.019 3.099,18.841 -4.162,6.822 -12.298,9.446 -18.172,5.862 -5.874,-3.584 -7.261,-12.02 -3.099,-18.841 4.162,-6.822 12.298,-9.446 18.172,-5.862"
       fill="#51310e"
       id="path177" />
    <path
       d="m 62.49,76.05 c 4.699,2.867 5.809,9.616 2.48,15.073 -3.33,5.457 -9.839,7.557 -14.538,4.689 -4.699,-2.867 -5.81,-9.615 -2.48,-15.073 3.33,-5.457 9.839,-7.556 14.538,-4.689"
       fill="#56320f"
       id="path179" />
    <path
       d="m 61.285,78.026 c 3.759,2.294 4.647,7.693 1.984,12.058 -2.664,4.366 -7.871,6.046 -11.631,3.752 -3.759,-2.294 -4.647,-7.693 -1.983,-12.058 2.664,-4.366 7.871,-6.046 11.63,-3.752"
       fill="#6d3c17"
       id="path181" />
    <path
       d="m 177.874,107.012 c 6.881,0.009 12.451,6.494 12.441,14.485 -0.01,7.991 -5.597,14.462 -12.478,14.453 -6.881,-0.009 -12.451,-6.494 -12.441,-14.485 0.01,-7.991 5.597,-14.462 12.478,-14.453"
       fill="#51310e"
       id="path183" />
    <path
       d="m 176.261,111.511 c 5.505,0.007 9.961,5.195 9.953,11.588 -0.008,6.393 -4.478,11.57 -9.983,11.563 -5.505,-0.008 -9.961,-5.196 -9.953,-11.589 0.009,-6.392 4.478,-11.569 9.983,-11.562"
       fill="#56320f"
       id="path185" />
    <path
       d="m 176.258,113.827 c 4.404,0.006 7.969,4.156 7.962,9.27 -0.006,5.115 -3.582,9.256 -7.986,9.25 -4.404,-0.005 -7.969,-4.156 -7.962,-9.27 0.007,-5.114 3.582,-9.256 7.986,-9.25"
       fill="#6d3c17"
       id="path187" />
    <path
       d="m 30.567,135.002 c -3.314,4.717 -10.442,5.421 -15.92,1.573 -5.478,-3.849 -7.232,-10.793 -3.918,-15.51 3.314,-4.718 10.442,-5.422 15.92,-1.573 5.478,3.849 7.232,10.793 3.918,15.51"
       fill="#51310e"
       id="path189" />
    <path
       d="m 28.255,131.732 c -2.651,3.774 -8.353,4.337 -12.736,1.258 -4.382,-3.079 -5.786,-8.634 -3.134,-12.408 2.651,-3.774 8.353,-4.337 12.735,-1.258 4.383,3.079 5.786,8.634 3.135,12.408"
       fill="#56320f"
       id="path191" />
    <path
       d="m 26.668,130.617 c -2.121,3.019 -6.683,3.47 -10.189,1.006 -3.506,-2.463 -4.628,-6.907 -2.507,-9.926 2.121,-3.019 6.682,-3.47 10.188,-1.006 3.506,2.463 4.629,6.907 2.508,9.926"
       fill="#6d3c17"
       id="path193" />
    <path
       d="m 135.51,117.016 c 3.155,5.144 0.87,12.285 -5.104,15.949 -5.974,3.664 -13.375,2.464 -16.53,-2.68 -3.155,-5.144 -0.87,-12.285 5.104,-15.949 5.974,-3.664 13.375,-2.464 16.53,2.68"
       fill="#51310e"
       id="path195" />
    <path
       d="m 131.407,117.878 c 2.524,4.115 0.696,9.828 -4.083,12.759 -4.779,2.932 -10.7,1.972 -13.224,-2.144 -2.524,-4.115 -0.696,-9.827 4.083,-12.759 4.779,-2.931 10.7,-1.971 13.224,2.144"
       fill="#56320f"
       id="path197" />
    <path
       d="m 129.676,118.94 c 2.019,3.292 0.557,7.862 -3.266,10.207 -3.824,2.345 -8.56,1.578 -10.58,-1.715 -2.019,-3.292 -0.557,-7.862 3.267,-10.207 3.823,-2.345 8.56,-1.577 10.579,1.715"
       fill="#6d3c17"
       id="path199" />
    <path
       d="m 77.307,177.386 c -3.956,5.63 -12.463,6.471 -19.002,1.877 -6.539,-4.594 -8.632,-12.882 -4.677,-18.513 3.956,-5.63 12.464,-6.471 19.002,-1.877 6.539,4.594 8.633,12.883 4.677,18.513"
       fill="#51310e"
       id="path201" />
    <path
       d="m 74.548,173.483 c -3.165,4.504 -9.971,5.177 -15.202,1.502 -5.23,-3.675 -6.905,-10.306 -3.741,-14.811 3.165,-4.504 9.971,-5.176 15.202,-1.501 5.231,3.675 6.906,10.306 3.741,14.81"
       fill="#56320f"
       id="path203" />
    <path
       d="m 72.654,172.152 c -2.532,3.604 -7.976,4.141 -12.161,1.201 -4.185,-2.94 -5.525,-8.244 -2.993,-11.848 2.531,-3.603 7.976,-4.141 12.161,-1.201 4.185,2.94 5.525,8.244 2.993,11.848"
       fill="#6d3c17"
       id="path205" />
    <path
       d="m 70.01,27.375 c 0,6.881 -6.478,12.459 -14.469,12.459 -7.991,0 -14.469,-5.578 -14.469,-12.459 0,-6.881 6.478,-12.46 14.469,-12.46 7.991,0 14.469,5.579 14.469,12.46"
       fill="#51310e"
       id="path207" />
    <path
       d="m 65.509,25.767 c 0,5.505 -5.182,9.968 -11.575,9.968 -6.393,0 -11.576,-4.463 -11.576,-9.968 0,-5.505 5.183,-9.968 11.576,-9.968 6.393,0 11.575,4.463 11.575,9.968"
       fill="#56320f"
       id="path209" />
    <path
       d="m 63.194,25.767 c 0,4.404 -4.146,7.974 -9.26,7.974 -5.115,0 -9.261,-3.57 -9.261,-7.974 0,-4.404 4.146,-7.974 9.261,-7.974 5.114,0 9.26,3.57 9.26,7.974"
       fill="#6d3c17"
       id="path211" />
    <path
       d="m 120.116,35.912 c 2.054,3.938 0.012,9.064 -4.561,11.449 -4.573,2.385 -9.945,1.127 -11.999,-2.811 -2.054,-3.937 -0.012,-9.063 4.561,-11.449 4.573,-2.385 9.945,-1.127 11.999,2.811"
       fill="#51310e"
       id="path213" />
    <path
       d="m 117.06,36.335 c 1.643,3.15 0.01,7.251 -3.649,9.159 -3.658,1.909 -7.956,0.902 -9.599,-2.248 -1.643,-3.151 -0.009,-7.251 3.649,-9.16 3.658,-1.908 7.956,-0.901 9.599,2.249"
       fill="#56320f"
       id="path215" />
    <path
       d="m 115.735,37.026 c 1.314,2.52 0.008,5.801 -2.919,7.327 -2.927,1.527 -6.365,0.722 -7.679,-1.798 -1.315,-2.521 -0.008,-5.801 2.919,-7.328 2.926,-1.527 6.364,-0.721 7.679,1.799"
       fill="#6d3c17"
       id="path217" />
    <path
       d="m 121.245,154.766 c -1.846,4.039 -7.145,5.576 -11.837,3.433 -4.691,-2.144 -6.997,-7.156 -5.151,-11.196 1.846,-4.039 7.145,-5.576 11.837,-3.432 4.691,2.143 6.997,7.156 5.151,11.195"
       fill="#51310e"
       id="path219" />
    <path
       d="m 119.034,152.614 c -1.477,3.232 -5.716,4.461 -9.469,2.746 -3.753,-1.715 -5.598,-5.725 -4.121,-8.956 1.476,-3.232 5.716,-4.461 9.469,-2.746 3.753,1.715 5.598,5.725 4.121,8.956"
       fill="#56320f"
       id="path221" />
    <path
       d="m 117.675,151.993 c -1.182,2.585 -4.573,3.569 -7.575,2.197 -3.003,-1.372 -4.479,-4.58 -3.297,-7.165 1.181,-2.585 4.573,-3.569 7.575,-2.197 3.002,1.372 4.478,4.58 3.297,7.165"
       fill="#6d3c17"
       id="path223" />
  </g>
  <g
     id="レイヤー_2"
     transform="translate(-2.045,56.539551)" />
  <g
     id="g1074"
     transform="rotate(6.1642948,-296.37134,445.32555)">
    <rect
       style="fill:#000000;fill-opacity:1;stroke:none;stroke-width:2.2826"
       id="rect4139"
       width="115.3498"
       height="46.460335"
       x="24.618073"
       y="6.6830049" />
    <rect
       style="fill:#000000;fill-opacity:1;stroke:#ffffff;stroke-width:6.84797;stroke-linecap:square;stroke-linejoin:round;stroke-miterlimit:4;stroke-dasharray:none;stroke-dashoffset:15.8596;stroke-opacity:1"
       id="rect4136"
       width="163.65858"
       height="59.994942"
       x="-10.048237"
       y="-19.220755"
       transform="matrix(0.98057731,-0.19613296,0.51013053,0.860097,0,0)" />
    <path
       style="fill:none;stroke:#ffff00;stroke-width:2.2826;stroke-linecap:round;stroke-linejoin:round;stroke-miterlimit:0;stroke-dasharray:none;stroke-opacity:1"
       d="M 76.571723,-3.9894761 13.880537,18.515064 13.07681,67.542777 8.2544018,76.383843 13.07681,70.757708 v 7.233589 -8.841066 l 5.626134,8.841066 -6.429862,-8.841066 v 0 0"
       id="path4141"
       inkscape:connector-curvature="0" />
  </g>
</svg>
