<?xml version="1.0"?>
<svg xmlns:rdf="http://www.w3.org/1999/02/22-rdf-syntax-ns#" xmlns="http://www.w3.org/2000/svg" xmlns:cc="http://web.resource.org/cc/" xmlns:dc="http://purl.org/dc/elements/1.1/" xmlns:svg="http://www.w3.org/2000/svg" style="shape-rendering:geometricPrecision;text-rendering:geometricPrecision;image-rendering:optimizeQuality" fill-rule="evenodd" xml:space="preserve" clip-rule="evenodd" viewBox="0 0 210 297">
 <defs>
  <style type="text/css">
    .str0 {stroke:black;stroke-width:0.7056}
    .str1 {stroke:black;stroke-width:0.7056;stroke-linecap:round;stroke-linejoin:round}
    .fil11 {fill:none}
    .fil8 {fill:black}
    .fil1 {fill:#000066}
    .fil5 {fill:#000084}
    .fil2 {fill:blue}
    .fil0 {fill:#003399}
    .fil10 {fill:#00CCFF}
    .fil7 {fill:lime}
    .fil6 {fill:aqua}
    .fil9 {fill:red}
    .fil4 {fill:yellow}
    .fil3 {fill:white}
  </style>
 </defs>
 <g id="_131646864">
  <path id="_131651120" class="fil0" d="m105.97 206.06c0.3279-0.421-0.6695-5.356-0.7732-6.1215 0.5094-0.7656 2.4706-0.9532 3.0074-1.7157-0.6069-4.4485-1.2139-8.8971-1.8209-13.344-0.0183-0.0503-0.0366-0.0991-0.0534-0.1479 0.0122-0.2394-0.064-0.3736-0.1052-0.5719-0.2059-0.125-0.3919-0.2989-0.5719-0.4666 0.0122-0.0061 0.0244-0.0107 0.0366-0.0153-3.2407-4.4348-3.3215-11.028-0.8098-15.838-0.0106-0.0259-0.0213-0.0503-0.032-0.0747 4.3982 0.0061 8.7964 0.0137 13.196 0.0213 0.52-0.0152 2.1091 0.1449 2.4614-0.2074 0.6268-0.8936 1.3999-1.7553 2.5163-1.9749-0.0076 0.0275-0.0153 0.0564-0.0214 0.0854 0.0427 0 0.0427 0 0.0427 0.0214-2.4858 0.7228-3.4252 3.7561-3.9513 5.9934-0.7549 4.6391-0.3478 8.9656 2.7969 12.56 0.6344 4.5812 1.2703 9.1639 1.9063 13.747v0.2547c-0.7412 0.7168-2.1793 1.0233-2.983 1.6669-0.0305 0.886 0.7122 7.677 1.1499 8.2031-0.029 0.0107-0.0565 0.0214-0.0839 0.0321-11.163-0.0214-11.163-0.0214-15.548-0.0534-0.1418-0.5658 0.0107-1.7675-0.3599-2.0542z"/>
  <path id="_131650152" class="fil1" d="m121.96 208.14c-0.4377-0.5261-1.1804-7.3171-1.1499-8.2031 0.8037-0.6436 2.2418-0.9501 2.983-1.6669v-0.2547c-0.636-4.5827-1.2719-9.1654-1.9063-13.747-3.1447-3.5946-3.5518-7.9211-2.7969-12.56 0.5261-2.2373 1.4655-5.2706 3.9513-5.9934 0.3813-0.0595 0.6924-0.0626 1.0798-0.0427v-0.0427c0.8952 0.3035 2.01 1.7858 2.4995 1.8636-0.0107 0.0244-0.0214 0.0488-0.032 0.0747 1.0522 1.7797 1.4747 3.532 1.801 5.5603 1.3405 9.7358 2.681 19.472 4.0231 29.209 0 0.4575-9.5147 5.4993-10.453 5.8027z"/>
  <path id="_131650128" class="fil0" d="m86.635 167.7c5.2308 0.0214 10.462 0.0427 15.694 0.0641-0.029 0.0168-0.0564 0.0351-0.0839 0.0534 0.0046 0.0076 0.0092 0.0167 0.0153 0.0259-1.8727 4.508-2.6886 9.7739-0.1906 14.286 0.0122 0.0046 0.0244 0.0107 0.0381 0.0168 0.1037 0.1937 0.5292 0.6969 0.5292 0.9211h0.032c0.0198 0.0321 0.0198 0.0321 0.0092 0.2425 0.1708 9.6809 0.1708 9.6809 0.2333 14.383-0.1647 0.1647-0.8556 0.0854-1.1346 0.093-0.0077 0.0153-0.0153 0.0305-0.0214 0.0458-0.3065 0.0229-1.7812 0.0229-1.952 0.1937-0.0138 2.7603-0.1342 5.7997 0.154 8.4792-5.2034 0.0106-10.407-0.0183-15.61-0.0427-0.1281-2.8137-0.2181-5.6869-0.1494-8.493 0.459-0.0106 0.918-0.0213 1.3771-0.032 0.0472-0.0488 0.0472-0.0488 0.064-0.0961 0.5506-0.0457 1.1011-0.0915 1.6516-0.1372 0.0839-0.1052 0.0458-0.1937 0.0321-0.3279-0.0778-4.7352-0.1556-9.4689-0.2334-14.203-0.0427-0.0946-0.3812-0.5826-0.5505-0.8571-2.2662-4.4348-2.1412-10.143 0.1266-14.541-0.0107-0.026-0.0214-0.0504-0.0305-0.0748z"/>
  <path id="_131653504" class="fil1" d="m99.958 206.51c-0.2882-2.6795-0.1678-5.7189-0.154-8.4792 0.1708-0.1708 1.6455-0.1708 1.952-0.1937 0.0061-0.0153 0.0137-0.0305 0.0214-0.0458 0.279-0.0076 0.9699 0.0717 1.1346-0.093-0.0625-4.7017-0.0625-4.7017-0.2333-14.383 0.0106-0.2104 0.0106-0.2104-0.0092-0.2425h0.0412c0.5383 0.6909 2.5788 2.4736 3.6219 1.6623 0.0168 0.0488 0.0351 0.0976 0.0534 0.1479 0.607 4.447 1.214 8.8956 1.8209 13.344-0.5368 0.7625-2.498 0.9501-3.0074 1.7157 0.1037 0.7655 1.1011 5.7005 0.7732 6.1215-1.827 0.1403-4.2182 0.6084-6.0147 0.4453z"/>
  <path id="_131652824" class="fil2" d="m102.67 183.07h-0.032c0-0.2242-0.4255-0.7274-0.5292-0.9211-0.0427-0.1388-0.0427-0.1388-0.3828-0.8693-1.5616-4.2838-1.5418-9.3972 0.6573-13.46-0.0046-0.0183-0.0076-0.0366-0.0107-0.0534h-0.0427c-5.2324-0.0214-10.463-0.0427-15.694-0.0641-0.7351-0.0076-1.4702-0.0152-2.2037-0.0213-0.032-2.3074-0.032-2.3074-0.0427-5.6762 0.0137-0.0107 0.0274-0.0213 0.0427-0.032 11.191 0.0244 22.381 0.0488 33.572 0.0747-0.0153 0.0061-0.029 0.0137-0.0427 0.0214-0.0107 0.8265-0.0107 0.8265 0.0427 5.6975 0.0427 0 0.0427 0 0.0427 0.0213-4.3998-0.0076-8.798-0.0152-13.196-0.0213-0.064 0.032-0.064 0.032-0.1052 0.0747 0.0046 0.0076 0.0091 0.0153 0.0152 0.0244-2.2707 4.2381-2.7801 12.153 0.8952 15.828 0.18 0.1677 0.366 0.3416 0.5719 0.4666 0.0412 0.1983 0.1174 0.3325 0.1052 0.5719-1.0431 0.8113-3.0836-0.9714-3.6219-1.6623h-0.0412z"/>
  <path id="_131666112" class="fil3" d="m105.66 183.69c-3.6753-3.6754-3.1659-11.59-0.8952-15.828-0.0061-0.0091-0.0106-0.0168-0.0152-0.0244 0.0412-0.0427 0.0412-0.0427 0.1052-0.0747 0.0107 0.0244 0.0214 0.0488 0.032 0.0747-2.5117 4.81-2.4309 11.403 0.8098 15.838-0.0122 0.0046-0.0244 0.0092-0.0366 0.0153z"/>
  <path id="_131660912" class="fil3" d="m102.33 167.77h0.0427c0.0031 0.0168 0.0061 0.0351 0.0107 0.0534-2.1991 4.0627-2.2189 9.1761-0.6573 13.46 0.3401 0.7305 0.3401 0.7305 0.3828 0.8693-0.0137-0.0061-0.0259-0.0122-0.0381-0.0168-2.498-4.5126-1.6821-9.7785 0.1906-14.286-0.0061-0.0092-0.0107-0.0183-0.0153-0.0259 0.0275-0.0183 0.0549-0.0366 0.0839-0.0534z"/>
  <path id="_131660032" class="fil4" d="m136.73 153.85c1.7416-0.9882 3.3779-2.1487 4.9563-3.3779 1.0172-0.8479 1.0172-0.8479 1.0798-0.88-0.0046 0.0107-0.0077 0.0214-0.0107 0.0321 0.3599 0.395 0.7289 0.7716 1.1117 1.1437 3.8142-0.6054 9.0557 1.7889 9.0557 6.1109-0.2669 3.23-1.9856 6.1184-3.41 8.9168-0.5597 0.3584-2.1015-1.4228-2.1884-2.0389-0.0229-0.0061-0.0458-0.0107-0.0671-0.0153-2.1183 4.3906-1.4945 5.571-5.9522 3.6967-2.5636-1.4015-5.9263-4.8588-3.59-7.9744 0-1.0157 1.397-2.1823 1.397-3.1568-0.6222-0.7-1.9643-1.766-2.2983-2.4355-0.0289-0.0076-0.0564-0.0153-0.0838-0.0214z"/>
  <path id="_131662304" class="fil5" d="m118.05 167.79c0-0.0213 0-0.0213-0.0427-0.0213-0.0534-4.871-0.0534-4.871-0.0427-5.6975 0.0137-0.0077 0.0274-0.0153 0.0427-0.0214 3.596-0.0168 7.1905-0.3065 10.782-0.3065 0.0137 0.0091 0.0274 0.0198 0.0411 0.0305 0.0732 1.7416 0.4515 3.9757 0.0427 5.6136-0.6816 0.148-1.5418 0.0809-2.2448 0.1053-0.4895-0.0778-1.6043-1.5601-2.4995-1.8636-0.2807-0.1403-0.7976-0.0809-1.1011-0.0214-1.1164 0.2196-1.8895 1.0813-2.5163 1.9749-0.3523 0.3523-1.9414 0.1922-2.4614 0.2074z"/>
  <path id="_131663304" class="fil3" d="m123.04 165.71c0-0.0214 0-0.0214-0.0427-0.0214 0.0061-0.029 0.0138-0.0579 0.0214-0.0854 0.3035-0.0595 0.8204-0.1189 1.1011 0.0214v0.0427c-0.3874-0.0199-0.6985-0.0168-1.0798 0.0427z"/>
  <path id="_131662584" class="fil6" d="m84.388 162c-0.1891-0.1601-1.1392-0.0778-1.4183-0.0839-0.0046-0.0289-0.0076-0.0579-0.0107-0.0854 0.395-3.1141 0.79-6.2282 1.1865-9.3408-0.0183-0.0153-0.0366-0.029-0.0534-0.0427 0.0244-0.029 0.0488-0.0564 0.0748-0.0839 0.43-3.3535 0.8601-6.7071 1.2917-10.061 0-4.322 1.2185-9.1304 1.7156-13.556-0.0106-0.0427-0.0106-0.0427-0.0533-0.064 0.4605-0.1022-0.0717-1.8133 0.488-2.0222 3.2757-0.1175 6.5515-0.2349 9.8273-0.3508 0.4789 0.3752 1.522 0.058 2.0969 0.2333 4.0444 0.5079 8.5951 0.058 12.687-0.032 0.0061-0.0107 0.0137-0.0213 0.0214-0.0305 0.5917-0.2821 2.3043-0.1433 3.0089-0.1708l9.806 0.032c0.1169 0.7982 0.1758 1.1953 0.2398 1.6376-6.733-1.737-8.2783 3.0946-7.3252 8.815 1.307 4.9808 3.3795 5.4032 7.488 8.0171 1.0431 1.0782 1.9703 2.2464 2.9646 3.3795-0.0167 0.0046-0.032 0.0092-0.0472 0.0153l1.8483 13.434c-0.2776 0.0153-1.2078-0.0366-1.3985 0.1266-0.0137-0.0107-0.0274-0.0214-0.0411-0.0305-3.5915 0-7.186 0.2897-10.782 0.3065-11.191-0.0259-22.382-0.0503-33.572-0.0747-0.0153 0.0107-0.029 0.0213-0.0427 0.032z"/>
  <path id="_131662728" class="fil4" d="m69.202 144.3c0.0884 0.3447 0.979 2.0558 0.9958 2.0649 0.8449-0.1876 1.0203-0.9043 2.0756-0.8784v0.0534c0.1327 0 0.273 0.0351 0.3813 0.1159-0.0031 0.0152-0.0046 0.0305-0.0061 0.0473 1.984 1.1422 3.381 4.691 1.7263 6.5866-0.0168 0.0046-0.032 0.0107-0.0473 0.0168-0.0061 0.0152-0.0122 0.0305-0.0168 0.0472 0.0122 0.0046 0.0244 0.0107 0.0382 0.0168-1.432 0.9959-1.8102 0.6771-0.9212 2.4568 0.0168 0.0138 0.0351 0.0275 0.0534 0.0427-0.1128 0.1342-0.1098 0.636-0.1601 0.8464-1.8499 4.0383-6.2496 3.8874-9.4141 1.4519h-0.0854c-1.9459 1.7568-2.7191 0.1128-4.2213-0.8113-0.793-2.0283-1.5845-4.0566-2.376-6.0834-1.5052-4.386 9.1289-8.1727 11.894-5.9843 0.0274 0.0031 0.0549 0.0061 0.0839 0.0107z"/>
  <path id="_131662456" class="fil7" d="m73.481 154.87c-0.0183-0.0152-0.0366-0.0289-0.0534-0.0427-0.889-1.7797-0.5108-1.4609 0.9212-2.4568 2.1762-1.4152 0.3035-5.9659-1.6943-6.7147-0.1083-0.0808-0.2486-0.1159-0.3813-0.1159v-0.0534c-1.0553-0.0259-1.2307 0.6908-2.0756 0.8784-0.0168-0.0091-0.9074-1.7202-0.9958-2.0649 0.3248-0.5246 1.4564-1.0355 1.5677-1.3344 2.4004-1.3527 4.8008-2.7054 7.2012-4.0566 3.773-1.9657 4.5675-9.2478 9.1503-10.219 0.0427 0.0213 0.0427 0.0213 0.0533 0.064-0.4971 4.4257-1.7156 9.2341-1.7156 13.556-0.4316 3.3535-0.8617 6.7071-1.2917 10.061-0.026 0.0275-0.0504 0.0549-0.0748 0.0839-2.8106 0.7518-5.6213 1.5037-8.4304 2.2555-0.793 0-1.2856 0.3782-2.1808 0.1601z"/>
  <path id="_131657872" class="fil3" d="m72.655 145.65c1.9978 0.7488 3.8705 5.2995 1.6943 6.7147-0.0138-0.0061-0.026-0.0122-0.0382-0.0168 0.0046-0.0167 0.0107-0.032 0.0168-0.0472 0.0153-0.0061 0.0305-0.0122 0.0473-0.0168 1.6547-1.8956 0.2577-5.4444-1.7263-6.5866 0.0015-0.0168 0.003-0.0321 0.0061-0.0473z"/>
  <path id="_131656472" class="fil3" d="m99.534 126.55v-0.0625c4.229 0.0046 8.464-0.0747 12.691-0.0488 0.0046 0.0153 0.0107 0.032 0.0168 0.0488-0.0077 0.0092-0.0153 0.0198-0.0214 0.0305-4.0917 0.09-8.6424 0.5399-12.687 0.032z"/>
  <path id="_131655648" class="fil4" d="m97.437 126.32c0.0153-0.0122 0.0305-0.0244 0.0473-0.0366 0-0.4346 0.1662-2.7725-0.0427-3.0196-2.7161-0.2516-4.5035-1.5037-4.9716-4.3356-0.0519-2.6811 0.2897-12.499-0.1373-13.068 9.2341 0.0077 18.544 0.1785 27.768-0.3187-0.0107 0.0137-0.0214 0.0274-0.032 0.0427 0.0213 4.264 0.0427 8.528 0.064 12.794-0.1708 2.9982-2.0893 4.4516-4.903 4.7551-0.1738 0.1998 0.0107 3.1736 0.0214 3.1873-0.7046 0.0275-2.4172-0.1113-3.0089 0.1708-0.0061-0.0168-0.0122-0.0335-0.0168-0.0488-4.2274-0.0259-8.4624 0.0534-12.691 0.0488v0.0625c-0.5749-0.1753-1.618 0.1419-2.0969-0.2333z"/>
  <path id="_131655272" class="fil8" d="m105.87 117.65c-1.4305-0.4301-2.4995-1.1224-3.6006-2.1289-2.861-3.0898 2.498-0.6421 4.0246-0.5292 1.3542 0 2.5681-0.3401 3.8537-0.7198 4.11-1.3695-0.1372 2.1106-1.2917 2.838-1.1544 0.4255-1.7492 0.5292-2.986 0.5399z"/>
  <path id="_131648800" class="fil8" d="m102.71 110.56c-1.7828-0.2928-2.0878-2.2387-0.5079-3.0821 2.4645-0.4072 2.9434 2.8198 0.5079 3.0821z"/>
  <path id="_131648776" class="fil8" d="m110.34 110.49c-1.2445-0.2151-1.9353-1.4214-1.1758-2.5407 2.4034-2.254 4.2228 2.3775 1.1758 2.5407z"/>
  <path id="_131649200" class="fil9" d="m92.332 105.86c-0.4926-0.0061-4.4211 0.1861-4.7932-0.186 0.0015-0.8922 0.0031-1.7828 0.0061-2.6734 0.2547-0.0107 1.0172 0.032 2.2662 0.0427 0.151-6.9664 7.0548-12.673 13.387-13.969 10.056-1.6913 19.603 5.8225 19.603 16.193-0.2653 0.2653-2.2311 0.2486-2.7008 0.2745-9.2234 0.4972-18.534 0.3264-27.768 0.3187z"/>
  <polygon id="_131647664" points="115.25 126.32 118.14 162.05 130.22 161.64 125.06 126.35" class="fil10"/>
  <path id="_131649224" class="fil7" d="m128.42 148.2c-0.9943-1.1331-1.9215-2.3013-2.9646-3.3795-4.1085-2.6139-6.181-3.0363-7.488-8.0171-0.9531-5.7204 0.7763-10.506 7.5093-8.7689 5.0067 1.9047 9.8609 4.723 13.057 9.1304 0.0305 0.1128 0.0457 0.1494 0.1281 0.2318 1.8636 3.3886 3.7272 6.7772 5.5908 10.167 0.2257 0.6801-1.0828 1.644-1.493 2.0328-0.0626 0.0321-0.0626 0.0321-1.0798 0.88-1.5784 1.2292-3.2147 2.3897-4.9563 3.3779-0.4698 0.2502-1.8606 1.156-2.4996 0.8785-1.9352-2.1778-3.8705-4.3555-5.8043-6.5333z"/>
 </g>
 <polygon points="97.322 134.33 93.483 155.88 106.77 155.88 107.07 149.98 98.208 150.57 103.52 134.03" class="fil9 str0"/>
 <path id="_131645568" class="fil11 str1" d="m128.36 148.08zm1.93 13.572l-1.93-13.572 1.93 13.572z"/>
 <line id="_131640736" y2="126.62" class="fil11 str1" y1="128.09" x2="125.3" x1="125.51"/>
 <path id="_131642184" class="fil11 str1" d="m87.779 126.68c-0.1354 0.0048-0.2474 0.1069-0.2646 0.2413"/>
 <line id="_131641936" y2="161.93" class="fil11 str1" y1="126.92" x2="83.032" x1="87.515"/>
 <line id="_131639024" y2="126.68" class="fil11 str1" y1="126.34" x2="87.779" x1="97.555"/>
 <path id="_131639048" class="fil11 str1" d="m125.3 126.62c-0.0193-0.136-0.1356-0.2373-0.2731-0.2376"/>
 <path id="_131638592" class="fil11 str1" d="m126.44 128.47l-0.35-0.18-0.953-0.332-0.968-0.192-0.965-0.06-0.948 0.068-0.917 0.186-0.877 0.298-0.828 0.404-0.056 0.036m6.862-0.228z"/>
 <line id="_131637736" y2="128.48" class="fil11 str1" y1="131.42" x2="126.5" x1="132.15"/>
 <path id="_131645368" class="fil11 str1" d="m138.53 137.17l-0.516-0.702-0.967-1.169-1.054-1.095-1.139-1.008-1.223-0.905-1.17-0.713-0.309-0.166m6.378 5.758z"/>
 <line id="_130094376" y2="154.74" class="fil11 str1" y1="146.44" x2="134.26" x1="126.9"/>
 <line id="_130094064" y2="137.21" class="fil11 str1" y1="147.67" x2="138.55" x1="144.29"/>
 <line id="_130107440" y2="143.34" class="fil11 str1" y1="138.64" x2="70.271" x1="78.592"/>
 <line id="_130106720" y2="152.43" class="fil11 str1" y1="154.91" x2="84.232" x1="75.004"/>
 <line id="_131812008" y2="137.96" class="fil11 str1" y1="131.37" x2="79.369" x1="83.748"/>
 <path id="_131480824" class="fil11 str1" d="m79.369 137.96l-0.0995 0.142-0.1953 0.235-0.1412 0.136-0.0494 0.038m0.4854-0.551z"/>
 <path id="_131481048" class="fil11 str1" d="m87.289 128.69l-0.1826 0.055-0.8557 0.386-0.8042 0.502-0.7342 0.609-0.648 0.704-0.2965 0.431m3.5212-2.687z"/>
 <line id="_131481272" y2="184.75" class="fil11 str1" y1="184.74" x2="106.43" x1="105.54"/>
 <path id="_131820680" class="fil11 str1" d="m122.85 165.61zm0.8249 0.0022l-0.8249-0.0022 0.8249 0.0022z"/>
 <line id="_131820904" y2="105.62" class="fil11 str1" y1="118.39" x2="120.09" x1="120.18"/>
 <path id="_131821008" class="fil11 str1" d="m92.431 105.93zl0.0902 12.65-0.0902-12.65z"/>
 <path id="_130539576" class="fil11 str1" d="m114.49 123.2l0.174-0.006 0.542-0.025 0.506-0.034 0.226-0.024 0.242-0.033 0.276-0.053 0.344-0.088 0.451-0.158 0.519-0.25 0.525-0.341 0.517-0.449 0.471-0.553 0.393-0.643 0.29-0.712 0.171-0.758 0.033-0.684m-5.68 4.811z"/>
 <path id="_130539800" class="fil11 str1" d="m92.539 118.58l-0.0043 0.333 0.1313 0.795 0.2465 0.719 0.3379 0.636 0.4071 0.551 0.455 0.461 0.482 0.372 0.4872 0.288 0.4668 0.209 0.4115 0.136 0.3278 0.081 0.2576 0.046 0.2202 0.03 0.2073 0.021 0.2499 0.017 0.4646 0.021 0.4647 0.014m-5.6131-4.73z"/>
 <line id="_131522208" y2="123.12" class="fil11 str1" y1="126.33" x2="115.24" x1="115.26"/>
 <path id="_131522432" class="fil11 str1" d="m97.533 123.25zl0.0229 3.208-0.0229-3.208z"/>
 <path id="_20538376" class="fil11 str1" d="m58.103 147.29l-0.2833 0.302-0.3828 0.539-0.2515 0.535-0.1054 0.52 0.0385 0.376m0.9845-2.272z"/>
 <path id="_20538584" class="fil11 str1" d="m66.83 143.69l-0.1884-0.004-0.8361 0.06-0.4166 0.065m1.4411-0.121z"/>
 <path id="_132176088" class="fil11 str1" d="m69.593 144.75l-0.1151-0.198-0.3429-0.316-0.4591-0.248-0.5787-0.179-0.6855-0.1-0.5818-0.015m2.7631 1.056z"/>
 <line id="_132176312" y2="144.93" class="fil11 str1" y1="154.56" x2="69.702" x1="73.444"/>
 <path id="_132176536" class="fil11 str1" d="m57.173 149.8zl2.7499 7.0732-2.7499-7.0732z"/>
 <path id="_132176760" class="fil11 str1" d="m61.53 150.4c-0.099 0.0745-0.1363 0.2057-0.0915 0.3212"/>
 <path id="_132176984" class="fil11 str1" d="m61.439 150.72zl2.472 6.3581-2.472-6.3581z"/>
 <line id="_132177088" y2="150.4" class="fil11 str1" y1="149.05" x2="61.53" x1="63.312"/>
 <line id="_132316472" y2="158.86" class="fil11 str1" y1="158.61" x2="67.649" x1="66.228"/>
 <path id="_132316696" class="fil11 str1" d="m67.29 145.86l0.0346 0.069 0.0043 0.243-0.0953 0.289-0.223 0.36-0.3426 0.383-0.4551 0.394-0.5549 0.388-0.636 0.365-0.6946 0.33-0.7284 0.28-0.284 0.09m3.975-3.191z"/>
 <path id="_132316920" class="fil11 str1" d="m71.316 158.09l0.2824-0.199 0.6228-0.523 0.5169-0.535 0.3992-0.538 0.2697-0.536 0.1256-0.524-0.0188-0.439-0.048-0.13m-2.1498 3.424z"/>
 <path id="_132317144" class="fil11 str1" d="m70.705 158.5l0.1775-0.106 0.4331-0.305m-0.6106 0.411z"/>
 <line id="_131999432" y2="152.29" class="fil11 str1" y1="153.38" x2="74.434" x1="72.988"/>
 <line id="_131999656" y2="146.42" class="fil11 str1" y1="145.77" x2="70.28" x1="71.144"/>
 <line id="_131999880" y2="157.88" class="fil11 str1" y1="157.63" x2="62.052" x1="60.632"/>
 <line id="_132000240" y2="152.12" class="fil11 str1" y1="152.26" x2="74.813" x1="74.483"/>
 <line id="_132000464" y2="145.51" class="fil11 str1" y1="145.46" x2="71.974" x1="72.09"/>
 <path id="_132000568" class="fil11 str1" d="m62.943 157.88l0.0032-0.002 0.1434-0.091 0.2786-0.191 0.3282-0.248 0.2804-0.231m-1.0338 0.763z"/>
 <path id="_132041320" class="fil11 str1" d="m62.812 157.92c0.0462-0.0027 0.0909-0.0169 0.1301-0.0413"/>
 <path id="_132041544" class="fil11 str1" d="m137.68 164.16l0.01 0.021 0.492 0.741 0.605 0.699 0.704 0.643 0.788 0.572 0.854 0.49 0.904 0.396 0.933 0.295 0.942 0.187 0.947 0.074m-7.179-4.118z"/>
 <line id="_132041984" y2="160.06" class="fil11 str1" y1="156.31" x2="137.34" x1="139.16"/>
 <line id="_132042208" y2="149.62" class="fil11 str1" y1="151.32" x2="142.7" x1="144.34"/>
 <path id="_132042432" class="fil11 str1" d="m136.76 153.83zl2.4095 2.4903-2.4095-2.4903z"/>
 <path id="_132354256" class="fil11 str1" d="m147.35 163.99zl1.7335 1.7917-1.7335-1.7917z"/>
 <path id="_132354480" class="fil11 str1" d="m149.09 165.78c0.0628 0.0649 0.1533 0.095 0.2425 0.0808 0.0891-0.0143 0.1657-0.0712 0.2051-0.1524"/>
 <line id="_132354840" y2="160.93" class="fil11 str1" y1="165.71" x2="151.85" x1="149.53"/>
 <path id="_132355064" class="fil11 str1" d="m152.64 154.84zm0.1062 0.1999l-0.1062-0.1999 0.1062 0.1999z"/>
 <path id="_132355288" class="fil11 str1" d="m144.86 168.28c0.1076 0.0017 0.2065-0.059 0.2534-0.1558"/>
 <line id="_132355512" y2="163.56" class="fil11 str1" y1="168.13" x2="147.33" x1="145.11"/>
 <path id="_132355736" class="fil11 str1" d="m87.587 103.01zl0.0197 2.7655-0.0197-2.7655z"/>
 <path id="_132355960" class="fil11 str1" d="m122.85 105.37c-0.0615-8.6273-6.7231-15.769-15.325-16.429-8.6022-0.6603-16.276 5.3806-17.653 13.897"/>
 <path id="_132356184" class="fil11 str1" d="m119.64 162.03l-0.032 0.001-0.04 0.001-0.047 0.001h-0.051l-0.054 0.001h-0.158m0.382-0.004z"/>
 <line id="_132356408" y2="162.03" class="fil11 str1" y1="161.94" x2="119.26" x1="83.17"/>
 <line id="_132356632" y2="161.65" class="fil11 str1" y1="162.03" x2="130.25" x1="119.64"/>
 <line id="_132356856" y2="126.35" class="fil11 str1" y1="126.38" x2="115.16" x1="125.03"/>
 <path id="_132357216" class="fil11 str1" d="m112.36 126.55l-0.606 0.019-0.732 0.018-0.839 0.016-0.929 0.015-0.995 0.014-1.038 0.01-1.058 0.009-1.052 0.005-1.022 0.003h-0.967l-0.891-0.004-0.793-0.006-0.676-0.008-0.544-0.012-0.3995-0.013-0.2448-0.015-0.0748-0.012m12.861-0.039z"/>
 <path id="_132357440" class="fil11 str1" d="m99.494 126.58l0.0767-0.017 0.2376-0.018 0.0842-0.005m-0.3985 0.04z"/>
 <path id="_132357664" class="fil11 str1" d="m112.92 126.45l0.212 0.01 0.165 0.017 0.021 0.006m-0.398-0.033z"/>
 <path id="_132357888" class="fil11 str1" d="m130.29 161.65l-0.002 0.001-0.013 0.001-0.023 0.001m0.038-0.003z"/>
 <line id="_132358112" y2="126.68" class="fil11 str1" y1="126.68" x2="87.787" x1="87.779"/>
 <path id="_132358336" class="fil11 str1" d="m83.17 161.94h-0.0816l-0.0287-0.001-0.0191-0.001h-0.0087l-0.0005-0.001m0.1386 0.003z"/>
 <path id="_132358560" class="fil11 str1" d="m117.86 132.22l0.346-1.578 0.324-0.766 0.405-0.618 0.473-0.45 0.176-0.09m-1.724 3.502z"/>
 <path id="_132358784" class="fil11 str1" d="m120.87 142.07l-0.753-0.668-0.55-0.704-0.5-0.841-0.436-0.954-0.361-1.042-0.274-1.097-0.181-1.124-0.081-1.117 0.015-1.082 0.013-0.188m3.108 8.817z"/>
 <path id="_132359008" class="fil11 str1" d="m120.87 142.07l1.52 0.966 1.47 0.869 1.407 0.765m-4.397-2.6z"/>
 <line id="_132359232" y2="133.25" class="fil11 str1" y1="132.22" x2="117.76" x1="117.86"/>
 <path id="_132359592" class="fil11 str1" d="m125.26 144.67l0.227 0.141 0.632 0.635 0.275 0.392m-1.134-1.168z"/>
 <line id="_132359816" y2="145.84" class="fil11 str1" y1="145.86" x2="126.4" x1="126.41"/>
 <path id="_132360040" class="fil11 str1" d="m143.66 148.71l-0.468 0.465-0.575 0.52-0.666 0.56-0.739 0.586-0.792 0.596-0.824 0.589-0.832 0.566-0.819 0.528-0.783 0.475-0.725 0.409-0.648 0.333-0.553 0.247-0.443 0.155-0.32 0.057-0.19-0.04-0.021-0.019m9.398-6.027z"/>
 <path id="_132360264" class="fil11 str1" d="m144.29 147.67l0.017 0.096-0.083 0.232-0.219 0.318-0.348 0.397m0.633-1.043z"/>
 <line id="_132360488" y2="145.86" class="fil11 str1" y1="146.44" x2="126.41" x1="126.9"/>
 <path id="_132360712" class="fil11 str1" d="m77.069 150.62l-0.1153-0.944-0.2203-0.96-0.3197-0.952-0.4107-0.92-0.4912-0.864-0.559-0.785-0.6121-0.686-0.6496-0.57-0.6701-0.437-0.6734-0.296-0.6591-0.144-0.6278 0.009-0.5803 0.164-0.5177 0.313-0.4417 0.455-0.2348 0.356m7.7828 6.261z"/>
 <path id="_132360936" class="fil11 str1" d="m73.516 154.85l0.2621 0.069 0.6456 0.068 0.606-0.087 0.5507-0.239 0.4813-0.385 0.3992-0.522 0.307-0.644 0.2066-0.75 0.1011-0.837-0.0072-0.901m-3.5524 4.228z"/>
 <path id="_132361160" class="fil11 str1" d="m75.383 149.98l-0.1016-0.734-0.2059-0.743-0.301-0.72-0.3831-0.666-0.4485-0.582-0.4941-0.474-0.5183-0.345-0.5197-0.199-0.4985-0.047-0.4555 0.109-0.364 0.234m4.2902 4.167z"/>
 <path id="_132361384" class="fil11 str1" d="m74.107 152.54l0.2294-0.076 0.3925-0.259 0.3124-0.399 0.2187-0.52 0.1154-0.62 0.0071-0.691m-1.2755 2.565z"/>
 <path id="_132361608" class="fil11 str1" d="m120.43 167.69zm0.0001 0.0097l-0.0001-0.0097 0.0001 0.0097z"/>
 <line id="_132361968" y2="167.7" class="fil11 str1" y1="167.78" x2="120.43" x1="118.02"/>
 <path id="_132362192" class="fil11 str1" d="m117.98 162.03zm0.041 5.7523l-0.041-5.7523 0.041 5.7523z"/>
 <path id="_132403376" class="fil11 str1" d="m128.88 161.7zm0.0406 5.6943l-0.0406-5.6943 0.0406 5.6943z"/>
 <line id="_132403600" y2="167.4" class="fil11 str1" y1="167.48" x2="128.92" x1="126.56"/>
 <path id="_132403824" class="fil11 str1" d="m120.43 167.69l0.536-0.745 0.581-0.599 0.615-0.442 0.64-0.278 0.652-0.108 0.654 0.063 0.643 0.234 0.621 0.4 0.075 0.06m-5.017 1.415z"/>
 <line id="_132404048" y2="167.69" class="fil11 str1" y1="161.94" x2="84.495" x1="84.454"/>
 <path id="_132404272" class="fil11 str1" d="m84.454 161.94zm33.52 0.0902l-33.52-0.0902 33.52 0.0902z"/>
 <line id="_132404584" y2="167.78" class="fil11 str1" y1="167.69" x2="118.02" x1="84.495"/>
 <path id="_132404896" class="fil11 str1" d="m104.86 167.76l-0.462 0.854-0.403 0.965-0.335 1.059-0.264 1.135-0.186 1.192-0.107 1.229-0.025 1.246 0.057 1.24 0.139 1.215 0.217 1.169 0.292 1.102 0.363 1.019 0.427 0.917 0.484 0.799 0.532 0.669 0.573 0.528 0.195 0.141m-1.497-16.479z"/>
 <line id="_132405208" y2="167.76" class="fil11 str1" y1="167.75" x2="104.86" x1="104.86"/>
 <line id="_132405656" y2="167.76" class="fil11 str1" y1="167.75" x2="104.86" x1="102.48"/>
 <path id="_132405968" class="fil11 str1" d="m105.54 184.74l-0.539-0.06-0.623-0.22-0.602-0.377-0.573-0.527-0.533-0.669-0.483-0.8-0.427-0.917-0.363-1.018-0.293-1.103-0.217-1.169-0.138-1.214-0.057-1.241 0.025-1.245 0.106-1.229 0.187-1.192 0.263-1.135 0.336-1.059 0.402-0.965 0.463-0.855m3.066 16.995z"/>
 <line id="_132406280" y2="167.74" class="fil11 str1" y1="167.75" x2="102.48" x1="102.48"/>
 <path id="_132406592" class="fil11 str1" d="m128.35 172.65zm4.102 29.776l-4.102-29.776 4.102 29.776z"/>
 <line id="_132406904" y2="202.43" class="fil11 str1" y1="208.11" x2="132.46" x1="121.96"/>
 <path id="_132407216" class="fil11 str1" d="m120.82 199.87zl1.1353 8.2407-1.1353-8.2407z"/>
 <line id="_132408464" y2="199.87" class="fil11 str1" y1="198.22" x2="120.82" x1="123.86"/>
 <path id="_132408912" class="fil11 str1" d="m121.92 184.17zl1.9363 14.056-1.9363-14.056z"/>
 <path id="_132409224" class="fil11 str1" d="m128.35 172.65l-0.208-1.192-0.285-1.127-0.359-1.043-0.426-0.941-0.484-0.822-0.536-0.689-0.577-0.544-0.609-0.39-0.63-0.229-0.641-0.064-0.639 0.102-0.627 0.267-0.604 0.426-0.571 0.579-0.528 0.721-0.475 0.851-0.414 0.966-0.347 1.064-0.273 1.145-0.194 1.204-0.112 1.243-0.028 1.261 0.056 1.256 0.139 1.231 0.221 1.183 0.297 1.115 0.37 1.029 0.435 0.923 0.494 0.802 0.543 0.667 0.583 0.52m6.429-11.514z"/>
 <path id="_132409536" class="fil11 str1" d="m106.34 184.12zm15.581 0.0419l-15.581-0.0419 15.581 0.0419z"/>
 <path id="_132410728" class="fil11 str1" d="m105 167.75l-0.424 0.769-0.414 0.966-0.347 1.064-0.273 1.144-0.194 1.205-0.112 1.243-0.028 1.261 0.056 1.256 0.139 1.231 0.221 1.183 0.298 1.116 0.369 1.028 0.436 0.923 0.493 0.802 0.543 0.667 0.583 0.52m-1.346-16.378z"/>
 <path id="_132411040" class="fil11 str1" d="m105.24 199.82zm15.581 0.0419l-15.581-0.0419 15.581 0.0419z"/>
 <path id="_132411352" class="fil11 str1" d="m106.38 208.06zm15.581 0.0419l-15.581-0.0419 15.581 0.0419z"/>
 <line id="_132411672" y2="208.06" class="fil11 str1" y1="199.82" x2="106.38" x1="105.24"/>
 <path id="_132412760" class="fil11 str1" d="m108.28 198.18zm15.581 0.042l-15.581-0.042 15.581 0.042z"/>
 <line id="_132413072" y2="199.82" class="fil11 str1" y1="198.18" x2="105.24" x1="108.28"/>
 <line id="_132413384" y2="198.18" class="fil11 str1" y1="184.12" x2="108.28" x1="106.34"/>
 <line id="_132413696" y2="206" class="fil11 str1" y1="206.46" x2="106.09" x1="99.988"/>
 <line id="_132414320" y2="206.46" class="fil11 str1" y1="197.92" x2="99.988" x1="99.838"/>
 <line id="_132415200" y2="197.92" class="fil11 str1" y1="197.68" x2="99.838" x1="102.98"/>
 <line id="_132415728" y2="197.68" class="fil11 str1" y1="183.11" x2="102.98" x1="102.73"/>
 <path id="_132416040" class="fil11 str1" d="m102.38 167.74l-0.074 0.123-0.461 0.881-0.398 0.993-0.328 1.086-0.253 1.162-0.174 1.216-0.091 1.249-0.007 1.262 0.078 1.252 0.16 1.221 0.241 1.168 0.316 1.095 0.387 1.003 0.451 0.894 0.507 0.768m-0.354-15.373z"/>
 <line id="_132416488" y2="197.88" class="fil11 str1" y1="197.92" x2="84.257" x1="99.838"/>
 <line id="_132416984" y2="206.42" class="fil11 str1" y1="206.46" x2="84.407" x1="99.988"/>
 <line id="_132417480" y2="206.42" class="fil11 str1" y1="197.88" x2="84.407" x1="84.257"/>
 <line id="_132418104" y2="197.64" class="fil11 str1" y1="197.68" x2="87.403" x1="102.98"/>
 <line id="_132418416" y2="197.88" class="fil11 str1" y1="197.64" x2="84.257" x1="87.403"/>
 <line id="_132418728" y2="183.07" class="fil11 str1" y1="183.11" x2="87.148" x1="102.73"/>
 <path id="_132419040" class="fil11 str1" d="m86.794 167.7l-0.0746 0.123-0.4604 0.881-0.3979 0.993-0.3284 1.086-0.2532 1.162-0.1736 1.216-0.091 1.25-0.0069 1.261 0.0774 1.252 0.1604 1.221 0.2406 1.168 0.3165 1.095 0.387 1.003 0.4509 0.894 0.5068 0.768m-0.3536-15.373z"/>
 <line id="_132419352" y2="197.64" class="fil11 str1" y1="183.07" x2="87.403" x1="87.148"/>
 <path id="_132419880" class="fil11 str1" d="m114.34 123.2l-0.132 0.005-0.696 0.022-0.824 0.021-0.936 0.019-1.031 0.018-1.11 0.017-1.166 0.014-1.204 0.012-1.219 0.009-1.212 0.006-1.184 0.004-1.136 0.001-1.065-0.002-0.977-0.006-0.8715-0.008-0.7497-0.01-0.4673-0.01m15.98-0.112z"/>
 <path id="_132420376" class="fil11 str1" d="m115.26 126.33l-0.008 0.006-0.132 0.021-0.294 0.021-0.451 0.022-0.599 0.022-0.737 0.021-0.86 0.02-0.967 0.019-1.057 0.017-1.127 0.016-1.176 0.013-1.203 0.01-1.206 0.008-1.19 0.005-1.148 0.002-1.088-0.001-1.005-0.004-0.905-0.007-0.7877-0.01-0.6555-0.012-0.5112-0.014-0.3575-0.017-0.197-0.018-0.0403-0.014m17.702-0.126z"/>
 <path id="_132420896" class="fil11" d="m101.31 109.04l0.079 0.467 0.218 0.414 0.344 0.333 0.091 0.043m-0.732-1.257z"/>
 <path id="_132421464" class="fil11" d="m103.58 107.78l-0.242-0.139-0.488-0.096-0.502 0.071-0.463 0.243-0.355 0.394-0.191 0.479-0.029 0.305m2.27-1.257z"/>
 <path id="_132422032" class="fil11" d="m108.99 108.99l0.085 0.486 0.237 0.429 0.362 0.327 0.034 0.014m-0.718-1.256z"/>
 <path id="_132422416" class="fil11" d="m111.22 107.71l-0.212-0.128-0.504-0.1-0.518 0.082-0.452 0.254-0.332 0.384-0.184 0.464-0.033 0.323m2.235-1.279z"/>
 <polygon id="_132423016" points="106.7 115.17 108.45 114.95 110.19 114.44 111.04 114.15 111.46 114.02 111.68 113.99 111.79 114 111.82 114.02 111.85 114.05 111.87 114.08 111.88 114.13 111.86 114.22 111.72 114.52 110.89 115.54 109.9 116.41 108.78 117.12 107.43 117.6 105.97 117.6 105.16 117.37 104.4 117.02 103.25 116.27 102.24 115.35 101.88 114.94 101.57 114.5 101.47 114.25 101.46 114.2 101.47 114.15 101.49 114.12 101.51 114.1 101.56 114.08 101.7 114.07 102.28 114.2 103.42 114.56 104.59 114.9 105.64 115.1" class="fil11"/>
 <polygon id="_132423584" points="101.31 109.04 101.38 108.57 101.6 108.16 101.94 107.82 102.39 107.6 102.92 107.55 103.43 107.68 103.86 107.97 104.16 108.38 104.3 108.86 104.28 109.35 104.1 109.81 103.78 110.18 103.36 110.43 102.87 110.52 102.37 110.46 101.9 110.22 101.54 109.82 101.35 109.34" class="fil11"/>
 <polygon id="_132424152" points="108.99 109 109.07 108.51 109.3 108.07 109.66 107.74 110.1 107.54 110.59 107.49 111.08 107.62 111.51 107.91 111.81 108.34 111.94 108.83 111.91 109.3 111.74 109.73 111.45 110.09 111.03 110.35 110.53 110.47 110.01 110.4 109.56 110.15 109.22 109.78 109.03 109.32" class="fil11"/>
 <path id="_132424536" class="fil11 str1" d="m61.606 150.38l0.9432-0.203 0.9632-0.28 0.9591-0.349 0.9308-0.41 0.8791-0.46 0.8054-0.499 0.7113-0.526 0.5994-0.538 0.4725-0.539 0.1831-0.262m-7.4471 4.066z"/>
 <path id="_132424920" class="fil11 str1" d="m65.334 143.84l-0.4392 0.076-0.9493 0.219-0.9644 0.295-0.9552 0.362-0.922 0.421-0.8657 0.47-0.7875 0.505-0.6897 0.53-0.5361 0.499m7.1091-3.377z"/>
 <path id="_132425552" class="fil11 str1" d="m57.116 149.61zm0.1509 0.3837l-0.1509-0.3837 0.1509 0.3837z"/>
 <path id="_132426256" class="fil11 str1" d="m69.625 144.77l0.028 0.051 0.0493 0.11m-0.0773-0.161z"/>
 <path id="_132426824" class="fil11 str1" d="m64.14 157.23l0.6343 0.484 1.1133 0.606 1.1943 0.415 0.9881 0.184 0.9883 0.033 0.6985-0.084m-5.6168-1.638z"/>
 <path id="_132427208" class="fil11 str1" d="m60.635 157.61l-0.1308-0.013-0.2913-0.199-0.2229-0.362-0.1968-0.542-0.0084-0.026m0.8502 1.142z"/>
 <line id="_132427592" y2="154.56" class="fil11 str1" y1="154.65" x2="73.444" x1="73.475"/>
 <path id="_132427976" class="fil11 str1" d="m59.562 147.5l0.0121-0.016 0.4167-0.452 0.5426-0.449 0.648-0.428 0.7293-0.391 0.7831-0.341 0.8075-0.276 0.8018-0.202 0.7659-0.12 0.7012-0.034 0.491 0.036m-6.6992 2.673z"/>
 <path id="_132428360" class="fil11 str1" d="m64.14 157.23l-0.0848-0.07-0.0311-0.021-0.0309-0.016-0.0121-0.003m0.1589 0.11z"/>
 <path id="_132428744" class="fil11 str1" d="m63.981 157.12l-0.0492-0.02-0.0188-0.029m0.068 0.049z"/>
 <path id="_132429128" class="fil11 str1" d="m63.314 149.06l0.0108-0.005 0.0238 0.014 0.0023 0.002m-0.0369-0.011z"/>
 <path id="_132429952" class="fil11 str1" d="m70.69 158.48l-0.4479 0.258-0.4848 0.134m0.9327-0.392z"/>
 <path id="_132430824" class="fil11 str1" d="m63.981 157.12l0.2931 0.366 0.323 0.321 0.3496 0.273 0.3725 0.223 0.3917 0.17 0.4068 0.115 0.1097 0.022m-2.2464-1.49z"/>
 <path id="_132431344" class="fil11 str1" d="m59.805 156.39l-0.0157 0.001-0.0105 0.01-0.0026 0.031 0.0085 0.037m0.0203-0.079z"/>
 <path id="_132431728" class="fil11 str1" d="m71.144 145.77l0.2851-0.163 0.3667-0.089 0.3972 0.018 0.4153 0.124 0.4209 0.228 0.4135 0.324 0.3936 0.409 0.3615 0.484 0.3186 0.542 0.2657 0.585 0.2049 0.609 0.1377 0.616m-3.9807-3.687z"/>
 <path id="_132432120" class="fil11 str1" d="m75.124 149.46l0.0479 0.357 0.0226 0.348-0.0029 0.337m-0.0676-1.042z"/>
 <path id="_132432688" class="fil11 str1" d="m75.192 150.5l-0.0658 0.548-0.141 0.484-0.2118 0.403-0.2756 0.31-0.064 0.051m0.7582-1.796z"/>
 <path id="_132433256" class="fil11 str1" d="m62.784 157.92l-0.4244-0.003-0.4177-0.06-0.4068-0.115-0.3917-0.17-0.3725-0.223-0.3496-0.273-0.323-0.321-0.2931-0.366m2.9788 1.531z"/>
 <line id="_132433640" y2="157.92" class="fil11 str1" y1="157.92" x2="62.784" x1="62.812"/>
 <path id="_132434240" class="fil11 str1" d="m75.124 149.46l0.0216 0.134 0.0178 0.134 0.0141 0.133 0.0104 0.131 0.0066 0.131 0.0028 0.128-0.0009 0.127-0.0048 0.124m-0.0676-1.042z"/>
 <polyline id="_132434808" points="137.68 164.07 137.46 163.63 137.15 162.8 137 161.98 137.02 161.18 137.19 160.43 137.52 159.74 138 159.14 138.61 158.63 139.34 158.23 140.17 157.95 141.09 157.79 142.06 157.77 143.07 157.88 144.08 158.12 145.08 158.48 146.03 158.95 146.92 159.53 147.72 160.19 148.41 160.92 148.98 161.71 149.4 162.52 149.67 163.35 149.79 164.17 149.74 164.96 149.54 165.7" class="fil11 str1"/>
 <path id="_132435376" class="fil11 str1" d="m151.86 160.91l0.31-0.726 0.41-1.206 0.265-1.247 0.072-1.013-0.076-1.001-0.164-0.7m-0.817 5.893z"/>
 <path id="_132435760" class="fil11 str1" d="m144.3 151.35l0.213 0.202 0.162 0.74-0.289 0.745-0.578 0.614-0.835 0.583-1.09 0.609-1.105 0.575-0.814 0.442-0.508 0.299-0.258 0.153-0.001-0.029m5.103-4.933z"/>
 <path id="_132436448" class="fil11 str1" d="m152.64 154.93l-0.443-0.716-0.622-0.76-0.739-0.7-0.838-0.622-0.917-0.53-0.973-0.423-1.003-0.306-1.01-0.181-0.991-0.053-0.948 0.078-0.333 0.061m8.817 4.152z"/>
 <path id="_132437144" class="fil11 str1" d="m147.34 163.88l-0.013 0.053 0.014 0.045 0.04 0.032 0.066 0.017h0.072m-0.179-0.147z"/>
 <path id="_132437832" class="fil11 str1" d="m147.34 163.88l-0.067-0.645-0.228-0.656-0.378-0.638-0.514-0.596-0.627-0.527-0.716-0.438-0.775-0.33-0.801-0.209-0.795-0.079-0.756 0.055-0.685 0.185-0.586 0.309-0.464 0.419-0.292 0.448m7.684 2.702z"/>
 <line id="_132438400" y2="160.93" class="fil11 str1" y1="160.91" x2="151.85" x1="151.86"/>
 <line id="_132438952" y2="102.67" class="fil11 str1" y1="102.67" x2="122.21" x1="122.43"/>
 <line id="_132439520" y2="102.67" class="fil11 str1" y1="102.83" x2="122.43" x1="120.38"/>
 <path id="_132440072" class="fil11 str1" d="m87.987 102.94l-0.2833 0.029-0.1141 0.029 0.0561 0.028 0.2258 0.026 0.3932 0.024 0.5565 0.022 0.7141 0.021 0.8645 0.018 1.0058 0.015 1.137 0.012 1.2565 0.01 1.3629 0.007 1.4556 0.003 1.5331 0.001 1.5951-0.003 1.6402-0.005 1.67-0.009 1.681-0.011 1.675-0.015 1.652-0.017 1.612-0.019 1.556-0.022 1.484-0.023 1.396-0.026 1.295-0.027 1.179-0.028 1.052-0.03 0.913-0.03 0.767-0.03 0.611-0.031 0.449-0.03m-32.391 0.111z"/>
 <line id="_132440672" y2="102.94" class="fil11 str1" y1="102.79" x2="87.987" x1="89.882"/>
 <path id="_132441256" class="fil11 str1" d="m89.875 102.84l0.0577 0.023 0.2227 0.026 0.3876 0.024 0.5488 0.022 0.7041 0.02 0.8524 0.017 0.9918 0.015 1.1211 0.013 1.2388 0.009 1.3439 0.007 1.4352 0.003 1.5112 0.001 1.573-0.003 1.618-0.005 1.646-0.009 1.657-0.011 1.652-0.014 1.629-0.017 1.59-0.019 1.534-0.021 1.463-0.024 1.377-0.025 1.276-0.026 1.163-0.028 1.037-0.029 0.901-0.03 0.755-0.03 0.603-0.03 0.443-0.03m-32.332 0.171z"/>
 <path id="_132441808" class="fil11 str1" d="m87.607 105.77l0.0586 0.023 0.2258 0.026 0.3932 0.025 0.5565 0.022 0.7141 0.02 0.8645 0.018 1.0059 0.015 1.1369 0.013 1.2565 0.009 1.3629 0.007 1.4556 0.004h1.5331l1.5951-0.002 1.6405-0.006 1.669-0.008 1.681-0.012 1.675-0.014 1.653-0.017 1.612-0.02 1.556-0.021 1.484-0.024 1.396-0.026 1.294-0.027 1.179-0.028 1.052-0.029 0.914-0.03 0.766-0.031 0.611-0.03 0.45-0.03m-32.791 0.173z"/>
 <path id="_132442496" class="fil11 str1" d="m122.85 105.37l-0.002 0.005-0.114 0.029-0.284 0.029m0.4-0.063z"/>
 <line id="_132443048" y2="105.43" class="fil11 str1" y1="102.67" x2="122.45" x1="122.43"/>
 <line id="_132443600" y2="105.43" class="fil11 str1" y1="105.6" x2="122.45" x1="120.4"/>
<metadata><rdf:RDF><cc:Work><dc:format>image/svg+xml</dc:format><dc:type rdf:resource="http://purl.org/dc/dcmitype/StillImage"/><cc:license rdf:resource="http://creativecommons.org/licenses/publicdomain/"/><dc:publisher><cc:Agent rdf:about="http://openclipart.org/"><dc:title>Openclipart</dc:title></cc:Agent></dc:publisher><dc:title>Minifig</dc:title><dc:date>2010-09-05T20:12:57</dc:date><dc:description>Minfig</dc:description><dc:source>http://openclipart.org/detail/83629/minifig-by-l.esteves</dc:source><dc:creator><cc:Agent><dc:title>l.esteves</dc:title></cc:Agent></dc:creator><dc:subject><rdf:Bag><rdf:li>Minifig</rdf:li><rdf:li>clip art</rdf:li><rdf:li>clipart</rdf:li><rdf:li>man</rdf:li><rdf:li>toy</rdf:li></rdf:Bag></dc:subject></cc:Work><cc:License rdf:about="http://creativecommons.org/licenses/publicdomain/"><cc:permits rdf:resource="http://creativecommons.org/ns#Reproduction"/><cc:permits rdf:resource="http://creativecommons.org/ns#Distribution"/><cc:permits rdf:resource="http://creativecommons.org/ns#DerivativeWorks"/></cc:License></rdf:RDF></metadata></svg>
